<mxfile host="app.diagrams.net" agent="Mozilla/5.0 (Windows NT 10.0; Win64; x64) AppleWebKit/537.36 (KHTML, like Gecko) Chrome/131.0.0.0 Safari/537.36" version="25.0.3">
  <diagram name="Page-1" id="vvbWiO9Fxgj8nJFPF4MB">
    <mxGraphModel dx="23250" dy="10000" grid="1" gridSize="10" guides="1" tooltips="1" connect="1" arrows="1" fold="1" page="1" pageScale="1" pageWidth="850" pageHeight="1100" math="0" shadow="0">
      <root>
        <mxCell id="0" />
        <mxCell id="1" parent="0" />
        <mxCell id="C6_vnJyK-bcxYRQT8Ih0-3" value="" style="edgeStyle=orthogonalEdgeStyle;rounded=0;orthogonalLoop=1;jettySize=auto;html=1;" edge="1" parent="1" source="C6_vnJyK-bcxYRQT8Ih0-1" target="C6_vnJyK-bcxYRQT8Ih0-2">
          <mxGeometry relative="1" as="geometry" />
        </mxCell>
        <mxCell id="C6_vnJyK-bcxYRQT8Ih0-1" value="&lt;font style=&quot;font-size: 10px;&quot;&gt;Open Laptop/Computer&lt;/font&gt;" style="rounded=1;whiteSpace=wrap;html=1;fillColor=#FF6666;" vertex="1" parent="1">
          <mxGeometry x="365" y="40" width="115" height="30" as="geometry" />
        </mxCell>
        <mxCell id="C6_vnJyK-bcxYRQT8Ih0-7" value="" style="edgeStyle=orthogonalEdgeStyle;rounded=0;orthogonalLoop=1;jettySize=auto;html=1;" edge="1" parent="1" source="C6_vnJyK-bcxYRQT8Ih0-2" target="C6_vnJyK-bcxYRQT8Ih0-4">
          <mxGeometry relative="1" as="geometry" />
        </mxCell>
        <mxCell id="C6_vnJyK-bcxYRQT8Ih0-2" value="&lt;font style=&quot;font-size: 10px;&quot;&gt;Bobontugan National High School School E-learning Portal&lt;/font&gt;" style="rounded=0;whiteSpace=wrap;html=1;" vertex="1" parent="1">
          <mxGeometry x="347.5" y="90" width="150" height="50" as="geometry" />
        </mxCell>
        <mxCell id="C6_vnJyK-bcxYRQT8Ih0-9" value="" style="edgeStyle=orthogonalEdgeStyle;rounded=0;orthogonalLoop=1;jettySize=auto;html=1;" edge="1" parent="1" source="C6_vnJyK-bcxYRQT8Ih0-4" target="C6_vnJyK-bcxYRQT8Ih0-8">
          <mxGeometry relative="1" as="geometry" />
        </mxCell>
        <mxCell id="C6_vnJyK-bcxYRQT8Ih0-4" value="LOGIN" style="rounded=0;whiteSpace=wrap;html=1;" vertex="1" parent="1">
          <mxGeometry x="382.5" y="170" width="80" height="30" as="geometry" />
        </mxCell>
        <mxCell id="C6_vnJyK-bcxYRQT8Ih0-11" value="" style="edgeStyle=orthogonalEdgeStyle;rounded=0;orthogonalLoop=1;jettySize=auto;html=1;" edge="1" parent="1" source="C6_vnJyK-bcxYRQT8Ih0-8" target="C6_vnJyK-bcxYRQT8Ih0-10">
          <mxGeometry relative="1" as="geometry" />
        </mxCell>
        <mxCell id="C6_vnJyK-bcxYRQT8Ih0-8" value="Login and Verify Credentials" style="shape=parallelogram;perimeter=parallelogramPerimeter;whiteSpace=wrap;html=1;fixedSize=1;" vertex="1" parent="1">
          <mxGeometry x="362.5" y="230" width="120" height="60" as="geometry" />
        </mxCell>
        <mxCell id="C6_vnJyK-bcxYRQT8Ih0-13" value="" style="edgeStyle=orthogonalEdgeStyle;rounded=0;orthogonalLoop=1;jettySize=auto;html=1;" edge="1" parent="1" source="C6_vnJyK-bcxYRQT8Ih0-10" target="C6_vnJyK-bcxYRQT8Ih0-12">
          <mxGeometry relative="1" as="geometry" />
        </mxCell>
        <mxCell id="C6_vnJyK-bcxYRQT8Ih0-10" value="Verify" style="rhombus;whiteSpace=wrap;html=1;" vertex="1" parent="1">
          <mxGeometry x="397.5" y="310" width="50" height="50" as="geometry" />
        </mxCell>
        <mxCell id="C6_vnJyK-bcxYRQT8Ih0-12" value="Dashboard" style="rounded=0;whiteSpace=wrap;html=1;" vertex="1" parent="1">
          <mxGeometry x="367.5" y="380" width="110" height="50" as="geometry" />
        </mxCell>
        <mxCell id="C6_vnJyK-bcxYRQT8Ih0-14" value="Sections" style="rounded=0;whiteSpace=wrap;html=1;" vertex="1" parent="1">
          <mxGeometry x="297.5" y="480" width="100" height="40" as="geometry" />
        </mxCell>
        <mxCell id="C6_vnJyK-bcxYRQT8Ih0-15" value="Subjects" style="rounded=0;whiteSpace=wrap;html=1;" vertex="1" parent="1">
          <mxGeometry x="440" y="480" width="100" height="40" as="geometry" />
        </mxCell>
        <mxCell id="C6_vnJyK-bcxYRQT8Ih0-16" value="Users" style="rounded=0;whiteSpace=wrap;html=1;" vertex="1" parent="1">
          <mxGeometry x="160" y="480" width="100" height="40" as="geometry" />
        </mxCell>
        <mxCell id="C6_vnJyK-bcxYRQT8Ih0-17" value="Classroom" style="rounded=0;whiteSpace=wrap;html=1;" vertex="1" parent="1">
          <mxGeometry x="20" y="480" width="100" height="40" as="geometry" />
        </mxCell>
        <mxCell id="C6_vnJyK-bcxYRQT8Ih0-18" value="Gamified" style="rounded=0;whiteSpace=wrap;html=1;" vertex="1" parent="1">
          <mxGeometry x="-120" y="480" width="100" height="40" as="geometry" />
        </mxCell>
        <mxCell id="C6_vnJyK-bcxYRQT8Ih0-19" value="Settings" style="rounded=0;whiteSpace=wrap;html=1;" vertex="1" parent="1">
          <mxGeometry x="580" y="480" width="100" height="40" as="geometry" />
        </mxCell>
        <mxCell id="C6_vnJyK-bcxYRQT8Ih0-20" value="Pins" style="rounded=0;whiteSpace=wrap;html=1;" vertex="1" parent="1">
          <mxGeometry x="720" y="480" width="100" height="40" as="geometry" />
        </mxCell>
        <mxCell id="C6_vnJyK-bcxYRQT8Ih0-21" value="Profile" style="rounded=0;whiteSpace=wrap;html=1;" vertex="1" parent="1">
          <mxGeometry x="860" y="480" width="100" height="40" as="geometry" />
        </mxCell>
        <mxCell id="C6_vnJyK-bcxYRQT8Ih0-22" value="" style="endArrow=none;html=1;rounded=0;" edge="1" parent="1">
          <mxGeometry width="50" height="50" relative="1" as="geometry">
            <mxPoint x="-70" y="460" as="sourcePoint" />
            <mxPoint x="1000" y="460" as="targetPoint" />
          </mxGeometry>
        </mxCell>
        <mxCell id="C6_vnJyK-bcxYRQT8Ih0-24" value="" style="endArrow=classic;html=1;rounded=0;exitX=0.5;exitY=1;exitDx=0;exitDy=0;" edge="1" parent="1" source="C6_vnJyK-bcxYRQT8Ih0-12">
          <mxGeometry width="50" height="50" relative="1" as="geometry">
            <mxPoint x="422" y="440" as="sourcePoint" />
            <mxPoint x="422.16999999999996" y="460" as="targetPoint" />
          </mxGeometry>
        </mxCell>
        <mxCell id="C6_vnJyK-bcxYRQT8Ih0-25" value="" style="endArrow=classic;html=1;rounded=0;entryX=0.5;entryY=0;entryDx=0;entryDy=0;" edge="1" parent="1" target="C6_vnJyK-bcxYRQT8Ih0-15">
          <mxGeometry width="50" height="50" relative="1" as="geometry">
            <mxPoint x="490.21" y="460" as="sourcePoint" />
            <mxPoint x="489.7899999999999" y="480" as="targetPoint" />
          </mxGeometry>
        </mxCell>
        <mxCell id="C6_vnJyK-bcxYRQT8Ih0-26" value="" style="endArrow=classic;html=1;rounded=0;entryX=0.5;entryY=0;entryDx=0;entryDy=0;" edge="1" parent="1">
          <mxGeometry width="50" height="50" relative="1" as="geometry">
            <mxPoint x="629.92" y="460" as="sourcePoint" />
            <mxPoint x="629.71" y="480" as="targetPoint" />
          </mxGeometry>
        </mxCell>
        <mxCell id="C6_vnJyK-bcxYRQT8Ih0-30" value="" style="endArrow=classic;html=1;rounded=0;entryX=0.5;entryY=0;entryDx=0;entryDy=0;" edge="1" parent="1">
          <mxGeometry width="50" height="50" relative="1" as="geometry">
            <mxPoint x="769.92" y="460" as="sourcePoint" />
            <mxPoint x="769.71" y="480" as="targetPoint" />
          </mxGeometry>
        </mxCell>
        <mxCell id="C6_vnJyK-bcxYRQT8Ih0-31" value="" style="endArrow=classic;html=1;rounded=0;entryX=0.5;entryY=0;entryDx=0;entryDy=0;" edge="1" parent="1">
          <mxGeometry width="50" height="50" relative="1" as="geometry">
            <mxPoint x="909.92" y="460" as="sourcePoint" />
            <mxPoint x="909.71" y="480" as="targetPoint" />
          </mxGeometry>
        </mxCell>
        <mxCell id="C6_vnJyK-bcxYRQT8Ih0-32" value="" style="endArrow=classic;html=1;rounded=0;entryX=0.5;entryY=0;entryDx=0;entryDy=0;" edge="1" parent="1">
          <mxGeometry width="50" height="50" relative="1" as="geometry">
            <mxPoint x="347.71" y="460" as="sourcePoint" />
            <mxPoint x="347.5" y="480" as="targetPoint" />
          </mxGeometry>
        </mxCell>
        <mxCell id="C6_vnJyK-bcxYRQT8Ih0-33" value="" style="endArrow=classic;html=1;rounded=0;entryX=0.5;entryY=0;entryDx=0;entryDy=0;" edge="1" parent="1">
          <mxGeometry width="50" height="50" relative="1" as="geometry">
            <mxPoint x="209.92" y="460" as="sourcePoint" />
            <mxPoint x="209.71" y="480" as="targetPoint" />
          </mxGeometry>
        </mxCell>
        <mxCell id="C6_vnJyK-bcxYRQT8Ih0-34" value="" style="endArrow=classic;html=1;rounded=0;entryX=0.5;entryY=0;entryDx=0;entryDy=0;" edge="1" parent="1">
          <mxGeometry width="50" height="50" relative="1" as="geometry">
            <mxPoint x="-70.08000000000004" y="460" as="sourcePoint" />
            <mxPoint x="-70.29000000000002" y="480" as="targetPoint" />
          </mxGeometry>
        </mxCell>
        <mxCell id="C6_vnJyK-bcxYRQT8Ih0-35" value="" style="endArrow=classic;html=1;rounded=0;entryX=0.5;entryY=0;entryDx=0;entryDy=0;" edge="1" parent="1">
          <mxGeometry width="50" height="50" relative="1" as="geometry">
            <mxPoint x="69.91999999999996" y="460" as="sourcePoint" />
            <mxPoint x="69.70999999999998" y="480" as="targetPoint" />
          </mxGeometry>
        </mxCell>
        <mxCell id="C6_vnJyK-bcxYRQT8Ih0-36" value="" style="endArrow=none;html=1;rounded=0;" edge="1" parent="1">
          <mxGeometry width="50" height="50" relative="1" as="geometry">
            <mxPoint x="-170" y="560" as="sourcePoint" />
            <mxPoint x="1000" y="560" as="targetPoint" />
          </mxGeometry>
        </mxCell>
        <mxCell id="C6_vnJyK-bcxYRQT8Ih0-37" value="" style="endArrow=none;html=1;rounded=0;" edge="1" parent="1">
          <mxGeometry width="50" height="50" relative="1" as="geometry">
            <mxPoint x="1000" y="560" as="sourcePoint" />
            <mxPoint x="1000" y="460" as="targetPoint" />
          </mxGeometry>
        </mxCell>
        <mxCell id="C6_vnJyK-bcxYRQT8Ih0-38" value="" style="endArrow=none;html=1;rounded=0;" edge="1" parent="1">
          <mxGeometry width="50" height="50" relative="1" as="geometry">
            <mxPoint x="-170" y="560" as="sourcePoint" />
            <mxPoint x="-170" y="320" as="targetPoint" />
          </mxGeometry>
        </mxCell>
        <mxCell id="C6_vnJyK-bcxYRQT8Ih0-40" value="Database" style="shape=cylinder3;whiteSpace=wrap;html=1;boundedLbl=1;backgroundOutline=1;size=15;fillColor=#FF6666;" vertex="1" parent="1">
          <mxGeometry x="-120" y="250" width="60" height="100" as="geometry" />
        </mxCell>
        <mxCell id="C6_vnJyK-bcxYRQT8Ih0-42" value="" style="endArrow=classic;html=1;rounded=0;entryX=0;entryY=0.75;entryDx=0;entryDy=0;entryPerimeter=0;" edge="1" parent="1">
          <mxGeometry width="50" height="50" relative="1" as="geometry">
            <mxPoint x="-170" y="320" as="sourcePoint" />
            <mxPoint x="-120" y="319.99999999999994" as="targetPoint" />
            <Array as="points">
              <mxPoint x="-150" y="320" />
            </Array>
          </mxGeometry>
        </mxCell>
        <mxCell id="C6_vnJyK-bcxYRQT8Ih0-43" value="" style="endArrow=classic;html=1;rounded=0;" edge="1" parent="1">
          <mxGeometry width="50" height="50" relative="1" as="geometry">
            <mxPoint x="-90.5" y="250" as="sourcePoint" />
            <mxPoint x="380" y="190" as="targetPoint" />
            <Array as="points">
              <mxPoint x="-90" y="190" />
            </Array>
          </mxGeometry>
        </mxCell>
        <mxCell id="C6_vnJyK-bcxYRQT8Ih0-44" value="" style="endArrow=classic;html=1;rounded=0;exitX=1;exitY=0.5;exitDx=0;exitDy=0;entryX=0.987;entryY=0.6;entryDx=0;entryDy=0;entryPerimeter=0;" edge="1" parent="1" source="C6_vnJyK-bcxYRQT8Ih0-10" target="C6_vnJyK-bcxYRQT8Ih0-4">
          <mxGeometry width="50" height="50" relative="1" as="geometry">
            <mxPoint x="457.5" y="340" as="sourcePoint" />
            <mxPoint x="500" y="190" as="targetPoint" />
            <Array as="points">
              <mxPoint x="570" y="335" />
              <mxPoint x="570" y="188" />
            </Array>
          </mxGeometry>
        </mxCell>
        <mxCell id="C6_vnJyK-bcxYRQT8Ih0-45" value="&lt;font style=&quot;font-size: 10px;&quot;&gt;no&lt;/font&gt;" style="text;html=1;align=center;verticalAlign=middle;resizable=0;points=[];autosize=1;strokeColor=none;fillColor=none;" vertex="1" parent="1">
          <mxGeometry x="540" y="290" width="30" height="30" as="geometry" />
        </mxCell>
        <mxCell id="C6_vnJyK-bcxYRQT8Ih0-46" value="" style="endArrow=classic;html=1;rounded=0;entryX=0.5;entryY=0;entryDx=0;entryDy=0;" edge="1" parent="1">
          <mxGeometry width="50" height="50" relative="1" as="geometry">
            <mxPoint x="-70.12000000000003" y="560" as="sourcePoint" />
            <mxPoint x="-70.33000000000001" y="580" as="targetPoint" />
          </mxGeometry>
        </mxCell>
        <mxCell id="C6_vnJyK-bcxYRQT8Ih0-47" value="" style="endArrow=classic;html=1;rounded=0;entryX=0.5;entryY=0;entryDx=0;entryDy=0;" edge="1" parent="1">
          <mxGeometry width="50" height="50" relative="1" as="geometry">
            <mxPoint x="69.87999999999997" y="560" as="sourcePoint" />
            <mxPoint x="69.66999999999999" y="580" as="targetPoint" />
          </mxGeometry>
        </mxCell>
        <mxCell id="C6_vnJyK-bcxYRQT8Ih0-48" value="" style="endArrow=classic;html=1;rounded=0;entryX=0.5;entryY=0;entryDx=0;entryDy=0;" edge="1" parent="1">
          <mxGeometry width="50" height="50" relative="1" as="geometry">
            <mxPoint x="209.88" y="560" as="sourcePoint" />
            <mxPoint x="209.67000000000002" y="580" as="targetPoint" />
          </mxGeometry>
        </mxCell>
        <mxCell id="C6_vnJyK-bcxYRQT8Ih0-50" value="" style="endArrow=classic;html=1;rounded=0;entryX=0.5;entryY=0;entryDx=0;entryDy=0;" edge="1" parent="1">
          <mxGeometry width="50" height="50" relative="1" as="geometry">
            <mxPoint x="347.38" y="560" as="sourcePoint" />
            <mxPoint x="347.17" y="580" as="targetPoint" />
          </mxGeometry>
        </mxCell>
        <mxCell id="C6_vnJyK-bcxYRQT8Ih0-51" value="" style="endArrow=classic;html=1;rounded=0;entryX=0.5;entryY=0;entryDx=0;entryDy=0;" edge="1" parent="1">
          <mxGeometry width="50" height="50" relative="1" as="geometry">
            <mxPoint x="489.88" y="560" as="sourcePoint" />
            <mxPoint x="489.67" y="580" as="targetPoint" />
          </mxGeometry>
        </mxCell>
        <mxCell id="C6_vnJyK-bcxYRQT8Ih0-52" value="" style="endArrow=classic;html=1;rounded=0;entryX=0.5;entryY=0;entryDx=0;entryDy=0;" edge="1" parent="1">
          <mxGeometry width="50" height="50" relative="1" as="geometry">
            <mxPoint x="629.88" y="560" as="sourcePoint" />
            <mxPoint x="629.6700000000001" y="580" as="targetPoint" />
          </mxGeometry>
        </mxCell>
        <mxCell id="C6_vnJyK-bcxYRQT8Ih0-53" value="" style="endArrow=classic;html=1;rounded=0;entryX=0.5;entryY=0;entryDx=0;entryDy=0;" edge="1" parent="1">
          <mxGeometry width="50" height="50" relative="1" as="geometry">
            <mxPoint x="769.88" y="560" as="sourcePoint" />
            <mxPoint x="769.6700000000001" y="580" as="targetPoint" />
          </mxGeometry>
        </mxCell>
        <mxCell id="C6_vnJyK-bcxYRQT8Ih0-54" value="" style="endArrow=classic;html=1;rounded=0;entryX=0.5;entryY=0;entryDx=0;entryDy=0;" edge="1" parent="1">
          <mxGeometry width="50" height="50" relative="1" as="geometry">
            <mxPoint x="909.88" y="560" as="sourcePoint" />
            <mxPoint x="909.6700000000001" y="580" as="targetPoint" />
          </mxGeometry>
        </mxCell>
        <mxCell id="C6_vnJyK-bcxYRQT8Ih0-56" value="Drag &amp;amp; Drop Challenge, True/False Quiz, Connect the Dots" style="rounded=0;whiteSpace=wrap;html=1;" vertex="1" parent="1">
          <mxGeometry x="-120" y="580" width="100" height="70" as="geometry" />
        </mxCell>
        <mxCell id="C6_vnJyK-bcxYRQT8Ih0-58" value="Add Student, Students Information, Classwork" style="rounded=0;whiteSpace=wrap;html=1;" vertex="1" parent="1">
          <mxGeometry x="20" y="580" width="100" height="70" as="geometry" />
        </mxCell>
        <mxCell id="C6_vnJyK-bcxYRQT8Ih0-59" value="Create New User, Manage Users" style="rounded=0;whiteSpace=wrap;html=1;" vertex="1" parent="1">
          <mxGeometry x="160" y="580" width="100" height="70" as="geometry" />
        </mxCell>
        <mxCell id="C6_vnJyK-bcxYRQT8Ih0-60" value="Create New Section,&amp;nbsp;&lt;div&gt;Manage Sections&lt;/div&gt;" style="rounded=0;whiteSpace=wrap;html=1;" vertex="1" parent="1">
          <mxGeometry x="297.5" y="580" width="100" height="70" as="geometry" />
        </mxCell>
        <mxCell id="C6_vnJyK-bcxYRQT8Ih0-61" value="Add Subject, Manage Subjects" style="rounded=0;whiteSpace=wrap;html=1;" vertex="1" parent="1">
          <mxGeometry x="440" y="580" width="100" height="70" as="geometry" />
        </mxCell>
        <mxCell id="C6_vnJyK-bcxYRQT8Ih0-62" value="Manage System" style="rounded=0;whiteSpace=wrap;html=1;" vertex="1" parent="1">
          <mxGeometry x="580" y="580" width="100" height="70" as="geometry" />
        </mxCell>
        <mxCell id="C6_vnJyK-bcxYRQT8Ih0-63" value="Generate Pins, View Pins" style="rounded=0;whiteSpace=wrap;html=1;" vertex="1" parent="1">
          <mxGeometry x="720" y="580" width="100" height="70" as="geometry" />
        </mxCell>
        <mxCell id="C6_vnJyK-bcxYRQT8Ih0-64" value="Change Password, Manage Profile" style="rounded=0;whiteSpace=wrap;html=1;" vertex="1" parent="1">
          <mxGeometry x="860" y="580" width="100" height="70" as="geometry" />
        </mxCell>
        <mxCell id="C6_vnJyK-bcxYRQT8Ih0-65" value="" style="endArrow=none;html=1;rounded=0;" edge="1" parent="1">
          <mxGeometry width="50" height="50" relative="1" as="geometry">
            <mxPoint x="-70" y="670" as="sourcePoint" />
            <mxPoint x="910" y="670" as="targetPoint" />
          </mxGeometry>
        </mxCell>
        <mxCell id="C6_vnJyK-bcxYRQT8Ih0-67" value="" style="endArrow=classic;html=1;rounded=0;entryX=0.5;entryY=0;entryDx=0;entryDy=0;" edge="1" parent="1">
          <mxGeometry width="50" height="50" relative="1" as="geometry">
            <mxPoint x="-70.08000000000004" y="650" as="sourcePoint" />
            <mxPoint x="-70.29000000000002" y="670" as="targetPoint" />
          </mxGeometry>
        </mxCell>
        <mxCell id="C6_vnJyK-bcxYRQT8Ih0-68" value="" style="endArrow=classic;html=1;rounded=0;entryX=0.5;entryY=0;entryDx=0;entryDy=0;" edge="1" parent="1">
          <mxGeometry width="50" height="50" relative="1" as="geometry">
            <mxPoint x="69.91999999999996" y="650" as="sourcePoint" />
            <mxPoint x="69.70999999999998" y="670" as="targetPoint" />
          </mxGeometry>
        </mxCell>
        <mxCell id="C6_vnJyK-bcxYRQT8Ih0-69" value="" style="endArrow=classic;html=1;rounded=0;entryX=0.5;entryY=0;entryDx=0;entryDy=0;" edge="1" parent="1">
          <mxGeometry width="50" height="50" relative="1" as="geometry">
            <mxPoint x="209.92" y="650" as="sourcePoint" />
            <mxPoint x="209.71" y="670" as="targetPoint" />
          </mxGeometry>
        </mxCell>
        <mxCell id="C6_vnJyK-bcxYRQT8Ih0-70" value="" style="endArrow=classic;html=1;rounded=0;entryX=0.5;entryY=0;entryDx=0;entryDy=0;" edge="1" parent="1">
          <mxGeometry width="50" height="50" relative="1" as="geometry">
            <mxPoint x="347.71" y="650" as="sourcePoint" />
            <mxPoint x="347.5" y="670" as="targetPoint" />
          </mxGeometry>
        </mxCell>
        <mxCell id="C6_vnJyK-bcxYRQT8Ih0-71" value="" style="endArrow=classic;html=1;rounded=0;entryX=0.5;entryY=0;entryDx=0;entryDy=0;" edge="1" parent="1">
          <mxGeometry width="50" height="50" relative="1" as="geometry">
            <mxPoint x="489.92" y="650" as="sourcePoint" />
            <mxPoint x="489.71000000000004" y="670" as="targetPoint" />
          </mxGeometry>
        </mxCell>
        <mxCell id="C6_vnJyK-bcxYRQT8Ih0-72" value="" style="endArrow=classic;html=1;rounded=0;entryX=0.5;entryY=0;entryDx=0;entryDy=0;" edge="1" parent="1">
          <mxGeometry width="50" height="50" relative="1" as="geometry">
            <mxPoint x="629.92" y="650" as="sourcePoint" />
            <mxPoint x="629.71" y="670" as="targetPoint" />
          </mxGeometry>
        </mxCell>
        <mxCell id="C6_vnJyK-bcxYRQT8Ih0-73" value="" style="endArrow=classic;html=1;rounded=0;entryX=0.5;entryY=0;entryDx=0;entryDy=0;" edge="1" parent="1">
          <mxGeometry width="50" height="50" relative="1" as="geometry">
            <mxPoint x="769.92" y="650" as="sourcePoint" />
            <mxPoint x="769.71" y="670" as="targetPoint" />
          </mxGeometry>
        </mxCell>
        <mxCell id="C6_vnJyK-bcxYRQT8Ih0-74" value="" style="endArrow=classic;html=1;rounded=0;entryX=0.5;entryY=0;entryDx=0;entryDy=0;" edge="1" parent="1">
          <mxGeometry width="50" height="50" relative="1" as="geometry">
            <mxPoint x="909.92" y="650" as="sourcePoint" />
            <mxPoint x="909.71" y="670" as="targetPoint" />
          </mxGeometry>
        </mxCell>
        <mxCell id="C6_vnJyK-bcxYRQT8Ih0-75" value="" style="endArrow=classic;html=1;rounded=0;exitX=0.5;exitY=1;exitDx=0;exitDy=0;" edge="1" parent="1">
          <mxGeometry width="50" height="50" relative="1" as="geometry">
            <mxPoint x="422.91" y="670" as="sourcePoint" />
            <mxPoint x="422.08" y="700" as="targetPoint" />
          </mxGeometry>
        </mxCell>
        <mxCell id="C6_vnJyK-bcxYRQT8Ih0-76" value="&lt;font style=&quot;font-size: 10px;&quot;&gt;LOGOUT&lt;/font&gt;" style="rounded=1;whiteSpace=wrap;html=1;fillColor=#FF6666;" vertex="1" parent="1">
          <mxGeometry x="365" y="700" width="115" height="30" as="geometry" />
        </mxCell>
        <mxCell id="C6_vnJyK-bcxYRQT8Ih0-134" value="Start" style="ellipse;whiteSpace=wrap;html=1;fillColor=#FF6666;" vertex="1" parent="1">
          <mxGeometry x="2670" y="85" width="110" height="60" as="geometry" />
        </mxCell>
        <mxCell id="C6_vnJyK-bcxYRQT8Ih0-135" value="" style="endArrow=classic;html=1;rounded=0;exitX=1;exitY=0.5;exitDx=0;exitDy=0;" edge="1" parent="1">
          <mxGeometry width="50" height="50" relative="1" as="geometry">
            <mxPoint x="2780" y="120" as="sourcePoint" />
            <mxPoint x="2900" y="170" as="targetPoint" />
            <Array as="points">
              <mxPoint x="2900" y="120" />
            </Array>
          </mxGeometry>
        </mxCell>
        <mxCell id="C6_vnJyK-bcxYRQT8Ih0-136" value="Login" style="rounded=1;whiteSpace=wrap;html=1;" vertex="1" parent="1">
          <mxGeometry x="2850" y="170" width="100" height="30" as="geometry" />
        </mxCell>
        <mxCell id="C6_vnJyK-bcxYRQT8Ih0-137" value="" style="endArrow=classic;html=1;rounded=0;exitX=0;exitY=0.5;exitDx=0;exitDy=0;entryX=0.5;entryY=0;entryDx=0;entryDy=0;" edge="1" parent="1">
          <mxGeometry width="50" height="50" relative="1" as="geometry">
            <mxPoint x="2850" y="185" as="sourcePoint" />
            <mxPoint x="2740" y="220" as="targetPoint" />
            <Array as="points">
              <mxPoint x="2740" y="185" />
            </Array>
          </mxGeometry>
        </mxCell>
        <mxCell id="C6_vnJyK-bcxYRQT8Ih0-138" value="Dashboard" style="rounded=1;whiteSpace=wrap;html=1;" vertex="1" parent="1">
          <mxGeometry x="2680" y="218" width="120" height="52" as="geometry" />
        </mxCell>
        <mxCell id="C6_vnJyK-bcxYRQT8Ih0-139" value="Access User" style="rhombus;whiteSpace=wrap;html=1;" vertex="1" parent="1">
          <mxGeometry x="2705" y="298" width="70" height="70" as="geometry" />
        </mxCell>
        <mxCell id="C6_vnJyK-bcxYRQT8Ih0-140" value="Classroom" style="rounded=1;whiteSpace=wrap;html=1;" vertex="1" parent="1">
          <mxGeometry x="2830" y="320" width="80" height="26" as="geometry" />
        </mxCell>
        <mxCell id="C6_vnJyK-bcxYRQT8Ih0-142" value="" style="edgeStyle=orthogonalEdgeStyle;rounded=0;orthogonalLoop=1;jettySize=auto;html=1;" edge="1" parent="1">
          <mxGeometry relative="1" as="geometry">
            <mxPoint x="2739.7599999999998" y="270" as="sourcePoint" />
            <mxPoint x="2739.7599999999998" y="300" as="targetPoint" />
          </mxGeometry>
        </mxCell>
        <mxCell id="C6_vnJyK-bcxYRQT8Ih0-143" value="" style="endArrow=classic;html=1;rounded=0;entryX=0;entryY=0.5;entryDx=0;entryDy=0;" edge="1" parent="1" target="C6_vnJyK-bcxYRQT8Ih0-140">
          <mxGeometry width="50" height="50" relative="1" as="geometry">
            <mxPoint x="2775" y="332.88" as="sourcePoint" />
            <mxPoint x="2827.6800000000003" y="332.83200000000005" as="targetPoint" />
            <Array as="points">
              <mxPoint x="2810" y="333.17" />
            </Array>
          </mxGeometry>
        </mxCell>
        <mxCell id="C6_vnJyK-bcxYRQT8Ih0-144" value="" style="endArrow=classic;html=1;rounded=0;exitX=0;exitY=0.5;exitDx=0;exitDy=0;entryX=0;entryY=0.6;entryDx=0;entryDy=0;entryPerimeter=0;" edge="1" parent="1">
          <mxGeometry width="50" height="50" relative="1" as="geometry">
            <mxPoint x="2705" y="335" as="sourcePoint" />
            <mxPoint x="2680" y="250" as="targetPoint" />
            <Array as="points">
              <mxPoint x="2640" y="335" />
              <mxPoint x="2640" y="250" />
            </Array>
          </mxGeometry>
        </mxCell>
        <mxCell id="C6_vnJyK-bcxYRQT8Ih0-145" value="&lt;font style=&quot;font-size: 10px;&quot;&gt;no&lt;/font&gt;" style="text;html=1;align=center;verticalAlign=middle;resizable=0;points=[];autosize=1;strokeColor=none;fillColor=none;" vertex="1" parent="1">
          <mxGeometry x="2610" y="285" width="30" height="30" as="geometry" />
        </mxCell>
        <mxCell id="C6_vnJyK-bcxYRQT8Ih0-146" value="&lt;font style=&quot;font-size: 10px;&quot;&gt;yes&lt;/font&gt;" style="text;html=1;align=center;verticalAlign=middle;resizable=0;points=[];autosize=1;strokeColor=none;fillColor=none;" vertex="1" parent="1">
          <mxGeometry x="2775" y="298" width="40" height="30" as="geometry" />
        </mxCell>
        <mxCell id="C6_vnJyK-bcxYRQT8Ih0-147" value="" style="endArrow=classic;html=1;rounded=0;exitX=0.5;exitY=1;exitDx=0;exitDy=0;" edge="1" parent="1">
          <mxGeometry width="50" height="50" relative="1" as="geometry">
            <mxPoint x="2865" y="346" as="sourcePoint" />
            <mxPoint x="2740" y="418" as="targetPoint" />
            <Array as="points">
              <mxPoint x="2865" y="398" />
              <mxPoint x="2740" y="398" />
            </Array>
          </mxGeometry>
        </mxCell>
        <mxCell id="C6_vnJyK-bcxYRQT8Ih0-150" value="" style="edgeStyle=orthogonalEdgeStyle;rounded=0;orthogonalLoop=1;jettySize=auto;html=1;" edge="1" parent="1" source="C6_vnJyK-bcxYRQT8Ih0-148" target="C6_vnJyK-bcxYRQT8Ih0-149">
          <mxGeometry relative="1" as="geometry" />
        </mxCell>
        <mxCell id="C6_vnJyK-bcxYRQT8Ih0-148" value="Add Student" style="rounded=1;whiteSpace=wrap;html=1;" vertex="1" parent="1">
          <mxGeometry x="2690" y="420" width="100" height="30" as="geometry" />
        </mxCell>
        <mxCell id="C6_vnJyK-bcxYRQT8Ih0-152" value="" style="edgeStyle=orthogonalEdgeStyle;rounded=0;orthogonalLoop=1;jettySize=auto;html=1;" edge="1" parent="1" source="C6_vnJyK-bcxYRQT8Ih0-149" target="C6_vnJyK-bcxYRQT8Ih0-151">
          <mxGeometry relative="1" as="geometry" />
        </mxCell>
        <mxCell id="C6_vnJyK-bcxYRQT8Ih0-149" value="Display Form" style="rounded=1;whiteSpace=wrap;html=1;" vertex="1" parent="1">
          <mxGeometry x="2690" y="470" width="100" height="30" as="geometry" />
        </mxCell>
        <mxCell id="C6_vnJyK-bcxYRQT8Ih0-155" value="" style="edgeStyle=orthogonalEdgeStyle;rounded=0;orthogonalLoop=1;jettySize=auto;html=1;" edge="1" parent="1" source="C6_vnJyK-bcxYRQT8Ih0-151" target="C6_vnJyK-bcxYRQT8Ih0-153">
          <mxGeometry relative="1" as="geometry" />
        </mxCell>
        <mxCell id="C6_vnJyK-bcxYRQT8Ih0-151" value="Input Data" style="rounded=1;whiteSpace=wrap;html=1;" vertex="1" parent="1">
          <mxGeometry x="2690" y="520" width="100" height="30" as="geometry" />
        </mxCell>
        <mxCell id="C6_vnJyK-bcxYRQT8Ih0-157" value="" style="edgeStyle=orthogonalEdgeStyle;rounded=0;orthogonalLoop=1;jettySize=auto;html=1;" edge="1" parent="1" source="C6_vnJyK-bcxYRQT8Ih0-153" target="C6_vnJyK-bcxYRQT8Ih0-156">
          <mxGeometry relative="1" as="geometry" />
        </mxCell>
        <mxCell id="C6_vnJyK-bcxYRQT8Ih0-153" value="Data Complete" style="rhombus;whiteSpace=wrap;html=1;" vertex="1" parent="1">
          <mxGeometry x="2707.5" y="570" width="65" height="70" as="geometry" />
        </mxCell>
        <mxCell id="C6_vnJyK-bcxYRQT8Ih0-154" value="" style="endArrow=classic;html=1;rounded=0;exitX=0;exitY=0.5;exitDx=0;exitDy=0;entryX=-0.016;entryY=0.672;entryDx=0;entryDy=0;entryPerimeter=0;" edge="1" parent="1" source="C6_vnJyK-bcxYRQT8Ih0-153" target="C6_vnJyK-bcxYRQT8Ih0-149">
          <mxGeometry width="50" height="50" relative="1" as="geometry">
            <mxPoint x="2705" y="610" as="sourcePoint" />
            <mxPoint x="2687" y="490" as="targetPoint" />
            <Array as="points">
              <mxPoint x="2662" y="605" />
              <mxPoint x="2662" y="490" />
            </Array>
          </mxGeometry>
        </mxCell>
        <mxCell id="C6_vnJyK-bcxYRQT8Ih0-159" value="" style="edgeStyle=orthogonalEdgeStyle;rounded=0;orthogonalLoop=1;jettySize=auto;html=1;" edge="1" parent="1" source="C6_vnJyK-bcxYRQT8Ih0-156" target="C6_vnJyK-bcxYRQT8Ih0-158">
          <mxGeometry relative="1" as="geometry" />
        </mxCell>
        <mxCell id="C6_vnJyK-bcxYRQT8Ih0-156" value="Save Changes" style="rounded=1;whiteSpace=wrap;html=1;" vertex="1" parent="1">
          <mxGeometry x="2697.5" y="660" width="85" height="30" as="geometry" />
        </mxCell>
        <mxCell id="C6_vnJyK-bcxYRQT8Ih0-158" value="End" style="ellipse;whiteSpace=wrap;html=1;fillColor=#FF6666;" vertex="1" parent="1">
          <mxGeometry x="2685" y="720" width="110" height="60" as="geometry" />
        </mxCell>
        <mxCell id="C6_vnJyK-bcxYRQT8Ih0-160" value="&lt;font style=&quot;font-size: 10px;&quot;&gt;no&lt;/font&gt;" style="text;html=1;align=center;verticalAlign=middle;resizable=0;points=[];autosize=1;strokeColor=none;fillColor=none;" vertex="1" parent="1">
          <mxGeometry x="2635" y="548" width="30" height="30" as="geometry" />
        </mxCell>
        <mxCell id="C6_vnJyK-bcxYRQT8Ih0-161" value="&lt;font style=&quot;font-size: 10px;&quot;&gt;yes&lt;/font&gt;" style="text;html=1;align=center;verticalAlign=middle;resizable=0;points=[];autosize=1;strokeColor=none;fillColor=none;" vertex="1" parent="1">
          <mxGeometry x="2740" y="630" width="40" height="30" as="geometry" />
        </mxCell>
        <mxCell id="C6_vnJyK-bcxYRQT8Ih0-262" value="" style="group" vertex="1" connectable="0" parent="1">
          <mxGeometry x="3060" y="80" width="410" height="820" as="geometry" />
        </mxCell>
        <mxCell id="C6_vnJyK-bcxYRQT8Ih0-162" value="Start" style="ellipse;whiteSpace=wrap;html=1;fillColor=#FF6666;" vertex="1" parent="C6_vnJyK-bcxYRQT8Ih0-262">
          <mxGeometry x="130" width="110" height="60" as="geometry" />
        </mxCell>
        <mxCell id="C6_vnJyK-bcxYRQT8Ih0-163" value="" style="endArrow=classic;html=1;rounded=0;exitX=1;exitY=0.5;exitDx=0;exitDy=0;" edge="1" parent="C6_vnJyK-bcxYRQT8Ih0-262">
          <mxGeometry width="50" height="50" relative="1" as="geometry">
            <mxPoint x="240" y="40" as="sourcePoint" />
            <mxPoint x="360" y="90" as="targetPoint" />
            <Array as="points">
              <mxPoint x="360" y="40" />
            </Array>
          </mxGeometry>
        </mxCell>
        <mxCell id="C6_vnJyK-bcxYRQT8Ih0-164" value="Login" style="rounded=1;whiteSpace=wrap;html=1;" vertex="1" parent="C6_vnJyK-bcxYRQT8Ih0-262">
          <mxGeometry x="310" y="90" width="100" height="30" as="geometry" />
        </mxCell>
        <mxCell id="C6_vnJyK-bcxYRQT8Ih0-165" value="" style="endArrow=classic;html=1;rounded=0;exitX=0;exitY=0.5;exitDx=0;exitDy=0;entryX=0.5;entryY=0;entryDx=0;entryDy=0;" edge="1" parent="C6_vnJyK-bcxYRQT8Ih0-262">
          <mxGeometry width="50" height="50" relative="1" as="geometry">
            <mxPoint x="310" y="105" as="sourcePoint" />
            <mxPoint x="200" y="140" as="targetPoint" />
            <Array as="points">
              <mxPoint x="200" y="105" />
            </Array>
          </mxGeometry>
        </mxCell>
        <mxCell id="C6_vnJyK-bcxYRQT8Ih0-169" value="" style="edgeStyle=orthogonalEdgeStyle;rounded=0;orthogonalLoop=1;jettySize=auto;html=1;" edge="1" parent="C6_vnJyK-bcxYRQT8Ih0-262" source="C6_vnJyK-bcxYRQT8Ih0-166" target="C6_vnJyK-bcxYRQT8Ih0-168">
          <mxGeometry relative="1" as="geometry" />
        </mxCell>
        <mxCell id="C6_vnJyK-bcxYRQT8Ih0-166" value="Dashboard" style="rounded=1;whiteSpace=wrap;html=1;" vertex="1" parent="C6_vnJyK-bcxYRQT8Ih0-262">
          <mxGeometry x="140" y="140" width="120" height="52" as="geometry" />
        </mxCell>
        <mxCell id="C6_vnJyK-bcxYRQT8Ih0-167" value="" style="endArrow=classic;html=1;rounded=0;exitX=0;exitY=0.5;exitDx=0;exitDy=0;entryX=0;entryY=0.6;entryDx=0;entryDy=0;entryPerimeter=0;" edge="1" parent="C6_vnJyK-bcxYRQT8Ih0-262">
          <mxGeometry width="50" height="50" relative="1" as="geometry">
            <mxPoint x="165" y="248" as="sourcePoint" />
            <mxPoint x="140" y="163" as="targetPoint" />
            <Array as="points">
              <mxPoint x="100" y="248" />
              <mxPoint x="100" y="163" />
            </Array>
          </mxGeometry>
        </mxCell>
        <mxCell id="C6_vnJyK-bcxYRQT8Ih0-168" value="Access User" style="rhombus;whiteSpace=wrap;html=1;" vertex="1" parent="C6_vnJyK-bcxYRQT8Ih0-262">
          <mxGeometry x="165" y="210" width="70" height="70" as="geometry" />
        </mxCell>
        <mxCell id="C6_vnJyK-bcxYRQT8Ih0-170" value="Classroom" style="rounded=1;whiteSpace=wrap;html=1;" vertex="1" parent="C6_vnJyK-bcxYRQT8Ih0-262">
          <mxGeometry x="290" y="232" width="80" height="26" as="geometry" />
        </mxCell>
        <mxCell id="C6_vnJyK-bcxYRQT8Ih0-171" value="" style="endArrow=classic;html=1;rounded=0;entryX=0;entryY=0.5;entryDx=0;entryDy=0;" edge="1" parent="C6_vnJyK-bcxYRQT8Ih0-262">
          <mxGeometry width="50" height="50" relative="1" as="geometry">
            <mxPoint x="235" y="244.70000000000005" as="sourcePoint" />
            <mxPoint x="290" y="244.82000000000005" as="targetPoint" />
            <Array as="points">
              <mxPoint x="270" y="244.99000000000007" />
            </Array>
          </mxGeometry>
        </mxCell>
        <mxCell id="C6_vnJyK-bcxYRQT8Ih0-172" value="" style="endArrow=classic;html=1;rounded=0;exitX=0.5;exitY=1;exitDx=0;exitDy=0;" edge="1" parent="C6_vnJyK-bcxYRQT8Ih0-262">
          <mxGeometry width="50" height="50" relative="1" as="geometry">
            <mxPoint x="335" y="258" as="sourcePoint" />
            <mxPoint x="210" y="330" as="targetPoint" />
            <Array as="points">
              <mxPoint x="335" y="310" />
              <mxPoint x="210" y="310" />
            </Array>
          </mxGeometry>
        </mxCell>
        <mxCell id="C6_vnJyK-bcxYRQT8Ih0-176" value="" style="edgeStyle=orthogonalEdgeStyle;rounded=0;orthogonalLoop=1;jettySize=auto;html=1;" edge="1" parent="C6_vnJyK-bcxYRQT8Ih0-262" source="C6_vnJyK-bcxYRQT8Ih0-173" target="C6_vnJyK-bcxYRQT8Ih0-175">
          <mxGeometry relative="1" as="geometry" />
        </mxCell>
        <mxCell id="C6_vnJyK-bcxYRQT8Ih0-173" value="Classwork" style="rounded=1;whiteSpace=wrap;html=1;" vertex="1" parent="C6_vnJyK-bcxYRQT8Ih0-262">
          <mxGeometry x="160" y="330" width="100" height="30" as="geometry" />
        </mxCell>
        <mxCell id="C6_vnJyK-bcxYRQT8Ih0-175" value="Select Subject" style="whiteSpace=wrap;html=1;rounded=1;" vertex="1" parent="C6_vnJyK-bcxYRQT8Ih0-262">
          <mxGeometry x="160" y="380" width="100" height="30" as="geometry" />
        </mxCell>
        <mxCell id="C6_vnJyK-bcxYRQT8Ih0-177" value="" style="edgeStyle=orthogonalEdgeStyle;rounded=0;orthogonalLoop=1;jettySize=auto;html=1;" edge="1" parent="C6_vnJyK-bcxYRQT8Ih0-262">
          <mxGeometry relative="1" as="geometry">
            <mxPoint x="209.6300000000001" y="410" as="sourcePoint" />
            <mxPoint x="209.6300000000001" y="430" as="targetPoint" />
          </mxGeometry>
        </mxCell>
        <mxCell id="C6_vnJyK-bcxYRQT8Ih0-178" value="" style="endArrow=none;html=1;rounded=0;" edge="1" parent="C6_vnJyK-bcxYRQT8Ih0-262">
          <mxGeometry width="50" height="50" relative="1" as="geometry">
            <mxPoint x="80" y="430" as="sourcePoint" />
            <mxPoint x="340" y="430" as="targetPoint" />
          </mxGeometry>
        </mxCell>
        <mxCell id="C6_vnJyK-bcxYRQT8Ih0-180" value="" style="edgeStyle=orthogonalEdgeStyle;rounded=0;orthogonalLoop=1;jettySize=auto;html=1;" edge="1" parent="C6_vnJyK-bcxYRQT8Ih0-262">
          <mxGeometry relative="1" as="geometry">
            <mxPoint x="209.6300000000001" y="430" as="sourcePoint" />
            <mxPoint x="209.6300000000001" y="450" as="targetPoint" />
          </mxGeometry>
        </mxCell>
        <mxCell id="C6_vnJyK-bcxYRQT8Ih0-181" value="Classwork" style="whiteSpace=wrap;html=1;rounded=1;" vertex="1" parent="C6_vnJyK-bcxYRQT8Ih0-262">
          <mxGeometry x="160" y="450" width="100" height="30" as="geometry" />
        </mxCell>
        <mxCell id="C6_vnJyK-bcxYRQT8Ih0-182" value="Student Works" style="whiteSpace=wrap;html=1;rounded=1;" vertex="1" parent="C6_vnJyK-bcxYRQT8Ih0-262">
          <mxGeometry x="290" y="450" width="100" height="30" as="geometry" />
        </mxCell>
        <mxCell id="C6_vnJyK-bcxYRQT8Ih0-183" value="&lt;font style=&quot;font-size: 9px;&quot;&gt;Create Quiz/Assignment&lt;/font&gt;" style="whiteSpace=wrap;html=1;rounded=1;" vertex="1" parent="C6_vnJyK-bcxYRQT8Ih0-262">
          <mxGeometry x="30" y="450" width="100" height="30" as="geometry" />
        </mxCell>
        <mxCell id="C6_vnJyK-bcxYRQT8Ih0-184" value="" style="edgeStyle=orthogonalEdgeStyle;rounded=0;orthogonalLoop=1;jettySize=auto;html=1;" edge="1" parent="C6_vnJyK-bcxYRQT8Ih0-262">
          <mxGeometry relative="1" as="geometry">
            <mxPoint x="339" y="430" as="sourcePoint" />
            <mxPoint x="339" y="450" as="targetPoint" />
          </mxGeometry>
        </mxCell>
        <mxCell id="C6_vnJyK-bcxYRQT8Ih0-185" value="" style="edgeStyle=orthogonalEdgeStyle;rounded=0;orthogonalLoop=1;jettySize=auto;html=1;" edge="1" parent="C6_vnJyK-bcxYRQT8Ih0-262">
          <mxGeometry relative="1" as="geometry">
            <mxPoint x="79.63000000000011" y="430" as="sourcePoint" />
            <mxPoint x="79.63000000000011" y="450" as="targetPoint" />
          </mxGeometry>
        </mxCell>
        <mxCell id="C6_vnJyK-bcxYRQT8Ih0-193" value="" style="edgeStyle=orthogonalEdgeStyle;rounded=0;orthogonalLoop=1;jettySize=auto;html=1;" edge="1" parent="C6_vnJyK-bcxYRQT8Ih0-262" source="C6_vnJyK-bcxYRQT8Ih0-186" target="C6_vnJyK-bcxYRQT8Ih0-192">
          <mxGeometry relative="1" as="geometry" />
        </mxCell>
        <mxCell id="C6_vnJyK-bcxYRQT8Ih0-186" value="Display Form" style="rounded=1;whiteSpace=wrap;html=1;" vertex="1" parent="C6_vnJyK-bcxYRQT8Ih0-262">
          <mxGeometry x="30" y="500" width="100" height="30" as="geometry" />
        </mxCell>
        <mxCell id="C6_vnJyK-bcxYRQT8Ih0-187" value="" style="edgeStyle=orthogonalEdgeStyle;rounded=0;orthogonalLoop=1;jettySize=auto;html=1;" edge="1" parent="C6_vnJyK-bcxYRQT8Ih0-262">
          <mxGeometry relative="1" as="geometry">
            <mxPoint x="79.63000000000011" y="480" as="sourcePoint" />
            <mxPoint x="79.63000000000011" y="500" as="targetPoint" />
          </mxGeometry>
        </mxCell>
        <mxCell id="C6_vnJyK-bcxYRQT8Ih0-188" value="Input Data" style="rounded=1;whiteSpace=wrap;html=1;" vertex="1" parent="C6_vnJyK-bcxYRQT8Ih0-262">
          <mxGeometry x="30" y="550" width="100" height="30" as="geometry" />
        </mxCell>
        <mxCell id="C6_vnJyK-bcxYRQT8Ih0-191" value="" style="edgeStyle=orthogonalEdgeStyle;rounded=0;orthogonalLoop=1;jettySize=auto;html=1;" edge="1" parent="C6_vnJyK-bcxYRQT8Ih0-262">
          <mxGeometry relative="1" as="geometry">
            <mxPoint x="79.63000000000011" y="530" as="sourcePoint" />
            <mxPoint x="79.63000000000011" y="550" as="targetPoint" />
          </mxGeometry>
        </mxCell>
        <mxCell id="C6_vnJyK-bcxYRQT8Ih0-192" value="Data Complete" style="rhombus;whiteSpace=wrap;html=1;" vertex="1" parent="C6_vnJyK-bcxYRQT8Ih0-262">
          <mxGeometry x="47.5" y="600" width="65" height="70" as="geometry" />
        </mxCell>
        <mxCell id="C6_vnJyK-bcxYRQT8Ih0-194" value="" style="endArrow=classic;html=1;rounded=0;exitX=0;exitY=0.5;exitDx=0;exitDy=0;entryX=-0.016;entryY=0.672;entryDx=0;entryDy=0;entryPerimeter=0;" edge="1" parent="C6_vnJyK-bcxYRQT8Ih0-262">
          <mxGeometry width="50" height="50" relative="1" as="geometry">
            <mxPoint x="47.5" y="632.5" as="sourcePoint" />
            <mxPoint x="27.5" y="517.5" as="targetPoint" />
            <Array as="points">
              <mxPoint x="1.5" y="632.5" />
              <mxPoint x="1.5" y="517.5" />
            </Array>
          </mxGeometry>
        </mxCell>
        <mxCell id="C6_vnJyK-bcxYRQT8Ih0-195" value="&lt;font style=&quot;font-size: 10px;&quot;&gt;no&lt;/font&gt;" style="text;html=1;align=center;verticalAlign=middle;resizable=0;points=[];autosize=1;strokeColor=none;fillColor=none;" vertex="1" parent="C6_vnJyK-bcxYRQT8Ih0-262">
          <mxGeometry y="580" width="30" height="30" as="geometry" />
        </mxCell>
        <mxCell id="C6_vnJyK-bcxYRQT8Ih0-197" value="Display Data" style="rounded=1;whiteSpace=wrap;html=1;" vertex="1" parent="C6_vnJyK-bcxYRQT8Ih0-262">
          <mxGeometry x="160" y="500" width="100" height="30" as="geometry" />
        </mxCell>
        <mxCell id="C6_vnJyK-bcxYRQT8Ih0-198" value="" style="edgeStyle=orthogonalEdgeStyle;rounded=0;orthogonalLoop=1;jettySize=auto;html=1;" edge="1" parent="C6_vnJyK-bcxYRQT8Ih0-262">
          <mxGeometry relative="1" as="geometry">
            <mxPoint x="209.57000000000016" y="480" as="sourcePoint" />
            <mxPoint x="209.57000000000016" y="500" as="targetPoint" />
          </mxGeometry>
        </mxCell>
        <mxCell id="C6_vnJyK-bcxYRQT8Ih0-199" value="Display Data" style="rounded=1;whiteSpace=wrap;html=1;" vertex="1" parent="C6_vnJyK-bcxYRQT8Ih0-262">
          <mxGeometry x="290" y="500" width="100" height="30" as="geometry" />
        </mxCell>
        <mxCell id="C6_vnJyK-bcxYRQT8Ih0-200" value="" style="edgeStyle=orthogonalEdgeStyle;rounded=0;orthogonalLoop=1;jettySize=auto;html=1;" edge="1" parent="C6_vnJyK-bcxYRQT8Ih0-262">
          <mxGeometry relative="1" as="geometry">
            <mxPoint x="339" y="480" as="sourcePoint" />
            <mxPoint x="339" y="500" as="targetPoint" />
          </mxGeometry>
        </mxCell>
        <mxCell id="C6_vnJyK-bcxYRQT8Ih0-201" value="View Data" style="rounded=1;whiteSpace=wrap;html=1;" vertex="1" parent="C6_vnJyK-bcxYRQT8Ih0-262">
          <mxGeometry x="290" y="550" width="100" height="30" as="geometry" />
        </mxCell>
        <mxCell id="C6_vnJyK-bcxYRQT8Ih0-202" value="" style="edgeStyle=orthogonalEdgeStyle;rounded=0;orthogonalLoop=1;jettySize=auto;html=1;" edge="1" parent="C6_vnJyK-bcxYRQT8Ih0-262">
          <mxGeometry relative="1" as="geometry">
            <mxPoint x="339" y="530" as="sourcePoint" />
            <mxPoint x="339" y="550" as="targetPoint" />
          </mxGeometry>
        </mxCell>
        <mxCell id="C6_vnJyK-bcxYRQT8Ih0-203" value="" style="edgeStyle=orthogonalEdgeStyle;rounded=0;orthogonalLoop=1;jettySize=auto;html=1;" edge="1" parent="C6_vnJyK-bcxYRQT8Ih0-262">
          <mxGeometry relative="1" as="geometry">
            <mxPoint x="209.57000000000016" y="530" as="sourcePoint" />
            <mxPoint x="209.57000000000016" y="550" as="targetPoint" />
          </mxGeometry>
        </mxCell>
        <mxCell id="C6_vnJyK-bcxYRQT8Ih0-204" value="Download Attachment" style="rounded=1;whiteSpace=wrap;html=1;" vertex="1" parent="C6_vnJyK-bcxYRQT8Ih0-262">
          <mxGeometry x="160" y="550" width="100" height="30" as="geometry" />
        </mxCell>
        <mxCell id="C6_vnJyK-bcxYRQT8Ih0-205" value="Save Changes" style="rounded=1;whiteSpace=wrap;html=1;" vertex="1" parent="C6_vnJyK-bcxYRQT8Ih0-262">
          <mxGeometry x="167.5" y="700" width="85" height="30" as="geometry" />
        </mxCell>
        <mxCell id="C6_vnJyK-bcxYRQT8Ih0-206" value="" style="endArrow=classic;html=1;rounded=0;exitX=0.5;exitY=1;exitDx=0;exitDy=0;entryX=0;entryY=0.5;entryDx=0;entryDy=0;" edge="1" parent="C6_vnJyK-bcxYRQT8Ih0-262" target="C6_vnJyK-bcxYRQT8Ih0-205">
          <mxGeometry width="50" height="50" relative="1" as="geometry">
            <mxPoint x="80" y="670" as="sourcePoint" />
            <mxPoint x="98" y="815" as="targetPoint" />
            <Array as="points">
              <mxPoint x="80" y="715" />
            </Array>
          </mxGeometry>
        </mxCell>
        <mxCell id="C6_vnJyK-bcxYRQT8Ih0-207" value="&lt;font style=&quot;font-size: 10px;&quot;&gt;yes&lt;/font&gt;" style="text;html=1;align=center;verticalAlign=middle;resizable=0;points=[];autosize=1;strokeColor=none;fillColor=none;" vertex="1" parent="C6_vnJyK-bcxYRQT8Ih0-262">
          <mxGeometry x="80" y="680" width="40" height="30" as="geometry" />
        </mxCell>
        <mxCell id="C6_vnJyK-bcxYRQT8Ih0-208" value="" style="endArrow=classic;html=1;rounded=0;exitX=0.5;exitY=1;exitDx=0;exitDy=0;entryX=1;entryY=0.5;entryDx=0;entryDy=0;" edge="1" parent="C6_vnJyK-bcxYRQT8Ih0-262" target="C6_vnJyK-bcxYRQT8Ih0-205">
          <mxGeometry width="50" height="50" relative="1" as="geometry">
            <mxPoint x="340" y="580" as="sourcePoint" />
            <mxPoint x="288" y="625" as="targetPoint" />
            <Array as="points">
              <mxPoint x="340" y="715" />
            </Array>
          </mxGeometry>
        </mxCell>
        <mxCell id="C6_vnJyK-bcxYRQT8Ih0-209" value="" style="endArrow=classic;html=1;rounded=0;entryX=0.5;entryY=0;entryDx=0;entryDy=0;exitX=0.5;exitY=1;exitDx=0;exitDy=0;" edge="1" parent="C6_vnJyK-bcxYRQT8Ih0-262" source="C6_vnJyK-bcxYRQT8Ih0-204" target="C6_vnJyK-bcxYRQT8Ih0-205">
          <mxGeometry width="50" height="50" relative="1" as="geometry">
            <mxPoint x="90" y="630" as="sourcePoint" />
            <mxPoint x="140" y="580" as="targetPoint" />
          </mxGeometry>
        </mxCell>
        <mxCell id="C6_vnJyK-bcxYRQT8Ih0-212" value="End" style="ellipse;whiteSpace=wrap;html=1;fillColor=#FF6666;" vertex="1" parent="C6_vnJyK-bcxYRQT8Ih0-262">
          <mxGeometry x="155" y="760" width="110" height="60" as="geometry" />
        </mxCell>
        <mxCell id="C6_vnJyK-bcxYRQT8Ih0-213" value="" style="endArrow=classic;html=1;rounded=0;entryX=0.5;entryY=0;entryDx=0;entryDy=0;" edge="1" parent="C6_vnJyK-bcxYRQT8Ih0-262">
          <mxGeometry width="50" height="50" relative="1" as="geometry">
            <mxPoint x="210" y="730" as="sourcePoint" />
            <mxPoint x="209.76000000000022" y="760" as="targetPoint" />
          </mxGeometry>
        </mxCell>
        <mxCell id="C6_vnJyK-bcxYRQT8Ih0-328" value="" style="group" vertex="1" connectable="0" parent="1">
          <mxGeometry x="3660" y="1170" width="410" height="820" as="geometry" />
        </mxCell>
        <mxCell id="C6_vnJyK-bcxYRQT8Ih0-279" value="" style="endArrow=none;html=1;rounded=0;" edge="1" parent="C6_vnJyK-bcxYRQT8Ih0-328">
          <mxGeometry width="50" height="50" relative="1" as="geometry">
            <mxPoint x="80" y="375" as="sourcePoint" />
            <mxPoint x="340" y="375" as="targetPoint" />
          </mxGeometry>
        </mxCell>
        <mxCell id="C6_vnJyK-bcxYRQT8Ih0-280" value="" style="edgeStyle=orthogonalEdgeStyle;rounded=0;orthogonalLoop=1;jettySize=auto;html=1;" edge="1" parent="C6_vnJyK-bcxYRQT8Ih0-328">
          <mxGeometry relative="1" as="geometry">
            <mxPoint x="209.6300000000001" y="375" as="sourcePoint" />
            <mxPoint x="209.6300000000001" y="395" as="targetPoint" />
          </mxGeometry>
        </mxCell>
        <mxCell id="C6_vnJyK-bcxYRQT8Ih0-281" value="Update Teacher" style="whiteSpace=wrap;html=1;rounded=1;" vertex="1" parent="C6_vnJyK-bcxYRQT8Ih0-328">
          <mxGeometry x="160" y="395" width="100" height="30" as="geometry" />
        </mxCell>
        <mxCell id="C6_vnJyK-bcxYRQT8Ih0-282" value="Delete Teacher" style="whiteSpace=wrap;html=1;rounded=1;" vertex="1" parent="C6_vnJyK-bcxYRQT8Ih0-328">
          <mxGeometry x="290" y="395" width="100" height="30" as="geometry" />
        </mxCell>
        <mxCell id="C6_vnJyK-bcxYRQT8Ih0-283" value="&lt;font style=&quot;font-size: 12px;&quot;&gt;Add Teacher&lt;/font&gt;" style="whiteSpace=wrap;html=1;rounded=1;" vertex="1" parent="C6_vnJyK-bcxYRQT8Ih0-328">
          <mxGeometry x="30" y="395" width="100" height="30" as="geometry" />
        </mxCell>
        <mxCell id="C6_vnJyK-bcxYRQT8Ih0-284" value="" style="edgeStyle=orthogonalEdgeStyle;rounded=0;orthogonalLoop=1;jettySize=auto;html=1;" edge="1" parent="C6_vnJyK-bcxYRQT8Ih0-328">
          <mxGeometry relative="1" as="geometry">
            <mxPoint x="339" y="375" as="sourcePoint" />
            <mxPoint x="339" y="395" as="targetPoint" />
          </mxGeometry>
        </mxCell>
        <mxCell id="C6_vnJyK-bcxYRQT8Ih0-285" value="" style="edgeStyle=orthogonalEdgeStyle;rounded=0;orthogonalLoop=1;jettySize=auto;html=1;" edge="1" parent="C6_vnJyK-bcxYRQT8Ih0-328">
          <mxGeometry relative="1" as="geometry">
            <mxPoint x="79.63000000000011" y="375" as="sourcePoint" />
            <mxPoint x="79.63000000000011" y="395" as="targetPoint" />
          </mxGeometry>
        </mxCell>
        <mxCell id="C6_vnJyK-bcxYRQT8Ih0-286" value="" style="edgeStyle=orthogonalEdgeStyle;rounded=0;orthogonalLoop=1;jettySize=auto;html=1;fontStyle=4" edge="1" parent="C6_vnJyK-bcxYRQT8Ih0-328" source="C6_vnJyK-bcxYRQT8Ih0-287" target="C6_vnJyK-bcxYRQT8Ih0-291">
          <mxGeometry relative="1" as="geometry" />
        </mxCell>
        <mxCell id="C6_vnJyK-bcxYRQT8Ih0-287" value="Display Form" style="rounded=1;whiteSpace=wrap;html=1;" vertex="1" parent="C6_vnJyK-bcxYRQT8Ih0-328">
          <mxGeometry x="30" y="445" width="100" height="30" as="geometry" />
        </mxCell>
        <mxCell id="C6_vnJyK-bcxYRQT8Ih0-288" value="" style="edgeStyle=orthogonalEdgeStyle;rounded=0;orthogonalLoop=1;jettySize=auto;html=1;" edge="1" parent="C6_vnJyK-bcxYRQT8Ih0-328">
          <mxGeometry relative="1" as="geometry">
            <mxPoint x="79.63000000000011" y="425" as="sourcePoint" />
            <mxPoint x="79.63000000000011" y="445" as="targetPoint" />
          </mxGeometry>
        </mxCell>
        <mxCell id="C6_vnJyK-bcxYRQT8Ih0-289" value="Input Data" style="rounded=1;whiteSpace=wrap;html=1;" vertex="1" parent="C6_vnJyK-bcxYRQT8Ih0-328">
          <mxGeometry x="30" y="495" width="100" height="30" as="geometry" />
        </mxCell>
        <mxCell id="C6_vnJyK-bcxYRQT8Ih0-290" value="" style="edgeStyle=orthogonalEdgeStyle;rounded=0;orthogonalLoop=1;jettySize=auto;html=1;" edge="1" parent="C6_vnJyK-bcxYRQT8Ih0-328">
          <mxGeometry relative="1" as="geometry">
            <mxPoint x="79.63000000000011" y="475" as="sourcePoint" />
            <mxPoint x="79.63000000000011" y="495" as="targetPoint" />
          </mxGeometry>
        </mxCell>
        <mxCell id="C6_vnJyK-bcxYRQT8Ih0-291" value="Data Complete" style="rhombus;whiteSpace=wrap;html=1;" vertex="1" parent="C6_vnJyK-bcxYRQT8Ih0-328">
          <mxGeometry x="47.5" y="545" width="65" height="70" as="geometry" />
        </mxCell>
        <mxCell id="C6_vnJyK-bcxYRQT8Ih0-292" value="" style="endArrow=classic;html=1;rounded=0;exitX=0;exitY=0.5;exitDx=0;exitDy=0;entryX=-0.016;entryY=0.672;entryDx=0;entryDy=0;entryPerimeter=0;" edge="1" parent="C6_vnJyK-bcxYRQT8Ih0-328">
          <mxGeometry width="50" height="50" relative="1" as="geometry">
            <mxPoint x="47.5" y="577.5" as="sourcePoint" />
            <mxPoint x="27.5" y="462.5" as="targetPoint" />
            <Array as="points">
              <mxPoint x="1.5" y="577.5" />
              <mxPoint x="1.5" y="462.5" />
            </Array>
          </mxGeometry>
        </mxCell>
        <mxCell id="C6_vnJyK-bcxYRQT8Ih0-293" value="&lt;font style=&quot;font-size: 10px;&quot;&gt;no&lt;/font&gt;" style="text;html=1;align=center;verticalAlign=middle;resizable=0;points=[];autosize=1;strokeColor=none;fillColor=none;" vertex="1" parent="C6_vnJyK-bcxYRQT8Ih0-328">
          <mxGeometry y="525" width="30" height="30" as="geometry" />
        </mxCell>
        <mxCell id="C6_vnJyK-bcxYRQT8Ih0-294" value="Select Teacher" style="rounded=1;whiteSpace=wrap;html=1;" vertex="1" parent="C6_vnJyK-bcxYRQT8Ih0-328">
          <mxGeometry x="160" y="445" width="100" height="30" as="geometry" />
        </mxCell>
        <mxCell id="C6_vnJyK-bcxYRQT8Ih0-295" value="" style="edgeStyle=orthogonalEdgeStyle;rounded=0;orthogonalLoop=1;jettySize=auto;html=1;" edge="1" parent="C6_vnJyK-bcxYRQT8Ih0-328">
          <mxGeometry relative="1" as="geometry">
            <mxPoint x="209.57000000000016" y="425" as="sourcePoint" />
            <mxPoint x="209.57000000000016" y="445" as="targetPoint" />
          </mxGeometry>
        </mxCell>
        <mxCell id="C6_vnJyK-bcxYRQT8Ih0-296" value="Select Teacher" style="rounded=1;whiteSpace=wrap;html=1;" vertex="1" parent="C6_vnJyK-bcxYRQT8Ih0-328">
          <mxGeometry x="290" y="445" width="100" height="30" as="geometry" />
        </mxCell>
        <mxCell id="C6_vnJyK-bcxYRQT8Ih0-297" value="" style="edgeStyle=orthogonalEdgeStyle;rounded=0;orthogonalLoop=1;jettySize=auto;html=1;" edge="1" parent="C6_vnJyK-bcxYRQT8Ih0-328">
          <mxGeometry relative="1" as="geometry">
            <mxPoint x="339" y="425" as="sourcePoint" />
            <mxPoint x="339" y="445" as="targetPoint" />
          </mxGeometry>
        </mxCell>
        <mxCell id="C6_vnJyK-bcxYRQT8Ih0-299" value="" style="edgeStyle=orthogonalEdgeStyle;rounded=0;orthogonalLoop=1;jettySize=auto;html=1;" edge="1" parent="C6_vnJyK-bcxYRQT8Ih0-328">
          <mxGeometry relative="1" as="geometry">
            <mxPoint x="339" y="475" as="sourcePoint" />
            <mxPoint x="339" y="495" as="targetPoint" />
          </mxGeometry>
        </mxCell>
        <mxCell id="C6_vnJyK-bcxYRQT8Ih0-300" value="" style="edgeStyle=orthogonalEdgeStyle;rounded=0;orthogonalLoop=1;jettySize=auto;html=1;" edge="1" parent="C6_vnJyK-bcxYRQT8Ih0-328">
          <mxGeometry relative="1" as="geometry">
            <mxPoint x="209.57000000000016" y="475" as="sourcePoint" />
            <mxPoint x="209.57000000000016" y="495" as="targetPoint" />
          </mxGeometry>
        </mxCell>
        <mxCell id="C6_vnJyK-bcxYRQT8Ih0-301" value="Display Form" style="rounded=1;whiteSpace=wrap;html=1;" vertex="1" parent="C6_vnJyK-bcxYRQT8Ih0-328">
          <mxGeometry x="160" y="495" width="100" height="30" as="geometry" />
        </mxCell>
        <mxCell id="C6_vnJyK-bcxYRQT8Ih0-325" value="" style="edgeStyle=orthogonalEdgeStyle;rounded=0;orthogonalLoop=1;jettySize=auto;html=1;" edge="1" parent="C6_vnJyK-bcxYRQT8Ih0-328" source="C6_vnJyK-bcxYRQT8Ih0-302" target="C6_vnJyK-bcxYRQT8Ih0-307">
          <mxGeometry relative="1" as="geometry" />
        </mxCell>
        <mxCell id="C6_vnJyK-bcxYRQT8Ih0-302" value="Save Changes" style="rounded=1;whiteSpace=wrap;html=1;" vertex="1" parent="C6_vnJyK-bcxYRQT8Ih0-328">
          <mxGeometry x="175" y="700" width="85" height="30" as="geometry" />
        </mxCell>
        <mxCell id="C6_vnJyK-bcxYRQT8Ih0-303" value="" style="endArrow=classic;html=1;rounded=0;exitX=0.5;exitY=1;exitDx=0;exitDy=0;entryX=0;entryY=0.5;entryDx=0;entryDy=0;fontStyle=4" edge="1" parent="C6_vnJyK-bcxYRQT8Ih0-328" target="C6_vnJyK-bcxYRQT8Ih0-302" source="C6_vnJyK-bcxYRQT8Ih0-291">
          <mxGeometry width="50" height="50" relative="1" as="geometry">
            <mxPoint x="72.5" y="615" as="sourcePoint" />
            <mxPoint x="160" y="660" as="targetPoint" />
            <Array as="points">
              <mxPoint x="80" y="715" />
            </Array>
          </mxGeometry>
        </mxCell>
        <mxCell id="C6_vnJyK-bcxYRQT8Ih0-304" value="&lt;font style=&quot;font-size: 10px;&quot;&gt;yes&lt;/font&gt;" style="text;html=1;align=center;verticalAlign=middle;resizable=0;points=[];autosize=1;strokeColor=none;fillColor=none;" vertex="1" parent="C6_vnJyK-bcxYRQT8Ih0-328">
          <mxGeometry x="80" y="680" width="40" height="30" as="geometry" />
        </mxCell>
        <mxCell id="C6_vnJyK-bcxYRQT8Ih0-305" value="" style="endArrow=classic;html=1;rounded=0;entryX=1;entryY=0.5;entryDx=0;entryDy=0;fontStyle=4;exitX=0.5;exitY=1;exitDx=0;exitDy=0;" edge="1" parent="C6_vnJyK-bcxYRQT8Ih0-328" target="C6_vnJyK-bcxYRQT8Ih0-302" source="C6_vnJyK-bcxYRQT8Ih0-314">
          <mxGeometry width="50" height="50" relative="1" as="geometry">
            <mxPoint x="337.5" y="565" as="sourcePoint" />
            <mxPoint x="250" y="625" as="targetPoint" />
            <Array as="points">
              <mxPoint x="340" y="715" />
            </Array>
          </mxGeometry>
        </mxCell>
        <mxCell id="C6_vnJyK-bcxYRQT8Ih0-307" value="End" style="ellipse;whiteSpace=wrap;html=1;fillColor=#FF6666;" vertex="1" parent="C6_vnJyK-bcxYRQT8Ih0-328">
          <mxGeometry x="162.5" y="760" width="110" height="60" as="geometry" />
        </mxCell>
        <mxCell id="C6_vnJyK-bcxYRQT8Ih0-308" value="" style="endArrow=classic;html=1;rounded=0;entryX=0.5;entryY=0;entryDx=0;entryDy=0;" edge="1" parent="C6_vnJyK-bcxYRQT8Ih0-328">
          <mxGeometry width="50" height="50" relative="1" as="geometry">
            <mxPoint x="209.87999999999965" y="670" as="sourcePoint" />
            <mxPoint x="209.63999999999987" y="700" as="targetPoint" />
          </mxGeometry>
        </mxCell>
        <mxCell id="C6_vnJyK-bcxYRQT8Ih0-312" value="" style="group" vertex="1" connectable="0" parent="C6_vnJyK-bcxYRQT8Ih0-328">
          <mxGeometry x="100" width="310" height="380" as="geometry" />
        </mxCell>
        <mxCell id="C6_vnJyK-bcxYRQT8Ih0-264" value="Start" style="ellipse;whiteSpace=wrap;html=1;fillColor=#FF6666;" vertex="1" parent="C6_vnJyK-bcxYRQT8Ih0-312">
          <mxGeometry x="30" width="110" height="60" as="geometry" />
        </mxCell>
        <mxCell id="C6_vnJyK-bcxYRQT8Ih0-265" value="" style="endArrow=classic;html=1;rounded=0;exitX=1;exitY=0.5;exitDx=0;exitDy=0;" edge="1" parent="C6_vnJyK-bcxYRQT8Ih0-312">
          <mxGeometry width="50" height="50" relative="1" as="geometry">
            <mxPoint x="140" y="40" as="sourcePoint" />
            <mxPoint x="260" y="90" as="targetPoint" />
            <Array as="points">
              <mxPoint x="260" y="40" />
            </Array>
          </mxGeometry>
        </mxCell>
        <mxCell id="C6_vnJyK-bcxYRQT8Ih0-266" value="Login" style="rounded=1;whiteSpace=wrap;html=1;" vertex="1" parent="C6_vnJyK-bcxYRQT8Ih0-312">
          <mxGeometry x="210" y="90" width="100" height="30" as="geometry" />
        </mxCell>
        <mxCell id="C6_vnJyK-bcxYRQT8Ih0-267" value="" style="endArrow=classic;html=1;rounded=0;exitX=0;exitY=0.5;exitDx=0;exitDy=0;entryX=0.5;entryY=0;entryDx=0;entryDy=0;" edge="1" parent="C6_vnJyK-bcxYRQT8Ih0-312">
          <mxGeometry width="50" height="50" relative="1" as="geometry">
            <mxPoint x="210" y="105" as="sourcePoint" />
            <mxPoint x="100" y="140" as="targetPoint" />
            <Array as="points">
              <mxPoint x="100" y="105" />
            </Array>
          </mxGeometry>
        </mxCell>
        <mxCell id="C6_vnJyK-bcxYRQT8Ih0-268" value="" style="edgeStyle=orthogonalEdgeStyle;rounded=0;orthogonalLoop=1;jettySize=auto;html=1;fontStyle=4" edge="1" parent="C6_vnJyK-bcxYRQT8Ih0-312" source="C6_vnJyK-bcxYRQT8Ih0-269" target="C6_vnJyK-bcxYRQT8Ih0-271">
          <mxGeometry relative="1" as="geometry" />
        </mxCell>
        <mxCell id="C6_vnJyK-bcxYRQT8Ih0-269" value="Dashboard" style="rounded=1;whiteSpace=wrap;html=1;" vertex="1" parent="C6_vnJyK-bcxYRQT8Ih0-312">
          <mxGeometry x="40" y="140" width="120" height="52" as="geometry" />
        </mxCell>
        <mxCell id="C6_vnJyK-bcxYRQT8Ih0-270" value="" style="endArrow=classic;html=1;rounded=0;exitX=0;exitY=0.5;exitDx=0;exitDy=0;entryX=0;entryY=0.6;entryDx=0;entryDy=0;entryPerimeter=0;" edge="1" parent="C6_vnJyK-bcxYRQT8Ih0-312">
          <mxGeometry width="50" height="50" relative="1" as="geometry">
            <mxPoint x="65" y="248" as="sourcePoint" />
            <mxPoint x="40" y="163" as="targetPoint" />
            <Array as="points">
              <mxPoint y="248" />
              <mxPoint y="163" />
            </Array>
          </mxGeometry>
        </mxCell>
        <mxCell id="C6_vnJyK-bcxYRQT8Ih0-271" value="Access User" style="rhombus;whiteSpace=wrap;html=1;" vertex="1" parent="C6_vnJyK-bcxYRQT8Ih0-312">
          <mxGeometry x="65" y="210" width="70" height="70" as="geometry" />
        </mxCell>
        <mxCell id="C6_vnJyK-bcxYRQT8Ih0-272" value="User" style="rounded=1;whiteSpace=wrap;html=1;" vertex="1" parent="C6_vnJyK-bcxYRQT8Ih0-312">
          <mxGeometry x="190" y="232" width="80" height="26" as="geometry" />
        </mxCell>
        <mxCell id="C6_vnJyK-bcxYRQT8Ih0-273" value="" style="endArrow=classic;html=1;rounded=0;entryX=0;entryY=0.5;entryDx=0;entryDy=0;" edge="1" parent="C6_vnJyK-bcxYRQT8Ih0-312">
          <mxGeometry width="50" height="50" relative="1" as="geometry">
            <mxPoint x="135" y="244.70000000000005" as="sourcePoint" />
            <mxPoint x="190" y="244.82000000000005" as="targetPoint" />
            <Array as="points">
              <mxPoint x="170" y="244.99000000000007" />
            </Array>
          </mxGeometry>
        </mxCell>
        <mxCell id="C6_vnJyK-bcxYRQT8Ih0-274" value="" style="endArrow=classic;html=1;rounded=0;exitX=0.5;exitY=1;exitDx=0;exitDy=0;" edge="1" parent="C6_vnJyK-bcxYRQT8Ih0-312">
          <mxGeometry width="50" height="50" relative="1" as="geometry">
            <mxPoint x="235" y="258" as="sourcePoint" />
            <mxPoint x="110" y="330" as="targetPoint" />
            <Array as="points">
              <mxPoint x="235" y="310" />
              <mxPoint x="110" y="310" />
            </Array>
          </mxGeometry>
        </mxCell>
        <mxCell id="C6_vnJyK-bcxYRQT8Ih0-275" value="" style="edgeStyle=orthogonalEdgeStyle;rounded=0;orthogonalLoop=1;jettySize=auto;html=1;fontStyle=4" edge="1" parent="C6_vnJyK-bcxYRQT8Ih0-312" source="C6_vnJyK-bcxYRQT8Ih0-276">
          <mxGeometry relative="1" as="geometry">
            <mxPoint x="110" y="380" as="targetPoint" />
          </mxGeometry>
        </mxCell>
        <mxCell id="C6_vnJyK-bcxYRQT8Ih0-276" value="Manage Teacher" style="rounded=1;whiteSpace=wrap;html=1;" vertex="1" parent="C6_vnJyK-bcxYRQT8Ih0-312">
          <mxGeometry x="60" y="330" width="100" height="30" as="geometry" />
        </mxCell>
        <mxCell id="C6_vnJyK-bcxYRQT8Ih0-313" value="Data Complete" style="rhombus;whiteSpace=wrap;html=1;" vertex="1" parent="C6_vnJyK-bcxYRQT8Ih0-328">
          <mxGeometry x="177.5" y="600" width="65" height="70" as="geometry" />
        </mxCell>
        <mxCell id="C6_vnJyK-bcxYRQT8Ih0-314" value="delete teacher" style="rhombus;whiteSpace=wrap;html=1;" vertex="1" parent="C6_vnJyK-bcxYRQT8Ih0-328">
          <mxGeometry x="307.5" y="495" width="65" height="70" as="geometry" />
        </mxCell>
        <mxCell id="C6_vnJyK-bcxYRQT8Ih0-316" value="" style="edgeStyle=orthogonalEdgeStyle;rounded=0;orthogonalLoop=1;jettySize=auto;html=1;" edge="1" parent="C6_vnJyK-bcxYRQT8Ih0-328">
          <mxGeometry relative="1" as="geometry">
            <mxPoint x="209.74000000000024" y="525" as="sourcePoint" />
            <mxPoint x="209.74000000000024" y="545" as="targetPoint" />
          </mxGeometry>
        </mxCell>
        <mxCell id="C6_vnJyK-bcxYRQT8Ih0-317" value="Edit Data Details" style="rounded=1;whiteSpace=wrap;html=1;" vertex="1" parent="C6_vnJyK-bcxYRQT8Ih0-328">
          <mxGeometry x="160" y="545" width="100" height="30" as="geometry" />
        </mxCell>
        <mxCell id="C6_vnJyK-bcxYRQT8Ih0-318" value="" style="edgeStyle=orthogonalEdgeStyle;rounded=0;orthogonalLoop=1;jettySize=auto;html=1;entryX=0.479;entryY=0.033;entryDx=0;entryDy=0;entryPerimeter=0;" edge="1" parent="C6_vnJyK-bcxYRQT8Ih0-328" target="C6_vnJyK-bcxYRQT8Ih0-313">
          <mxGeometry relative="1" as="geometry">
            <mxPoint x="209.74000000000024" y="575" as="sourcePoint" />
            <mxPoint x="209.74000000000024" y="595" as="targetPoint" />
          </mxGeometry>
        </mxCell>
        <mxCell id="C6_vnJyK-bcxYRQT8Ih0-320" value="" style="endArrow=classic;html=1;rounded=0;exitX=0;exitY=0.5;exitDx=0;exitDy=0;" edge="1" parent="C6_vnJyK-bcxYRQT8Ih0-328">
          <mxGeometry width="50" height="50" relative="1" as="geometry">
            <mxPoint x="177.5" y="635" as="sourcePoint" />
            <mxPoint x="159" y="510" as="targetPoint" />
            <Array as="points">
              <mxPoint x="140" y="635" />
              <mxPoint x="140" y="510" />
            </Array>
          </mxGeometry>
        </mxCell>
        <mxCell id="C6_vnJyK-bcxYRQT8Ih0-321" value="&lt;font style=&quot;font-size: 10px;&quot;&gt;no&lt;/font&gt;" style="text;html=1;align=center;verticalAlign=middle;resizable=0;points=[];autosize=1;strokeColor=none;fillColor=none;" vertex="1" parent="C6_vnJyK-bcxYRQT8Ih0-328">
          <mxGeometry x="140" y="600" width="30" height="30" as="geometry" />
        </mxCell>
        <mxCell id="C6_vnJyK-bcxYRQT8Ih0-322" value="" style="endArrow=classic;html=1;rounded=0;exitX=0;exitY=0.5;exitDx=0;exitDy=0;entryX=0;entryY=0.5;entryDx=0;entryDy=0;" edge="1" parent="C6_vnJyK-bcxYRQT8Ih0-328" target="C6_vnJyK-bcxYRQT8Ih0-282">
          <mxGeometry width="50" height="50" relative="1" as="geometry">
            <mxPoint x="307.5" y="529.5" as="sourcePoint" />
            <mxPoint x="287.5" y="414.5" as="targetPoint" />
            <Array as="points">
              <mxPoint x="270" y="530" />
              <mxPoint x="270" y="410" />
            </Array>
          </mxGeometry>
        </mxCell>
        <mxCell id="C6_vnJyK-bcxYRQT8Ih0-323" value="&lt;font style=&quot;font-size: 10px;&quot;&gt;no&lt;/font&gt;" style="text;html=1;align=center;verticalAlign=middle;resizable=0;points=[];autosize=1;strokeColor=none;fillColor=none;" vertex="1" parent="C6_vnJyK-bcxYRQT8Ih0-328">
          <mxGeometry x="270" y="490" width="30" height="30" as="geometry" />
        </mxCell>
        <mxCell id="C6_vnJyK-bcxYRQT8Ih0-326" value="&lt;font style=&quot;font-size: 10px;&quot;&gt;yes&lt;/font&gt;" style="text;html=1;align=center;verticalAlign=middle;resizable=0;points=[];autosize=1;strokeColor=none;fillColor=none;" vertex="1" parent="C6_vnJyK-bcxYRQT8Ih0-328">
          <mxGeometry x="210" y="670" width="40" height="30" as="geometry" />
        </mxCell>
        <mxCell id="C6_vnJyK-bcxYRQT8Ih0-327" value="&lt;font style=&quot;font-size: 10px;&quot;&gt;yes&lt;/font&gt;" style="text;html=1;align=center;verticalAlign=middle;resizable=0;points=[];autosize=1;strokeColor=none;fillColor=none;" vertex="1" parent="C6_vnJyK-bcxYRQT8Ih0-328">
          <mxGeometry x="300" y="658" width="40" height="30" as="geometry" />
        </mxCell>
        <mxCell id="C6_vnJyK-bcxYRQT8Ih0-329" value="" style="group" vertex="1" connectable="0" parent="1">
          <mxGeometry x="4250" y="140" width="410" height="820" as="geometry" />
        </mxCell>
        <mxCell id="C6_vnJyK-bcxYRQT8Ih0-330" value="" style="endArrow=none;html=1;rounded=0;" edge="1" parent="C6_vnJyK-bcxYRQT8Ih0-329">
          <mxGeometry width="50" height="50" relative="1" as="geometry">
            <mxPoint x="80" y="375" as="sourcePoint" />
            <mxPoint x="340" y="375" as="targetPoint" />
          </mxGeometry>
        </mxCell>
        <mxCell id="C6_vnJyK-bcxYRQT8Ih0-331" value="" style="edgeStyle=orthogonalEdgeStyle;rounded=0;orthogonalLoop=1;jettySize=auto;html=1;" edge="1" parent="C6_vnJyK-bcxYRQT8Ih0-329">
          <mxGeometry relative="1" as="geometry">
            <mxPoint x="209.6300000000001" y="375" as="sourcePoint" />
            <mxPoint x="209.6300000000001" y="395" as="targetPoint" />
          </mxGeometry>
        </mxCell>
        <mxCell id="C6_vnJyK-bcxYRQT8Ih0-332" value="Update Subject" style="whiteSpace=wrap;html=1;rounded=1;" vertex="1" parent="C6_vnJyK-bcxYRQT8Ih0-329">
          <mxGeometry x="160" y="395" width="100" height="30" as="geometry" />
        </mxCell>
        <mxCell id="C6_vnJyK-bcxYRQT8Ih0-333" value="Delete Subject" style="whiteSpace=wrap;html=1;rounded=1;" vertex="1" parent="C6_vnJyK-bcxYRQT8Ih0-329">
          <mxGeometry x="290" y="395" width="100" height="30" as="geometry" />
        </mxCell>
        <mxCell id="C6_vnJyK-bcxYRQT8Ih0-334" value="&lt;font style=&quot;font-size: 12px;&quot;&gt;Add Subject&lt;/font&gt;" style="whiteSpace=wrap;html=1;rounded=1;" vertex="1" parent="C6_vnJyK-bcxYRQT8Ih0-329">
          <mxGeometry x="30" y="395" width="100" height="30" as="geometry" />
        </mxCell>
        <mxCell id="C6_vnJyK-bcxYRQT8Ih0-335" value="" style="edgeStyle=orthogonalEdgeStyle;rounded=0;orthogonalLoop=1;jettySize=auto;html=1;" edge="1" parent="C6_vnJyK-bcxYRQT8Ih0-329">
          <mxGeometry relative="1" as="geometry">
            <mxPoint x="339" y="375" as="sourcePoint" />
            <mxPoint x="339" y="395" as="targetPoint" />
          </mxGeometry>
        </mxCell>
        <mxCell id="C6_vnJyK-bcxYRQT8Ih0-336" value="" style="edgeStyle=orthogonalEdgeStyle;rounded=0;orthogonalLoop=1;jettySize=auto;html=1;" edge="1" parent="C6_vnJyK-bcxYRQT8Ih0-329">
          <mxGeometry relative="1" as="geometry">
            <mxPoint x="79.63000000000011" y="375" as="sourcePoint" />
            <mxPoint x="79.63000000000011" y="395" as="targetPoint" />
          </mxGeometry>
        </mxCell>
        <mxCell id="C6_vnJyK-bcxYRQT8Ih0-337" value="" style="edgeStyle=orthogonalEdgeStyle;rounded=0;orthogonalLoop=1;jettySize=auto;html=1;fontStyle=4" edge="1" parent="C6_vnJyK-bcxYRQT8Ih0-329" source="C6_vnJyK-bcxYRQT8Ih0-338" target="C6_vnJyK-bcxYRQT8Ih0-342">
          <mxGeometry relative="1" as="geometry" />
        </mxCell>
        <mxCell id="C6_vnJyK-bcxYRQT8Ih0-338" value="Display Form" style="rounded=1;whiteSpace=wrap;html=1;" vertex="1" parent="C6_vnJyK-bcxYRQT8Ih0-329">
          <mxGeometry x="30" y="445" width="100" height="30" as="geometry" />
        </mxCell>
        <mxCell id="C6_vnJyK-bcxYRQT8Ih0-339" value="" style="edgeStyle=orthogonalEdgeStyle;rounded=0;orthogonalLoop=1;jettySize=auto;html=1;" edge="1" parent="C6_vnJyK-bcxYRQT8Ih0-329">
          <mxGeometry relative="1" as="geometry">
            <mxPoint x="79.63000000000011" y="425" as="sourcePoint" />
            <mxPoint x="79.63000000000011" y="445" as="targetPoint" />
          </mxGeometry>
        </mxCell>
        <mxCell id="C6_vnJyK-bcxYRQT8Ih0-340" value="Input Data" style="rounded=1;whiteSpace=wrap;html=1;" vertex="1" parent="C6_vnJyK-bcxYRQT8Ih0-329">
          <mxGeometry x="30" y="495" width="100" height="30" as="geometry" />
        </mxCell>
        <mxCell id="C6_vnJyK-bcxYRQT8Ih0-341" value="" style="edgeStyle=orthogonalEdgeStyle;rounded=0;orthogonalLoop=1;jettySize=auto;html=1;" edge="1" parent="C6_vnJyK-bcxYRQT8Ih0-329">
          <mxGeometry relative="1" as="geometry">
            <mxPoint x="79.63000000000011" y="475" as="sourcePoint" />
            <mxPoint x="79.63000000000011" y="495" as="targetPoint" />
          </mxGeometry>
        </mxCell>
        <mxCell id="C6_vnJyK-bcxYRQT8Ih0-342" value="Data Complete" style="rhombus;whiteSpace=wrap;html=1;" vertex="1" parent="C6_vnJyK-bcxYRQT8Ih0-329">
          <mxGeometry x="47.5" y="545" width="65" height="70" as="geometry" />
        </mxCell>
        <mxCell id="C6_vnJyK-bcxYRQT8Ih0-343" value="" style="endArrow=classic;html=1;rounded=0;exitX=0;exitY=0.5;exitDx=0;exitDy=0;entryX=-0.016;entryY=0.672;entryDx=0;entryDy=0;entryPerimeter=0;" edge="1" parent="C6_vnJyK-bcxYRQT8Ih0-329">
          <mxGeometry width="50" height="50" relative="1" as="geometry">
            <mxPoint x="47.5" y="577.5" as="sourcePoint" />
            <mxPoint x="27.5" y="462.5" as="targetPoint" />
            <Array as="points">
              <mxPoint x="1.5" y="577.5" />
              <mxPoint x="1.5" y="462.5" />
            </Array>
          </mxGeometry>
        </mxCell>
        <mxCell id="C6_vnJyK-bcxYRQT8Ih0-344" value="&lt;font style=&quot;font-size: 10px;&quot;&gt;no&lt;/font&gt;" style="text;html=1;align=center;verticalAlign=middle;resizable=0;points=[];autosize=1;strokeColor=none;fillColor=none;" vertex="1" parent="C6_vnJyK-bcxYRQT8Ih0-329">
          <mxGeometry y="525" width="30" height="30" as="geometry" />
        </mxCell>
        <mxCell id="C6_vnJyK-bcxYRQT8Ih0-345" value="Select Subject" style="rounded=1;whiteSpace=wrap;html=1;" vertex="1" parent="C6_vnJyK-bcxYRQT8Ih0-329">
          <mxGeometry x="160" y="445" width="100" height="30" as="geometry" />
        </mxCell>
        <mxCell id="C6_vnJyK-bcxYRQT8Ih0-346" value="" style="edgeStyle=orthogonalEdgeStyle;rounded=0;orthogonalLoop=1;jettySize=auto;html=1;" edge="1" parent="C6_vnJyK-bcxYRQT8Ih0-329">
          <mxGeometry relative="1" as="geometry">
            <mxPoint x="209.57000000000016" y="425" as="sourcePoint" />
            <mxPoint x="209.57000000000016" y="445" as="targetPoint" />
          </mxGeometry>
        </mxCell>
        <mxCell id="C6_vnJyK-bcxYRQT8Ih0-347" value="Select Subject" style="rounded=1;whiteSpace=wrap;html=1;" vertex="1" parent="C6_vnJyK-bcxYRQT8Ih0-329">
          <mxGeometry x="290" y="445" width="100" height="30" as="geometry" />
        </mxCell>
        <mxCell id="C6_vnJyK-bcxYRQT8Ih0-348" value="" style="edgeStyle=orthogonalEdgeStyle;rounded=0;orthogonalLoop=1;jettySize=auto;html=1;" edge="1" parent="C6_vnJyK-bcxYRQT8Ih0-329">
          <mxGeometry relative="1" as="geometry">
            <mxPoint x="339" y="425" as="sourcePoint" />
            <mxPoint x="339" y="445" as="targetPoint" />
          </mxGeometry>
        </mxCell>
        <mxCell id="C6_vnJyK-bcxYRQT8Ih0-349" value="" style="edgeStyle=orthogonalEdgeStyle;rounded=0;orthogonalLoop=1;jettySize=auto;html=1;" edge="1" parent="C6_vnJyK-bcxYRQT8Ih0-329">
          <mxGeometry relative="1" as="geometry">
            <mxPoint x="339" y="475" as="sourcePoint" />
            <mxPoint x="339" y="495" as="targetPoint" />
          </mxGeometry>
        </mxCell>
        <mxCell id="C6_vnJyK-bcxYRQT8Ih0-350" value="" style="edgeStyle=orthogonalEdgeStyle;rounded=0;orthogonalLoop=1;jettySize=auto;html=1;" edge="1" parent="C6_vnJyK-bcxYRQT8Ih0-329">
          <mxGeometry relative="1" as="geometry">
            <mxPoint x="209.57000000000016" y="475" as="sourcePoint" />
            <mxPoint x="209.57000000000016" y="495" as="targetPoint" />
          </mxGeometry>
        </mxCell>
        <mxCell id="C6_vnJyK-bcxYRQT8Ih0-351" value="Display Form" style="rounded=1;whiteSpace=wrap;html=1;" vertex="1" parent="C6_vnJyK-bcxYRQT8Ih0-329">
          <mxGeometry x="160" y="495" width="100" height="30" as="geometry" />
        </mxCell>
        <mxCell id="C6_vnJyK-bcxYRQT8Ih0-352" value="" style="edgeStyle=orthogonalEdgeStyle;rounded=0;orthogonalLoop=1;jettySize=auto;html=1;" edge="1" parent="C6_vnJyK-bcxYRQT8Ih0-329" source="C6_vnJyK-bcxYRQT8Ih0-353" target="C6_vnJyK-bcxYRQT8Ih0-357">
          <mxGeometry relative="1" as="geometry" />
        </mxCell>
        <mxCell id="C6_vnJyK-bcxYRQT8Ih0-353" value="Save Changes" style="rounded=1;whiteSpace=wrap;html=1;" vertex="1" parent="C6_vnJyK-bcxYRQT8Ih0-329">
          <mxGeometry x="175" y="700" width="85" height="30" as="geometry" />
        </mxCell>
        <mxCell id="C6_vnJyK-bcxYRQT8Ih0-354" value="" style="endArrow=classic;html=1;rounded=0;exitX=0.5;exitY=1;exitDx=0;exitDy=0;entryX=0;entryY=0.5;entryDx=0;entryDy=0;fontStyle=4" edge="1" parent="C6_vnJyK-bcxYRQT8Ih0-329" source="C6_vnJyK-bcxYRQT8Ih0-342" target="C6_vnJyK-bcxYRQT8Ih0-353">
          <mxGeometry width="50" height="50" relative="1" as="geometry">
            <mxPoint x="72.5" y="615" as="sourcePoint" />
            <mxPoint x="160" y="660" as="targetPoint" />
            <Array as="points">
              <mxPoint x="80" y="715" />
            </Array>
          </mxGeometry>
        </mxCell>
        <mxCell id="C6_vnJyK-bcxYRQT8Ih0-355" value="&lt;font style=&quot;font-size: 10px;&quot;&gt;yes&lt;/font&gt;" style="text;html=1;align=center;verticalAlign=middle;resizable=0;points=[];autosize=1;strokeColor=none;fillColor=none;" vertex="1" parent="C6_vnJyK-bcxYRQT8Ih0-329">
          <mxGeometry x="80" y="680" width="40" height="30" as="geometry" />
        </mxCell>
        <mxCell id="C6_vnJyK-bcxYRQT8Ih0-356" value="" style="endArrow=classic;html=1;rounded=0;entryX=1;entryY=0.5;entryDx=0;entryDy=0;fontStyle=4;exitX=0.5;exitY=1;exitDx=0;exitDy=0;" edge="1" parent="C6_vnJyK-bcxYRQT8Ih0-329" source="C6_vnJyK-bcxYRQT8Ih0-374" target="C6_vnJyK-bcxYRQT8Ih0-353">
          <mxGeometry width="50" height="50" relative="1" as="geometry">
            <mxPoint x="337.5" y="565" as="sourcePoint" />
            <mxPoint x="250" y="625" as="targetPoint" />
            <Array as="points">
              <mxPoint x="340" y="715" />
            </Array>
          </mxGeometry>
        </mxCell>
        <mxCell id="C6_vnJyK-bcxYRQT8Ih0-357" value="End" style="ellipse;whiteSpace=wrap;html=1;fillColor=#FF6666;" vertex="1" parent="C6_vnJyK-bcxYRQT8Ih0-329">
          <mxGeometry x="162.5" y="760" width="110" height="60" as="geometry" />
        </mxCell>
        <mxCell id="C6_vnJyK-bcxYRQT8Ih0-358" value="" style="endArrow=classic;html=1;rounded=0;entryX=0.5;entryY=0;entryDx=0;entryDy=0;" edge="1" parent="C6_vnJyK-bcxYRQT8Ih0-329">
          <mxGeometry width="50" height="50" relative="1" as="geometry">
            <mxPoint x="209.87999999999965" y="670" as="sourcePoint" />
            <mxPoint x="209.63999999999987" y="700" as="targetPoint" />
          </mxGeometry>
        </mxCell>
        <mxCell id="C6_vnJyK-bcxYRQT8Ih0-359" value="" style="group" vertex="1" connectable="0" parent="C6_vnJyK-bcxYRQT8Ih0-329">
          <mxGeometry x="100" width="310" height="380" as="geometry" />
        </mxCell>
        <mxCell id="C6_vnJyK-bcxYRQT8Ih0-360" value="Start" style="ellipse;whiteSpace=wrap;html=1;fillColor=#FF6666;" vertex="1" parent="C6_vnJyK-bcxYRQT8Ih0-359">
          <mxGeometry x="30" width="110" height="60" as="geometry" />
        </mxCell>
        <mxCell id="C6_vnJyK-bcxYRQT8Ih0-361" value="" style="endArrow=classic;html=1;rounded=0;exitX=1;exitY=0.5;exitDx=0;exitDy=0;" edge="1" parent="C6_vnJyK-bcxYRQT8Ih0-359">
          <mxGeometry width="50" height="50" relative="1" as="geometry">
            <mxPoint x="140" y="40" as="sourcePoint" />
            <mxPoint x="260" y="90" as="targetPoint" />
            <Array as="points">
              <mxPoint x="260" y="40" />
            </Array>
          </mxGeometry>
        </mxCell>
        <mxCell id="C6_vnJyK-bcxYRQT8Ih0-362" value="Login" style="rounded=1;whiteSpace=wrap;html=1;" vertex="1" parent="C6_vnJyK-bcxYRQT8Ih0-359">
          <mxGeometry x="210" y="90" width="100" height="30" as="geometry" />
        </mxCell>
        <mxCell id="C6_vnJyK-bcxYRQT8Ih0-363" value="" style="endArrow=classic;html=1;rounded=0;exitX=0;exitY=0.5;exitDx=0;exitDy=0;entryX=0.5;entryY=0;entryDx=0;entryDy=0;" edge="1" parent="C6_vnJyK-bcxYRQT8Ih0-359">
          <mxGeometry width="50" height="50" relative="1" as="geometry">
            <mxPoint x="210" y="105" as="sourcePoint" />
            <mxPoint x="100" y="140" as="targetPoint" />
            <Array as="points">
              <mxPoint x="100" y="105" />
            </Array>
          </mxGeometry>
        </mxCell>
        <mxCell id="C6_vnJyK-bcxYRQT8Ih0-364" value="" style="edgeStyle=orthogonalEdgeStyle;rounded=0;orthogonalLoop=1;jettySize=auto;html=1;fontStyle=4" edge="1" parent="C6_vnJyK-bcxYRQT8Ih0-359" source="C6_vnJyK-bcxYRQT8Ih0-365" target="C6_vnJyK-bcxYRQT8Ih0-367">
          <mxGeometry relative="1" as="geometry" />
        </mxCell>
        <mxCell id="C6_vnJyK-bcxYRQT8Ih0-365" value="Dashboard" style="rounded=1;whiteSpace=wrap;html=1;" vertex="1" parent="C6_vnJyK-bcxYRQT8Ih0-359">
          <mxGeometry x="40" y="140" width="120" height="52" as="geometry" />
        </mxCell>
        <mxCell id="C6_vnJyK-bcxYRQT8Ih0-366" value="" style="endArrow=classic;html=1;rounded=0;exitX=0;exitY=0.5;exitDx=0;exitDy=0;entryX=0;entryY=0.6;entryDx=0;entryDy=0;entryPerimeter=0;" edge="1" parent="C6_vnJyK-bcxYRQT8Ih0-359">
          <mxGeometry width="50" height="50" relative="1" as="geometry">
            <mxPoint x="65" y="248" as="sourcePoint" />
            <mxPoint x="40" y="163" as="targetPoint" />
            <Array as="points">
              <mxPoint y="248" />
              <mxPoint y="163" />
            </Array>
          </mxGeometry>
        </mxCell>
        <mxCell id="C6_vnJyK-bcxYRQT8Ih0-367" value="Access User" style="rhombus;whiteSpace=wrap;html=1;" vertex="1" parent="C6_vnJyK-bcxYRQT8Ih0-359">
          <mxGeometry x="65" y="210" width="70" height="70" as="geometry" />
        </mxCell>
        <mxCell id="C6_vnJyK-bcxYRQT8Ih0-368" value="Subject" style="rounded=1;whiteSpace=wrap;html=1;" vertex="1" parent="C6_vnJyK-bcxYRQT8Ih0-359">
          <mxGeometry x="190" y="232" width="80" height="26" as="geometry" />
        </mxCell>
        <mxCell id="C6_vnJyK-bcxYRQT8Ih0-369" value="" style="endArrow=classic;html=1;rounded=0;entryX=0;entryY=0.5;entryDx=0;entryDy=0;" edge="1" parent="C6_vnJyK-bcxYRQT8Ih0-359">
          <mxGeometry width="50" height="50" relative="1" as="geometry">
            <mxPoint x="135" y="244.70000000000005" as="sourcePoint" />
            <mxPoint x="190" y="244.82000000000005" as="targetPoint" />
            <Array as="points">
              <mxPoint x="170" y="244.99000000000007" />
            </Array>
          </mxGeometry>
        </mxCell>
        <mxCell id="C6_vnJyK-bcxYRQT8Ih0-370" value="" style="endArrow=classic;html=1;rounded=0;exitX=0.5;exitY=1;exitDx=0;exitDy=0;" edge="1" parent="C6_vnJyK-bcxYRQT8Ih0-359">
          <mxGeometry width="50" height="50" relative="1" as="geometry">
            <mxPoint x="235" y="258" as="sourcePoint" />
            <mxPoint x="110" y="330" as="targetPoint" />
            <Array as="points">
              <mxPoint x="235" y="310" />
              <mxPoint x="110" y="310" />
            </Array>
          </mxGeometry>
        </mxCell>
        <mxCell id="C6_vnJyK-bcxYRQT8Ih0-371" value="" style="edgeStyle=orthogonalEdgeStyle;rounded=0;orthogonalLoop=1;jettySize=auto;html=1;fontStyle=4" edge="1" parent="C6_vnJyK-bcxYRQT8Ih0-359" source="C6_vnJyK-bcxYRQT8Ih0-372">
          <mxGeometry relative="1" as="geometry">
            <mxPoint x="110" y="380" as="targetPoint" />
          </mxGeometry>
        </mxCell>
        <mxCell id="C6_vnJyK-bcxYRQT8Ih0-372" value="Manage Subject" style="rounded=1;whiteSpace=wrap;html=1;" vertex="1" parent="C6_vnJyK-bcxYRQT8Ih0-359">
          <mxGeometry x="60" y="330" width="100" height="30" as="geometry" />
        </mxCell>
        <mxCell id="C6_vnJyK-bcxYRQT8Ih0-373" value="Data Complete" style="rhombus;whiteSpace=wrap;html=1;" vertex="1" parent="C6_vnJyK-bcxYRQT8Ih0-329">
          <mxGeometry x="177.5" y="600" width="65" height="70" as="geometry" />
        </mxCell>
        <mxCell id="C6_vnJyK-bcxYRQT8Ih0-374" value="delete subject" style="rhombus;whiteSpace=wrap;html=1;" vertex="1" parent="C6_vnJyK-bcxYRQT8Ih0-329">
          <mxGeometry x="307.5" y="495" width="65" height="70" as="geometry" />
        </mxCell>
        <mxCell id="C6_vnJyK-bcxYRQT8Ih0-375" value="" style="edgeStyle=orthogonalEdgeStyle;rounded=0;orthogonalLoop=1;jettySize=auto;html=1;" edge="1" parent="C6_vnJyK-bcxYRQT8Ih0-329">
          <mxGeometry relative="1" as="geometry">
            <mxPoint x="209.74000000000024" y="525" as="sourcePoint" />
            <mxPoint x="209.74000000000024" y="545" as="targetPoint" />
          </mxGeometry>
        </mxCell>
        <mxCell id="C6_vnJyK-bcxYRQT8Ih0-376" value="Edit Data Details" style="rounded=1;whiteSpace=wrap;html=1;" vertex="1" parent="C6_vnJyK-bcxYRQT8Ih0-329">
          <mxGeometry x="160" y="545" width="100" height="30" as="geometry" />
        </mxCell>
        <mxCell id="C6_vnJyK-bcxYRQT8Ih0-377" value="" style="edgeStyle=orthogonalEdgeStyle;rounded=0;orthogonalLoop=1;jettySize=auto;html=1;entryX=0.479;entryY=0.033;entryDx=0;entryDy=0;entryPerimeter=0;" edge="1" parent="C6_vnJyK-bcxYRQT8Ih0-329" target="C6_vnJyK-bcxYRQT8Ih0-373">
          <mxGeometry relative="1" as="geometry">
            <mxPoint x="209.74000000000024" y="575" as="sourcePoint" />
            <mxPoint x="209.74000000000024" y="595" as="targetPoint" />
          </mxGeometry>
        </mxCell>
        <mxCell id="C6_vnJyK-bcxYRQT8Ih0-378" value="" style="endArrow=classic;html=1;rounded=0;exitX=0;exitY=0.5;exitDx=0;exitDy=0;" edge="1" parent="C6_vnJyK-bcxYRQT8Ih0-329">
          <mxGeometry width="50" height="50" relative="1" as="geometry">
            <mxPoint x="177.5" y="635" as="sourcePoint" />
            <mxPoint x="159" y="510" as="targetPoint" />
            <Array as="points">
              <mxPoint x="140" y="635" />
              <mxPoint x="140" y="510" />
            </Array>
          </mxGeometry>
        </mxCell>
        <mxCell id="C6_vnJyK-bcxYRQT8Ih0-379" value="&lt;font style=&quot;font-size: 10px;&quot;&gt;no&lt;/font&gt;" style="text;html=1;align=center;verticalAlign=middle;resizable=0;points=[];autosize=1;strokeColor=none;fillColor=none;" vertex="1" parent="C6_vnJyK-bcxYRQT8Ih0-329">
          <mxGeometry x="140" y="600" width="30" height="30" as="geometry" />
        </mxCell>
        <mxCell id="C6_vnJyK-bcxYRQT8Ih0-380" value="" style="endArrow=classic;html=1;rounded=0;exitX=0;exitY=0.5;exitDx=0;exitDy=0;entryX=0;entryY=0.5;entryDx=0;entryDy=0;" edge="1" parent="C6_vnJyK-bcxYRQT8Ih0-329" target="C6_vnJyK-bcxYRQT8Ih0-333">
          <mxGeometry width="50" height="50" relative="1" as="geometry">
            <mxPoint x="307.5" y="529.5" as="sourcePoint" />
            <mxPoint x="287.5" y="414.5" as="targetPoint" />
            <Array as="points">
              <mxPoint x="270" y="530" />
              <mxPoint x="270" y="410" />
            </Array>
          </mxGeometry>
        </mxCell>
        <mxCell id="C6_vnJyK-bcxYRQT8Ih0-381" value="&lt;font style=&quot;font-size: 10px;&quot;&gt;no&lt;/font&gt;" style="text;html=1;align=center;verticalAlign=middle;resizable=0;points=[];autosize=1;strokeColor=none;fillColor=none;" vertex="1" parent="C6_vnJyK-bcxYRQT8Ih0-329">
          <mxGeometry x="270" y="490" width="30" height="30" as="geometry" />
        </mxCell>
        <mxCell id="C6_vnJyK-bcxYRQT8Ih0-382" value="&lt;font style=&quot;font-size: 10px;&quot;&gt;yes&lt;/font&gt;" style="text;html=1;align=center;verticalAlign=middle;resizable=0;points=[];autosize=1;strokeColor=none;fillColor=none;" vertex="1" parent="C6_vnJyK-bcxYRQT8Ih0-329">
          <mxGeometry x="210" y="670" width="40" height="30" as="geometry" />
        </mxCell>
        <mxCell id="C6_vnJyK-bcxYRQT8Ih0-383" value="&lt;font style=&quot;font-size: 10px;&quot;&gt;yes&lt;/font&gt;" style="text;html=1;align=center;verticalAlign=middle;resizable=0;points=[];autosize=1;strokeColor=none;fillColor=none;" vertex="1" parent="C6_vnJyK-bcxYRQT8Ih0-329">
          <mxGeometry x="300" y="658" width="40" height="30" as="geometry" />
        </mxCell>
        <mxCell id="C6_vnJyK-bcxYRQT8Ih0-405" value="" style="edgeStyle=orthogonalEdgeStyle;rounded=0;orthogonalLoop=1;jettySize=auto;html=1;" edge="1" parent="1">
          <mxGeometry relative="1" as="geometry">
            <mxPoint x="5049.57" y="625" as="sourcePoint" />
            <mxPoint x="5049.57" y="645" as="targetPoint" />
          </mxGeometry>
        </mxCell>
        <mxCell id="C6_vnJyK-bcxYRQT8Ih0-406" value="Display Form" style="rounded=1;whiteSpace=wrap;html=1;" vertex="1" parent="1">
          <mxGeometry x="5000" y="645" width="100" height="30" as="geometry" />
        </mxCell>
        <mxCell id="C6_vnJyK-bcxYRQT8Ih0-407" value="" style="edgeStyle=orthogonalEdgeStyle;rounded=0;orthogonalLoop=1;jettySize=auto;html=1;" edge="1" parent="1" source="C6_vnJyK-bcxYRQT8Ih0-408" target="C6_vnJyK-bcxYRQT8Ih0-412">
          <mxGeometry relative="1" as="geometry" />
        </mxCell>
        <mxCell id="C6_vnJyK-bcxYRQT8Ih0-408" value="Save Changes" style="rounded=1;whiteSpace=wrap;html=1;" vertex="1" parent="1">
          <mxGeometry x="5015" y="850" width="85" height="30" as="geometry" />
        </mxCell>
        <mxCell id="C6_vnJyK-bcxYRQT8Ih0-412" value="End" style="ellipse;whiteSpace=wrap;html=1;fillColor=#FF6666;" vertex="1" parent="1">
          <mxGeometry x="5002.5" y="910" width="110" height="60" as="geometry" />
        </mxCell>
        <mxCell id="C6_vnJyK-bcxYRQT8Ih0-413" value="" style="endArrow=classic;html=1;rounded=0;entryX=0.5;entryY=0;entryDx=0;entryDy=0;" edge="1" parent="1">
          <mxGeometry width="50" height="50" relative="1" as="geometry">
            <mxPoint x="5049.879999999999" y="820" as="sourcePoint" />
            <mxPoint x="5049.639999999999" y="850" as="targetPoint" />
          </mxGeometry>
        </mxCell>
        <mxCell id="C6_vnJyK-bcxYRQT8Ih0-428" value="Data Complete" style="rhombus;whiteSpace=wrap;html=1;" vertex="1" parent="1">
          <mxGeometry x="5017.5" y="750" width="65" height="70" as="geometry" />
        </mxCell>
        <mxCell id="C6_vnJyK-bcxYRQT8Ih0-430" value="" style="edgeStyle=orthogonalEdgeStyle;rounded=0;orthogonalLoop=1;jettySize=auto;html=1;" edge="1" parent="1">
          <mxGeometry relative="1" as="geometry">
            <mxPoint x="5049.74" y="675" as="sourcePoint" />
            <mxPoint x="5049.74" y="695" as="targetPoint" />
          </mxGeometry>
        </mxCell>
        <mxCell id="C6_vnJyK-bcxYRQT8Ih0-431" value="Edit Data Details" style="rounded=1;whiteSpace=wrap;html=1;" vertex="1" parent="1">
          <mxGeometry x="5000" y="695" width="100" height="30" as="geometry" />
        </mxCell>
        <mxCell id="C6_vnJyK-bcxYRQT8Ih0-432" value="" style="edgeStyle=orthogonalEdgeStyle;rounded=0;orthogonalLoop=1;jettySize=auto;html=1;entryX=0.479;entryY=0.033;entryDx=0;entryDy=0;entryPerimeter=0;" edge="1" parent="1" target="C6_vnJyK-bcxYRQT8Ih0-428">
          <mxGeometry relative="1" as="geometry">
            <mxPoint x="5049.74" y="725" as="sourcePoint" />
            <mxPoint x="5049.74" y="745" as="targetPoint" />
          </mxGeometry>
        </mxCell>
        <mxCell id="C6_vnJyK-bcxYRQT8Ih0-433" value="" style="endArrow=classic;html=1;rounded=0;exitX=0;exitY=0.5;exitDx=0;exitDy=0;" edge="1" parent="1">
          <mxGeometry width="50" height="50" relative="1" as="geometry">
            <mxPoint x="5017.5" y="785" as="sourcePoint" />
            <mxPoint x="4999" y="660" as="targetPoint" />
            <Array as="points">
              <mxPoint x="4980" y="785" />
              <mxPoint x="4980" y="660" />
            </Array>
          </mxGeometry>
        </mxCell>
        <mxCell id="C6_vnJyK-bcxYRQT8Ih0-434" value="&lt;font style=&quot;font-size: 10px;&quot;&gt;no&lt;/font&gt;" style="text;html=1;align=center;verticalAlign=middle;resizable=0;points=[];autosize=1;strokeColor=none;fillColor=none;" vertex="1" parent="1">
          <mxGeometry x="4980" y="750" width="30" height="30" as="geometry" />
        </mxCell>
        <mxCell id="C6_vnJyK-bcxYRQT8Ih0-437" value="&lt;font style=&quot;font-size: 10px;&quot;&gt;yes&lt;/font&gt;" style="text;html=1;align=center;verticalAlign=middle;resizable=0;points=[];autosize=1;strokeColor=none;fillColor=none;" vertex="1" parent="1">
          <mxGeometry x="5050" y="820" width="40" height="30" as="geometry" />
        </mxCell>
        <mxCell id="C6_vnJyK-bcxYRQT8Ih0-439" value="" style="group" vertex="1" connectable="0" parent="1">
          <mxGeometry x="4940" y="200" width="310" height="425" as="geometry" />
        </mxCell>
        <mxCell id="C6_vnJyK-bcxYRQT8Ih0-386" value="" style="edgeStyle=orthogonalEdgeStyle;rounded=0;orthogonalLoop=1;jettySize=auto;html=1;" edge="1" parent="C6_vnJyK-bcxYRQT8Ih0-439" source="C6_vnJyK-bcxYRQT8Ih0-427">
          <mxGeometry relative="1" as="geometry">
            <mxPoint x="109.63000000000011" y="375" as="sourcePoint" />
            <mxPoint x="109.63000000000011" y="395" as="targetPoint" />
          </mxGeometry>
        </mxCell>
        <mxCell id="C6_vnJyK-bcxYRQT8Ih0-387" value="Update System" style="whiteSpace=wrap;html=1;rounded=1;" vertex="1" parent="C6_vnJyK-bcxYRQT8Ih0-439">
          <mxGeometry x="60" y="395" width="100" height="30" as="geometry" />
        </mxCell>
        <mxCell id="C6_vnJyK-bcxYRQT8Ih0-415" value="Start" style="ellipse;whiteSpace=wrap;html=1;fillColor=#FF6666;" vertex="1" parent="C6_vnJyK-bcxYRQT8Ih0-439">
          <mxGeometry x="30" width="110" height="60" as="geometry" />
        </mxCell>
        <mxCell id="C6_vnJyK-bcxYRQT8Ih0-416" value="" style="endArrow=classic;html=1;rounded=0;exitX=1;exitY=0.5;exitDx=0;exitDy=0;" edge="1" parent="C6_vnJyK-bcxYRQT8Ih0-439">
          <mxGeometry width="50" height="50" relative="1" as="geometry">
            <mxPoint x="140" y="40" as="sourcePoint" />
            <mxPoint x="260" y="90" as="targetPoint" />
            <Array as="points">
              <mxPoint x="260" y="40" />
            </Array>
          </mxGeometry>
        </mxCell>
        <mxCell id="C6_vnJyK-bcxYRQT8Ih0-417" value="Login" style="rounded=1;whiteSpace=wrap;html=1;" vertex="1" parent="C6_vnJyK-bcxYRQT8Ih0-439">
          <mxGeometry x="210" y="90" width="100" height="30" as="geometry" />
        </mxCell>
        <mxCell id="C6_vnJyK-bcxYRQT8Ih0-418" value="" style="endArrow=classic;html=1;rounded=0;exitX=0;exitY=0.5;exitDx=0;exitDy=0;entryX=0.5;entryY=0;entryDx=0;entryDy=0;" edge="1" parent="C6_vnJyK-bcxYRQT8Ih0-439">
          <mxGeometry width="50" height="50" relative="1" as="geometry">
            <mxPoint x="210" y="105" as="sourcePoint" />
            <mxPoint x="100" y="140" as="targetPoint" />
            <Array as="points">
              <mxPoint x="100" y="105" />
            </Array>
          </mxGeometry>
        </mxCell>
        <mxCell id="C6_vnJyK-bcxYRQT8Ih0-419" value="" style="edgeStyle=orthogonalEdgeStyle;rounded=0;orthogonalLoop=1;jettySize=auto;html=1;fontStyle=4" edge="1" parent="C6_vnJyK-bcxYRQT8Ih0-439" source="C6_vnJyK-bcxYRQT8Ih0-420" target="C6_vnJyK-bcxYRQT8Ih0-422">
          <mxGeometry relative="1" as="geometry" />
        </mxCell>
        <mxCell id="C6_vnJyK-bcxYRQT8Ih0-420" value="Dashboard" style="rounded=1;whiteSpace=wrap;html=1;" vertex="1" parent="C6_vnJyK-bcxYRQT8Ih0-439">
          <mxGeometry x="40" y="140" width="120" height="52" as="geometry" />
        </mxCell>
        <mxCell id="C6_vnJyK-bcxYRQT8Ih0-421" value="" style="endArrow=classic;html=1;rounded=0;exitX=0;exitY=0.5;exitDx=0;exitDy=0;entryX=0;entryY=0.6;entryDx=0;entryDy=0;entryPerimeter=0;" edge="1" parent="C6_vnJyK-bcxYRQT8Ih0-439">
          <mxGeometry width="50" height="50" relative="1" as="geometry">
            <mxPoint x="65" y="248" as="sourcePoint" />
            <mxPoint x="40" y="163" as="targetPoint" />
            <Array as="points">
              <mxPoint y="248" />
              <mxPoint y="163" />
            </Array>
          </mxGeometry>
        </mxCell>
        <mxCell id="C6_vnJyK-bcxYRQT8Ih0-422" value="Access User" style="rhombus;whiteSpace=wrap;html=1;" vertex="1" parent="C6_vnJyK-bcxYRQT8Ih0-439">
          <mxGeometry x="65" y="210" width="70" height="70" as="geometry" />
        </mxCell>
        <mxCell id="C6_vnJyK-bcxYRQT8Ih0-423" value="Settings" style="rounded=1;whiteSpace=wrap;html=1;" vertex="1" parent="C6_vnJyK-bcxYRQT8Ih0-439">
          <mxGeometry x="190" y="232" width="80" height="26" as="geometry" />
        </mxCell>
        <mxCell id="C6_vnJyK-bcxYRQT8Ih0-424" value="" style="endArrow=classic;html=1;rounded=0;entryX=0;entryY=0.5;entryDx=0;entryDy=0;" edge="1" parent="C6_vnJyK-bcxYRQT8Ih0-439">
          <mxGeometry width="50" height="50" relative="1" as="geometry">
            <mxPoint x="135" y="244.70000000000005" as="sourcePoint" />
            <mxPoint x="190" y="244.82000000000005" as="targetPoint" />
            <Array as="points">
              <mxPoint x="170" y="244.99000000000007" />
            </Array>
          </mxGeometry>
        </mxCell>
        <mxCell id="C6_vnJyK-bcxYRQT8Ih0-425" value="" style="endArrow=classic;html=1;rounded=0;exitX=0.5;exitY=1;exitDx=0;exitDy=0;" edge="1" parent="C6_vnJyK-bcxYRQT8Ih0-439">
          <mxGeometry width="50" height="50" relative="1" as="geometry">
            <mxPoint x="235" y="258" as="sourcePoint" />
            <mxPoint x="110" y="330" as="targetPoint" />
            <Array as="points">
              <mxPoint x="235" y="310" />
              <mxPoint x="110" y="310" />
            </Array>
          </mxGeometry>
        </mxCell>
        <mxCell id="C6_vnJyK-bcxYRQT8Ih0-427" value="System" style="rounded=1;whiteSpace=wrap;html=1;" vertex="1" parent="C6_vnJyK-bcxYRQT8Ih0-439">
          <mxGeometry x="60" y="330" width="100" height="30" as="geometry" />
        </mxCell>
        <mxCell id="C6_vnJyK-bcxYRQT8Ih0-440" value="" style="group" vertex="1" connectable="0" parent="1">
          <mxGeometry x="1785" y="40" width="385" height="910" as="geometry" />
        </mxCell>
        <mxCell id="C6_vnJyK-bcxYRQT8Ih0-77" value="Start" style="ellipse;whiteSpace=wrap;html=1;fillColor=#FF6666;" vertex="1" parent="C6_vnJyK-bcxYRQT8Ih0-440">
          <mxGeometry x="105" width="110" height="60" as="geometry" />
        </mxCell>
        <mxCell id="C6_vnJyK-bcxYRQT8Ih0-78" value="Login" style="rounded=1;whiteSpace=wrap;html=1;" vertex="1" parent="C6_vnJyK-bcxYRQT8Ih0-440">
          <mxGeometry x="285" y="80" width="100" height="30" as="geometry" />
        </mxCell>
        <mxCell id="C6_vnJyK-bcxYRQT8Ih0-84" value="" style="edgeStyle=orthogonalEdgeStyle;rounded=0;orthogonalLoop=1;jettySize=auto;html=1;" edge="1" parent="C6_vnJyK-bcxYRQT8Ih0-440" source="C6_vnJyK-bcxYRQT8Ih0-79" target="C6_vnJyK-bcxYRQT8Ih0-83">
          <mxGeometry relative="1" as="geometry" />
        </mxCell>
        <mxCell id="C6_vnJyK-bcxYRQT8Ih0-79" value="Dashboard" style="rounded=1;whiteSpace=wrap;html=1;" vertex="1" parent="C6_vnJyK-bcxYRQT8Ih0-440">
          <mxGeometry x="115" y="130" width="120" height="50" as="geometry" />
        </mxCell>
        <mxCell id="C6_vnJyK-bcxYRQT8Ih0-81" value="" style="endArrow=classic;html=1;rounded=0;exitX=1;exitY=0.5;exitDx=0;exitDy=0;" edge="1" parent="C6_vnJyK-bcxYRQT8Ih0-440" source="C6_vnJyK-bcxYRQT8Ih0-77">
          <mxGeometry width="50" height="50" relative="1" as="geometry">
            <mxPoint x="255" y="70" as="sourcePoint" />
            <mxPoint x="335" y="80" as="targetPoint" />
            <Array as="points">
              <mxPoint x="335" y="30" />
            </Array>
          </mxGeometry>
        </mxCell>
        <mxCell id="C6_vnJyK-bcxYRQT8Ih0-82" value="" style="endArrow=classic;html=1;rounded=0;exitX=0;exitY=0.5;exitDx=0;exitDy=0;entryX=0.5;entryY=0;entryDx=0;entryDy=0;" edge="1" parent="C6_vnJyK-bcxYRQT8Ih0-440" source="C6_vnJyK-bcxYRQT8Ih0-78" target="C6_vnJyK-bcxYRQT8Ih0-79">
          <mxGeometry width="50" height="50" relative="1" as="geometry">
            <mxPoint x="195" y="130" as="sourcePoint" />
            <mxPoint x="175" y="95" as="targetPoint" />
            <Array as="points">
              <mxPoint x="175" y="95" />
            </Array>
          </mxGeometry>
        </mxCell>
        <mxCell id="C6_vnJyK-bcxYRQT8Ih0-83" value="Access User" style="rhombus;whiteSpace=wrap;html=1;" vertex="1" parent="C6_vnJyK-bcxYRQT8Ih0-440">
          <mxGeometry x="140" y="210" width="70" height="70" as="geometry" />
        </mxCell>
        <mxCell id="C6_vnJyK-bcxYRQT8Ih0-85" value="" style="endArrow=classic;html=1;rounded=0;exitX=0;exitY=0.5;exitDx=0;exitDy=0;entryX=0;entryY=0.6;entryDx=0;entryDy=0;entryPerimeter=0;" edge="1" parent="C6_vnJyK-bcxYRQT8Ih0-440" source="C6_vnJyK-bcxYRQT8Ih0-83" target="C6_vnJyK-bcxYRQT8Ih0-79">
          <mxGeometry width="50" height="50" relative="1" as="geometry">
            <mxPoint x="35" y="245" as="sourcePoint" />
            <mxPoint x="75" y="150" as="targetPoint" />
            <Array as="points">
              <mxPoint x="75" y="245" />
              <mxPoint x="75" y="160" />
            </Array>
          </mxGeometry>
        </mxCell>
        <mxCell id="C6_vnJyK-bcxYRQT8Ih0-86" value="&lt;font style=&quot;font-size: 10px;&quot;&gt;no&lt;/font&gt;" style="text;html=1;align=center;verticalAlign=middle;resizable=0;points=[];autosize=1;strokeColor=none;fillColor=none;" vertex="1" parent="C6_vnJyK-bcxYRQT8Ih0-440">
          <mxGeometry x="50" y="188" width="30" height="30" as="geometry" />
        </mxCell>
        <mxCell id="C6_vnJyK-bcxYRQT8Ih0-87" value="" style="endArrow=classic;html=1;rounded=0;" edge="1" parent="C6_vnJyK-bcxYRQT8Ih0-440">
          <mxGeometry width="50" height="50" relative="1" as="geometry">
            <mxPoint x="210" y="245" as="sourcePoint" />
            <mxPoint x="260" y="245" as="targetPoint" />
          </mxGeometry>
        </mxCell>
        <mxCell id="C6_vnJyK-bcxYRQT8Ih0-88" value="&lt;font style=&quot;font-size: 10px;&quot;&gt;yes&lt;/font&gt;" style="text;html=1;align=center;verticalAlign=middle;resizable=0;points=[];autosize=1;strokeColor=none;fillColor=none;" vertex="1" parent="C6_vnJyK-bcxYRQT8Ih0-440">
          <mxGeometry x="215" y="210" width="40" height="30" as="geometry" />
        </mxCell>
        <mxCell id="C6_vnJyK-bcxYRQT8Ih0-89" value="Classroom" style="rounded=1;whiteSpace=wrap;html=1;" vertex="1" parent="C6_vnJyK-bcxYRQT8Ih0-440">
          <mxGeometry x="260" y="232" width="80" height="26" as="geometry" />
        </mxCell>
        <mxCell id="C6_vnJyK-bcxYRQT8Ih0-90" value="" style="endArrow=classic;html=1;rounded=0;exitX=0.5;exitY=1;exitDx=0;exitDy=0;" edge="1" parent="C6_vnJyK-bcxYRQT8Ih0-440" source="C6_vnJyK-bcxYRQT8Ih0-89">
          <mxGeometry width="50" height="50" relative="1" as="geometry">
            <mxPoint x="255" y="350" as="sourcePoint" />
            <mxPoint x="175" y="330" as="targetPoint" />
            <Array as="points">
              <mxPoint x="300" y="310" />
              <mxPoint x="175" y="310" />
            </Array>
          </mxGeometry>
        </mxCell>
        <mxCell id="C6_vnJyK-bcxYRQT8Ih0-91" value="Student List" style="rounded=1;whiteSpace=wrap;html=1;" vertex="1" parent="C6_vnJyK-bcxYRQT8Ih0-440">
          <mxGeometry x="125" y="330" width="100" height="30" as="geometry" />
        </mxCell>
        <mxCell id="C6_vnJyK-bcxYRQT8Ih0-92" value="" style="endArrow=classic;html=1;rounded=0;exitX=0.5;exitY=1;exitDx=0;exitDy=0;" edge="1" parent="C6_vnJyK-bcxYRQT8Ih0-440" source="C6_vnJyK-bcxYRQT8Ih0-91">
          <mxGeometry width="50" height="50" relative="1" as="geometry">
            <mxPoint x="150" y="460" as="sourcePoint" />
            <mxPoint x="175" y="380" as="targetPoint" />
          </mxGeometry>
        </mxCell>
        <mxCell id="C6_vnJyK-bcxYRQT8Ih0-94" style="edgeStyle=orthogonalEdgeStyle;rounded=0;orthogonalLoop=1;jettySize=auto;html=1;" edge="1" parent="C6_vnJyK-bcxYRQT8Ih0-440" source="C6_vnJyK-bcxYRQT8Ih0-93">
          <mxGeometry relative="1" as="geometry">
            <mxPoint x="175" y="430" as="targetPoint" />
          </mxGeometry>
        </mxCell>
        <mxCell id="C6_vnJyK-bcxYRQT8Ih0-93" value="Select Grade" style="rounded=1;whiteSpace=wrap;html=1;" vertex="1" parent="C6_vnJyK-bcxYRQT8Ih0-440">
          <mxGeometry x="125" y="380" width="100" height="30" as="geometry" />
        </mxCell>
        <mxCell id="C6_vnJyK-bcxYRQT8Ih0-95" value="Select Section" style="rounded=1;whiteSpace=wrap;html=1;" vertex="1" parent="C6_vnJyK-bcxYRQT8Ih0-440">
          <mxGeometry x="125" y="430" width="100" height="30" as="geometry" />
        </mxCell>
        <mxCell id="C6_vnJyK-bcxYRQT8Ih0-96" style="edgeStyle=orthogonalEdgeStyle;rounded=0;orthogonalLoop=1;jettySize=auto;html=1;" edge="1" parent="C6_vnJyK-bcxYRQT8Ih0-440">
          <mxGeometry relative="1" as="geometry">
            <mxPoint x="174.67000000000007" y="480" as="targetPoint" />
            <mxPoint x="174.67000000000007" y="460" as="sourcePoint" />
          </mxGeometry>
        </mxCell>
        <mxCell id="C6_vnJyK-bcxYRQT8Ih0-97" value="" style="endArrow=none;html=1;rounded=0;" edge="1" parent="C6_vnJyK-bcxYRQT8Ih0-440">
          <mxGeometry width="50" height="50" relative="1" as="geometry">
            <mxPoint x="95" y="480" as="sourcePoint" />
            <mxPoint x="255" y="479" as="targetPoint" />
          </mxGeometry>
        </mxCell>
        <mxCell id="C6_vnJyK-bcxYRQT8Ih0-98" style="edgeStyle=orthogonalEdgeStyle;rounded=0;orthogonalLoop=1;jettySize=auto;html=1;" edge="1" parent="C6_vnJyK-bcxYRQT8Ih0-440">
          <mxGeometry relative="1" as="geometry">
            <mxPoint x="255" y="500" as="targetPoint" />
            <mxPoint x="255" y="480" as="sourcePoint" />
          </mxGeometry>
        </mxCell>
        <mxCell id="C6_vnJyK-bcxYRQT8Ih0-99" style="edgeStyle=orthogonalEdgeStyle;rounded=0;orthogonalLoop=1;jettySize=auto;html=1;" edge="1" parent="C6_vnJyK-bcxYRQT8Ih0-440">
          <mxGeometry relative="1" as="geometry">
            <mxPoint x="95" y="500" as="targetPoint" />
            <mxPoint x="95" y="480" as="sourcePoint" />
          </mxGeometry>
        </mxCell>
        <mxCell id="C6_vnJyK-bcxYRQT8Ih0-110" value="" style="edgeStyle=orthogonalEdgeStyle;rounded=0;orthogonalLoop=1;jettySize=auto;html=1;" edge="1" parent="C6_vnJyK-bcxYRQT8Ih0-440" source="C6_vnJyK-bcxYRQT8Ih0-101" target="C6_vnJyK-bcxYRQT8Ih0-109">
          <mxGeometry relative="1" as="geometry" />
        </mxCell>
        <mxCell id="C6_vnJyK-bcxYRQT8Ih0-101" value="Delete Student" style="rounded=1;whiteSpace=wrap;html=1;" vertex="1" parent="C6_vnJyK-bcxYRQT8Ih0-440">
          <mxGeometry x="50" y="500" width="100" height="30" as="geometry" />
        </mxCell>
        <mxCell id="C6_vnJyK-bcxYRQT8Ih0-116" value="" style="edgeStyle=orthogonalEdgeStyle;rounded=0;orthogonalLoop=1;jettySize=auto;html=1;" edge="1" parent="C6_vnJyK-bcxYRQT8Ih0-440" source="C6_vnJyK-bcxYRQT8Ih0-102" target="C6_vnJyK-bcxYRQT8Ih0-115">
          <mxGeometry relative="1" as="geometry" />
        </mxCell>
        <mxCell id="C6_vnJyK-bcxYRQT8Ih0-102" value="Update Student" style="rounded=1;whiteSpace=wrap;html=1;" vertex="1" parent="C6_vnJyK-bcxYRQT8Ih0-440">
          <mxGeometry x="205" y="500" width="100" height="30" as="geometry" />
        </mxCell>
        <mxCell id="C6_vnJyK-bcxYRQT8Ih0-112" value="" style="edgeStyle=orthogonalEdgeStyle;rounded=0;orthogonalLoop=1;jettySize=auto;html=1;" edge="1" parent="C6_vnJyK-bcxYRQT8Ih0-440" source="C6_vnJyK-bcxYRQT8Ih0-109" target="C6_vnJyK-bcxYRQT8Ih0-111">
          <mxGeometry relative="1" as="geometry" />
        </mxCell>
        <mxCell id="C6_vnJyK-bcxYRQT8Ih0-109" value="Select Student" style="rounded=1;whiteSpace=wrap;html=1;" vertex="1" parent="C6_vnJyK-bcxYRQT8Ih0-440">
          <mxGeometry x="50" y="550" width="100" height="30" as="geometry" />
        </mxCell>
        <mxCell id="C6_vnJyK-bcxYRQT8Ih0-111" value="delete&amp;nbsp;&lt;div&gt;student&lt;/div&gt;" style="rhombus;whiteSpace=wrap;html=1;" vertex="1" parent="C6_vnJyK-bcxYRQT8Ih0-440">
          <mxGeometry x="67.5" y="600" width="65" height="70" as="geometry" />
        </mxCell>
        <mxCell id="C6_vnJyK-bcxYRQT8Ih0-113" value="" style="endArrow=classic;html=1;rounded=0;exitX=0;exitY=0.5;exitDx=0;exitDy=0;entryX=0;entryY=0.5;entryDx=0;entryDy=0;" edge="1" parent="C6_vnJyK-bcxYRQT8Ih0-440" source="C6_vnJyK-bcxYRQT8Ih0-111" target="C6_vnJyK-bcxYRQT8Ih0-101">
          <mxGeometry width="50" height="50" relative="1" as="geometry">
            <mxPoint x="-5" y="640" as="sourcePoint" />
            <mxPoint x="-5" y="520" as="targetPoint" />
            <Array as="points">
              <mxPoint x="25" y="635" />
              <mxPoint x="25" y="515" />
            </Array>
          </mxGeometry>
        </mxCell>
        <mxCell id="C6_vnJyK-bcxYRQT8Ih0-114" value="&lt;font style=&quot;font-size: 10px;&quot;&gt;no&lt;/font&gt;" style="text;html=1;align=center;verticalAlign=middle;resizable=0;points=[];autosize=1;strokeColor=none;fillColor=none;" vertex="1" parent="C6_vnJyK-bcxYRQT8Ih0-440">
          <mxGeometry y="580" width="30" height="30" as="geometry" />
        </mxCell>
        <mxCell id="C6_vnJyK-bcxYRQT8Ih0-118" value="" style="edgeStyle=orthogonalEdgeStyle;rounded=0;orthogonalLoop=1;jettySize=auto;html=1;" edge="1" parent="C6_vnJyK-bcxYRQT8Ih0-440" source="C6_vnJyK-bcxYRQT8Ih0-115" target="C6_vnJyK-bcxYRQT8Ih0-117">
          <mxGeometry relative="1" as="geometry" />
        </mxCell>
        <mxCell id="C6_vnJyK-bcxYRQT8Ih0-115" value="Select Student" style="rounded=1;whiteSpace=wrap;html=1;" vertex="1" parent="C6_vnJyK-bcxYRQT8Ih0-440">
          <mxGeometry x="205" y="550" width="100" height="30" as="geometry" />
        </mxCell>
        <mxCell id="C6_vnJyK-bcxYRQT8Ih0-120" value="" style="edgeStyle=orthogonalEdgeStyle;rounded=0;orthogonalLoop=1;jettySize=auto;html=1;" edge="1" parent="C6_vnJyK-bcxYRQT8Ih0-440" source="C6_vnJyK-bcxYRQT8Ih0-117" target="C6_vnJyK-bcxYRQT8Ih0-119">
          <mxGeometry relative="1" as="geometry" />
        </mxCell>
        <mxCell id="C6_vnJyK-bcxYRQT8Ih0-117" value="Display Form" style="rounded=1;whiteSpace=wrap;html=1;" vertex="1" parent="C6_vnJyK-bcxYRQT8Ih0-440">
          <mxGeometry x="205" y="600" width="100" height="30" as="geometry" />
        </mxCell>
        <mxCell id="C6_vnJyK-bcxYRQT8Ih0-122" value="" style="edgeStyle=orthogonalEdgeStyle;rounded=0;orthogonalLoop=1;jettySize=auto;html=1;" edge="1" parent="C6_vnJyK-bcxYRQT8Ih0-440" source="C6_vnJyK-bcxYRQT8Ih0-119" target="C6_vnJyK-bcxYRQT8Ih0-121">
          <mxGeometry relative="1" as="geometry" />
        </mxCell>
        <mxCell id="C6_vnJyK-bcxYRQT8Ih0-119" value="Edit Data Details" style="rounded=1;whiteSpace=wrap;html=1;" vertex="1" parent="C6_vnJyK-bcxYRQT8Ih0-440">
          <mxGeometry x="205" y="650" width="100" height="30" as="geometry" />
        </mxCell>
        <mxCell id="C6_vnJyK-bcxYRQT8Ih0-121" value="Data Complete" style="rhombus;whiteSpace=wrap;html=1;" vertex="1" parent="C6_vnJyK-bcxYRQT8Ih0-440">
          <mxGeometry x="222.5" y="700" width="65" height="70" as="geometry" />
        </mxCell>
        <mxCell id="C6_vnJyK-bcxYRQT8Ih0-123" value="" style="endArrow=classic;html=1;rounded=0;exitX=0;exitY=0.5;exitDx=0;exitDy=0;entryX=0;entryY=0.5;entryDx=0;entryDy=0;" edge="1" parent="C6_vnJyK-bcxYRQT8Ih0-440">
          <mxGeometry width="50" height="50" relative="1" as="geometry">
            <mxPoint x="222.5" y="735" as="sourcePoint" />
            <mxPoint x="204.5" y="615" as="targetPoint" />
            <Array as="points">
              <mxPoint x="179.5" y="735" />
              <mxPoint x="179.5" y="615" />
            </Array>
          </mxGeometry>
        </mxCell>
        <mxCell id="C6_vnJyK-bcxYRQT8Ih0-124" value="&lt;font style=&quot;font-size: 10px;&quot;&gt;no&lt;/font&gt;" style="text;html=1;align=center;verticalAlign=middle;resizable=0;points=[];autosize=1;strokeColor=none;fillColor=none;" vertex="1" parent="C6_vnJyK-bcxYRQT8Ih0-440">
          <mxGeometry x="175" y="680" width="30" height="30" as="geometry" />
        </mxCell>
        <mxCell id="C6_vnJyK-bcxYRQT8Ih0-126" value="Save Changes" style="rounded=1;whiteSpace=wrap;html=1;" vertex="1" parent="C6_vnJyK-bcxYRQT8Ih0-440">
          <mxGeometry x="117.5" y="800" width="85" height="30" as="geometry" />
        </mxCell>
        <mxCell id="C6_vnJyK-bcxYRQT8Ih0-127" value="" style="endArrow=classic;html=1;rounded=0;exitX=0.5;exitY=1;exitDx=0;exitDy=0;entryX=0;entryY=0.5;entryDx=0;entryDy=0;" edge="1" parent="C6_vnJyK-bcxYRQT8Ih0-440" source="C6_vnJyK-bcxYRQT8Ih0-111" target="C6_vnJyK-bcxYRQT8Ih0-126">
          <mxGeometry width="50" height="50" relative="1" as="geometry">
            <mxPoint x="125" y="740" as="sourcePoint" />
            <mxPoint x="100" y="820" as="targetPoint" />
            <Array as="points">
              <mxPoint x="100" y="815" />
            </Array>
          </mxGeometry>
        </mxCell>
        <mxCell id="C6_vnJyK-bcxYRQT8Ih0-128" value="" style="endArrow=classic;html=1;rounded=0;exitX=0.5;exitY=1;exitDx=0;exitDy=0;entryX=1;entryY=0.5;entryDx=0;entryDy=0;" edge="1" parent="C6_vnJyK-bcxYRQT8Ih0-440" source="C6_vnJyK-bcxYRQT8Ih0-121" target="C6_vnJyK-bcxYRQT8Ih0-126">
          <mxGeometry width="50" height="50" relative="1" as="geometry">
            <mxPoint x="135" y="810" as="sourcePoint" />
            <mxPoint x="255" y="820" as="targetPoint" />
            <Array as="points">
              <mxPoint x="255" y="815" />
            </Array>
          </mxGeometry>
        </mxCell>
        <mxCell id="C6_vnJyK-bcxYRQT8Ih0-129" value="&lt;font style=&quot;font-size: 10px;&quot;&gt;yes&lt;/font&gt;" style="text;html=1;align=center;verticalAlign=middle;resizable=0;points=[];autosize=1;strokeColor=none;fillColor=none;" vertex="1" parent="C6_vnJyK-bcxYRQT8Ih0-440">
          <mxGeometry x="220" y="788" width="40" height="30" as="geometry" />
        </mxCell>
        <mxCell id="C6_vnJyK-bcxYRQT8Ih0-131" value="&lt;font style=&quot;font-size: 10px;&quot;&gt;yes&lt;/font&gt;" style="text;html=1;align=center;verticalAlign=middle;resizable=0;points=[];autosize=1;strokeColor=none;fillColor=none;" vertex="1" parent="C6_vnJyK-bcxYRQT8Ih0-440">
          <mxGeometry x="65" y="770" width="40" height="30" as="geometry" />
        </mxCell>
        <mxCell id="C6_vnJyK-bcxYRQT8Ih0-132" value="" style="endArrow=classic;html=1;rounded=0;exitX=0.5;exitY=1;exitDx=0;exitDy=0;" edge="1" parent="C6_vnJyK-bcxYRQT8Ih0-440" source="C6_vnJyK-bcxYRQT8Ih0-126">
          <mxGeometry width="50" height="50" relative="1" as="geometry">
            <mxPoint x="155" y="900" as="sourcePoint" />
            <mxPoint x="160" y="850" as="targetPoint" />
          </mxGeometry>
        </mxCell>
        <mxCell id="C6_vnJyK-bcxYRQT8Ih0-133" value="End" style="ellipse;whiteSpace=wrap;html=1;fillColor=#FF6666;" vertex="1" parent="C6_vnJyK-bcxYRQT8Ih0-440">
          <mxGeometry x="105" y="850" width="110" height="60" as="geometry" />
        </mxCell>
        <mxCell id="C6_vnJyK-bcxYRQT8Ih0-461" value="" style="endArrow=none;html=1;rounded=0;" edge="1" parent="1">
          <mxGeometry width="50" height="50" relative="1" as="geometry">
            <mxPoint x="1905" y="1730" as="sourcePoint" />
            <mxPoint x="2065" y="1729" as="targetPoint" />
          </mxGeometry>
        </mxCell>
        <mxCell id="C6_vnJyK-bcxYRQT8Ih0-462" style="edgeStyle=orthogonalEdgeStyle;rounded=0;orthogonalLoop=1;jettySize=auto;html=1;" edge="1" parent="1">
          <mxGeometry relative="1" as="geometry">
            <mxPoint x="2065" y="1750" as="targetPoint" />
            <mxPoint x="2065" y="1730" as="sourcePoint" />
          </mxGeometry>
        </mxCell>
        <mxCell id="C6_vnJyK-bcxYRQT8Ih0-463" style="edgeStyle=orthogonalEdgeStyle;rounded=0;orthogonalLoop=1;jettySize=auto;html=1;" edge="1" parent="1">
          <mxGeometry relative="1" as="geometry">
            <mxPoint x="1905" y="1750" as="targetPoint" />
            <mxPoint x="1905" y="1730" as="sourcePoint" />
          </mxGeometry>
        </mxCell>
        <mxCell id="C6_vnJyK-bcxYRQT8Ih0-464" value="" style="edgeStyle=orthogonalEdgeStyle;rounded=0;orthogonalLoop=1;jettySize=auto;html=1;" edge="1" parent="1" source="C6_vnJyK-bcxYRQT8Ih0-465" target="C6_vnJyK-bcxYRQT8Ih0-469">
          <mxGeometry relative="1" as="geometry" />
        </mxCell>
        <mxCell id="C6_vnJyK-bcxYRQT8Ih0-465" value="Change Password" style="rounded=1;whiteSpace=wrap;html=1;" vertex="1" parent="1">
          <mxGeometry x="1860" y="1750" width="100" height="30" as="geometry" />
        </mxCell>
        <mxCell id="C6_vnJyK-bcxYRQT8Ih0-466" value="" style="edgeStyle=orthogonalEdgeStyle;rounded=0;orthogonalLoop=1;jettySize=auto;html=1;" edge="1" parent="1" source="C6_vnJyK-bcxYRQT8Ih0-467">
          <mxGeometry relative="1" as="geometry">
            <mxPoint x="2064.9696969696975" y="1800" as="targetPoint" />
          </mxGeometry>
        </mxCell>
        <mxCell id="C6_vnJyK-bcxYRQT8Ih0-467" value="Update Profile" style="rounded=1;whiteSpace=wrap;html=1;" vertex="1" parent="1">
          <mxGeometry x="2015" y="1750" width="100" height="30" as="geometry" />
        </mxCell>
        <mxCell id="C6_vnJyK-bcxYRQT8Ih0-468" value="" style="edgeStyle=orthogonalEdgeStyle;rounded=0;orthogonalLoop=1;jettySize=auto;html=1;" edge="1" parent="1" source="C6_vnJyK-bcxYRQT8Ih0-469" target="C6_vnJyK-bcxYRQT8Ih0-470">
          <mxGeometry relative="1" as="geometry" />
        </mxCell>
        <mxCell id="C6_vnJyK-bcxYRQT8Ih0-469" value="Edit Password" style="rounded=1;whiteSpace=wrap;html=1;" vertex="1" parent="1">
          <mxGeometry x="1860" y="1800" width="100" height="30" as="geometry" />
        </mxCell>
        <mxCell id="C6_vnJyK-bcxYRQT8Ih0-470" value="change password" style="rhombus;whiteSpace=wrap;html=1;" vertex="1" parent="1">
          <mxGeometry x="1877.5" y="1850" width="65" height="70" as="geometry" />
        </mxCell>
        <mxCell id="C6_vnJyK-bcxYRQT8Ih0-471" value="" style="endArrow=classic;html=1;rounded=0;exitX=0;exitY=0.5;exitDx=0;exitDy=0;entryX=0;entryY=0.5;entryDx=0;entryDy=0;" edge="1" parent="1" source="C6_vnJyK-bcxYRQT8Ih0-470" target="C6_vnJyK-bcxYRQT8Ih0-465">
          <mxGeometry width="50" height="50" relative="1" as="geometry">
            <mxPoint x="1805" y="1890" as="sourcePoint" />
            <mxPoint x="1805" y="1770" as="targetPoint" />
            <Array as="points">
              <mxPoint x="1835" y="1885" />
              <mxPoint x="1835" y="1765" />
            </Array>
          </mxGeometry>
        </mxCell>
        <mxCell id="C6_vnJyK-bcxYRQT8Ih0-472" value="&lt;font style=&quot;font-size: 10px;&quot;&gt;no&lt;/font&gt;" style="text;html=1;align=center;verticalAlign=middle;resizable=0;points=[];autosize=1;strokeColor=none;fillColor=none;" vertex="1" parent="1">
          <mxGeometry x="1810" y="1830" width="30" height="30" as="geometry" />
        </mxCell>
        <mxCell id="C6_vnJyK-bcxYRQT8Ih0-475" value="" style="edgeStyle=orthogonalEdgeStyle;rounded=0;orthogonalLoop=1;jettySize=auto;html=1;" edge="1" parent="1" source="C6_vnJyK-bcxYRQT8Ih0-476" target="C6_vnJyK-bcxYRQT8Ih0-478">
          <mxGeometry relative="1" as="geometry" />
        </mxCell>
        <mxCell id="C6_vnJyK-bcxYRQT8Ih0-476" value="Display Form" style="rounded=1;whiteSpace=wrap;html=1;" vertex="1" parent="1">
          <mxGeometry x="2015" y="1800" width="100" height="30" as="geometry" />
        </mxCell>
        <mxCell id="C6_vnJyK-bcxYRQT8Ih0-477" value="" style="edgeStyle=orthogonalEdgeStyle;rounded=0;orthogonalLoop=1;jettySize=auto;html=1;" edge="1" parent="1" source="C6_vnJyK-bcxYRQT8Ih0-478" target="C6_vnJyK-bcxYRQT8Ih0-479">
          <mxGeometry relative="1" as="geometry" />
        </mxCell>
        <mxCell id="C6_vnJyK-bcxYRQT8Ih0-478" value="Edit Data Details" style="rounded=1;whiteSpace=wrap;html=1;" vertex="1" parent="1">
          <mxGeometry x="2015" y="1850" width="100" height="30" as="geometry" />
        </mxCell>
        <mxCell id="C6_vnJyK-bcxYRQT8Ih0-479" value="Data Complete" style="rhombus;whiteSpace=wrap;html=1;" vertex="1" parent="1">
          <mxGeometry x="2032.5" y="1900" width="65" height="70" as="geometry" />
        </mxCell>
        <mxCell id="C6_vnJyK-bcxYRQT8Ih0-480" value="" style="endArrow=classic;html=1;rounded=0;exitX=0;exitY=0.5;exitDx=0;exitDy=0;entryX=0;entryY=0.5;entryDx=0;entryDy=0;" edge="1" parent="1" source="C6_vnJyK-bcxYRQT8Ih0-479">
          <mxGeometry width="50" height="50" relative="1" as="geometry">
            <mxPoint x="2032.5" y="1985" as="sourcePoint" />
            <mxPoint x="2014.5" y="1865" as="targetPoint" />
            <Array as="points">
              <mxPoint x="1990" y="1935" />
              <mxPoint x="1989.5" y="1865" />
            </Array>
          </mxGeometry>
        </mxCell>
        <mxCell id="C6_vnJyK-bcxYRQT8Ih0-481" value="&lt;font style=&quot;font-size: 10px;&quot;&gt;no&lt;/font&gt;" style="text;html=1;align=center;verticalAlign=middle;resizable=0;points=[];autosize=1;strokeColor=none;fillColor=none;" vertex="1" parent="1">
          <mxGeometry x="1985" y="1900" width="30" height="30" as="geometry" />
        </mxCell>
        <mxCell id="C6_vnJyK-bcxYRQT8Ih0-482" value="Save Changes" style="rounded=1;whiteSpace=wrap;html=1;" vertex="1" parent="1">
          <mxGeometry x="1927.5" y="2050" width="85" height="30" as="geometry" />
        </mxCell>
        <mxCell id="C6_vnJyK-bcxYRQT8Ih0-483" value="" style="endArrow=classic;html=1;rounded=0;exitX=0.5;exitY=1;exitDx=0;exitDy=0;entryX=0;entryY=0.5;entryDx=0;entryDy=0;" edge="1" parent="1" source="C6_vnJyK-bcxYRQT8Ih0-470" target="C6_vnJyK-bcxYRQT8Ih0-482">
          <mxGeometry width="50" height="50" relative="1" as="geometry">
            <mxPoint x="1935" y="1990" as="sourcePoint" />
            <mxPoint x="1910" y="2070" as="targetPoint" />
            <Array as="points">
              <mxPoint x="1910" y="2065" />
            </Array>
          </mxGeometry>
        </mxCell>
        <mxCell id="C6_vnJyK-bcxYRQT8Ih0-484" value="" style="endArrow=classic;html=1;rounded=0;exitX=0.5;exitY=1;exitDx=0;exitDy=0;entryX=1;entryY=0.5;entryDx=0;entryDy=0;" edge="1" parent="1" source="C6_vnJyK-bcxYRQT8Ih0-479" target="C6_vnJyK-bcxYRQT8Ih0-482">
          <mxGeometry width="50" height="50" relative="1" as="geometry">
            <mxPoint x="1945" y="2060" as="sourcePoint" />
            <mxPoint x="2065" y="2070" as="targetPoint" />
            <Array as="points">
              <mxPoint x="2065" y="2065" />
            </Array>
          </mxGeometry>
        </mxCell>
        <mxCell id="C6_vnJyK-bcxYRQT8Ih0-485" value="&lt;font style=&quot;font-size: 10px;&quot;&gt;yes&lt;/font&gt;" style="text;html=1;align=center;verticalAlign=middle;resizable=0;points=[];autosize=1;strokeColor=none;fillColor=none;" vertex="1" parent="1">
          <mxGeometry x="2030" y="2038" width="40" height="30" as="geometry" />
        </mxCell>
        <mxCell id="C6_vnJyK-bcxYRQT8Ih0-486" value="&lt;font style=&quot;font-size: 10px;&quot;&gt;yes&lt;/font&gt;" style="text;html=1;align=center;verticalAlign=middle;resizable=0;points=[];autosize=1;strokeColor=none;fillColor=none;" vertex="1" parent="1">
          <mxGeometry x="1875" y="2020" width="40" height="30" as="geometry" />
        </mxCell>
        <mxCell id="C6_vnJyK-bcxYRQT8Ih0-487" value="" style="endArrow=classic;html=1;rounded=0;exitX=0.5;exitY=1;exitDx=0;exitDy=0;" edge="1" parent="1" source="C6_vnJyK-bcxYRQT8Ih0-482">
          <mxGeometry width="50" height="50" relative="1" as="geometry">
            <mxPoint x="1965" y="2150" as="sourcePoint" />
            <mxPoint x="1970" y="2100" as="targetPoint" />
          </mxGeometry>
        </mxCell>
        <mxCell id="C6_vnJyK-bcxYRQT8Ih0-488" value="End" style="ellipse;whiteSpace=wrap;html=1;fillColor=#FF6666;" vertex="1" parent="1">
          <mxGeometry x="1915" y="2100" width="110" height="60" as="geometry" />
        </mxCell>
        <mxCell id="C6_vnJyK-bcxYRQT8Ih0-489" value="" style="group" vertex="1" connectable="0" parent="1">
          <mxGeometry x="1860" y="1350" width="335" height="380" as="geometry" />
        </mxCell>
        <mxCell id="C6_vnJyK-bcxYRQT8Ih0-442" value="Start" style="ellipse;whiteSpace=wrap;html=1;fillColor=#FF6666;" vertex="1" parent="C6_vnJyK-bcxYRQT8Ih0-489">
          <mxGeometry x="55" width="110" height="60" as="geometry" />
        </mxCell>
        <mxCell id="C6_vnJyK-bcxYRQT8Ih0-443" value="Login" style="rounded=1;whiteSpace=wrap;html=1;" vertex="1" parent="C6_vnJyK-bcxYRQT8Ih0-489">
          <mxGeometry x="235" y="80" width="100" height="30" as="geometry" />
        </mxCell>
        <mxCell id="C6_vnJyK-bcxYRQT8Ih0-444" value="" style="edgeStyle=orthogonalEdgeStyle;rounded=0;orthogonalLoop=1;jettySize=auto;html=1;" edge="1" parent="C6_vnJyK-bcxYRQT8Ih0-489" source="C6_vnJyK-bcxYRQT8Ih0-445" target="C6_vnJyK-bcxYRQT8Ih0-448">
          <mxGeometry relative="1" as="geometry" />
        </mxCell>
        <mxCell id="C6_vnJyK-bcxYRQT8Ih0-445" value="Dashboard" style="rounded=1;whiteSpace=wrap;html=1;" vertex="1" parent="C6_vnJyK-bcxYRQT8Ih0-489">
          <mxGeometry x="65" y="130" width="120" height="50" as="geometry" />
        </mxCell>
        <mxCell id="C6_vnJyK-bcxYRQT8Ih0-446" value="" style="endArrow=classic;html=1;rounded=0;exitX=1;exitY=0.5;exitDx=0;exitDy=0;" edge="1" parent="C6_vnJyK-bcxYRQT8Ih0-489" source="C6_vnJyK-bcxYRQT8Ih0-442">
          <mxGeometry width="50" height="50" relative="1" as="geometry">
            <mxPoint x="205" y="70" as="sourcePoint" />
            <mxPoint x="285" y="80" as="targetPoint" />
            <Array as="points">
              <mxPoint x="285" y="30" />
            </Array>
          </mxGeometry>
        </mxCell>
        <mxCell id="C6_vnJyK-bcxYRQT8Ih0-447" value="" style="endArrow=classic;html=1;rounded=0;exitX=0;exitY=0.5;exitDx=0;exitDy=0;entryX=0.5;entryY=0;entryDx=0;entryDy=0;" edge="1" parent="C6_vnJyK-bcxYRQT8Ih0-489" source="C6_vnJyK-bcxYRQT8Ih0-443" target="C6_vnJyK-bcxYRQT8Ih0-445">
          <mxGeometry width="50" height="50" relative="1" as="geometry">
            <mxPoint x="145" y="130" as="sourcePoint" />
            <mxPoint x="125" y="95" as="targetPoint" />
            <Array as="points">
              <mxPoint x="125" y="95" />
            </Array>
          </mxGeometry>
        </mxCell>
        <mxCell id="C6_vnJyK-bcxYRQT8Ih0-448" value="Access User" style="rhombus;whiteSpace=wrap;html=1;" vertex="1" parent="C6_vnJyK-bcxYRQT8Ih0-489">
          <mxGeometry x="90" y="210" width="70" height="70" as="geometry" />
        </mxCell>
        <mxCell id="C6_vnJyK-bcxYRQT8Ih0-449" value="" style="endArrow=classic;html=1;rounded=0;exitX=0;exitY=0.5;exitDx=0;exitDy=0;entryX=0;entryY=0.6;entryDx=0;entryDy=0;entryPerimeter=0;" edge="1" parent="C6_vnJyK-bcxYRQT8Ih0-489" source="C6_vnJyK-bcxYRQT8Ih0-448" target="C6_vnJyK-bcxYRQT8Ih0-445">
          <mxGeometry width="50" height="50" relative="1" as="geometry">
            <mxPoint x="-15" y="245" as="sourcePoint" />
            <mxPoint x="25" y="150" as="targetPoint" />
            <Array as="points">
              <mxPoint x="25" y="245" />
              <mxPoint x="25" y="160" />
            </Array>
          </mxGeometry>
        </mxCell>
        <mxCell id="C6_vnJyK-bcxYRQT8Ih0-450" value="&lt;font style=&quot;font-size: 10px;&quot;&gt;no&lt;/font&gt;" style="text;html=1;align=center;verticalAlign=middle;resizable=0;points=[];autosize=1;strokeColor=none;fillColor=none;" vertex="1" parent="C6_vnJyK-bcxYRQT8Ih0-489">
          <mxGeometry y="188" width="30" height="30" as="geometry" />
        </mxCell>
        <mxCell id="C6_vnJyK-bcxYRQT8Ih0-451" value="" style="endArrow=classic;html=1;rounded=0;" edge="1" parent="C6_vnJyK-bcxYRQT8Ih0-489">
          <mxGeometry width="50" height="50" relative="1" as="geometry">
            <mxPoint x="160" y="245" as="sourcePoint" />
            <mxPoint x="210" y="245" as="targetPoint" />
          </mxGeometry>
        </mxCell>
        <mxCell id="C6_vnJyK-bcxYRQT8Ih0-452" value="&lt;font style=&quot;font-size: 10px;&quot;&gt;yes&lt;/font&gt;" style="text;html=1;align=center;verticalAlign=middle;resizable=0;points=[];autosize=1;strokeColor=none;fillColor=none;" vertex="1" parent="C6_vnJyK-bcxYRQT8Ih0-489">
          <mxGeometry x="165" y="210" width="40" height="30" as="geometry" />
        </mxCell>
        <mxCell id="C6_vnJyK-bcxYRQT8Ih0-453" value="My Account" style="rounded=1;whiteSpace=wrap;html=1;" vertex="1" parent="C6_vnJyK-bcxYRQT8Ih0-489">
          <mxGeometry x="210" y="232" width="80" height="26" as="geometry" />
        </mxCell>
        <mxCell id="C6_vnJyK-bcxYRQT8Ih0-454" value="" style="endArrow=classic;html=1;rounded=0;exitX=0.5;exitY=1;exitDx=0;exitDy=0;" edge="1" parent="C6_vnJyK-bcxYRQT8Ih0-489" source="C6_vnJyK-bcxYRQT8Ih0-453">
          <mxGeometry width="50" height="50" relative="1" as="geometry">
            <mxPoint x="205" y="350" as="sourcePoint" />
            <mxPoint x="125" y="330" as="targetPoint" />
            <Array as="points">
              <mxPoint x="250" y="310" />
              <mxPoint x="125" y="310" />
            </Array>
          </mxGeometry>
        </mxCell>
        <mxCell id="C6_vnJyK-bcxYRQT8Ih0-455" value="Manage Account" style="rounded=1;whiteSpace=wrap;html=1;" vertex="1" parent="C6_vnJyK-bcxYRQT8Ih0-489">
          <mxGeometry x="75" y="330" width="100" height="30" as="geometry" />
        </mxCell>
        <mxCell id="C6_vnJyK-bcxYRQT8Ih0-456" value="" style="endArrow=classic;html=1;rounded=0;exitX=0.5;exitY=1;exitDx=0;exitDy=0;" edge="1" parent="C6_vnJyK-bcxYRQT8Ih0-489" source="C6_vnJyK-bcxYRQT8Ih0-455">
          <mxGeometry width="50" height="50" relative="1" as="geometry">
            <mxPoint x="100" y="460" as="sourcePoint" />
            <mxPoint x="125" y="380" as="targetPoint" />
          </mxGeometry>
        </mxCell>
        <mxCell id="C6_vnJyK-bcxYRQT8Ih0-490" value="" style="group" vertex="1" connectable="0" parent="1">
          <mxGeometry x="3630" y="150" width="410" height="820" as="geometry" />
        </mxCell>
        <mxCell id="C6_vnJyK-bcxYRQT8Ih0-491" value="" style="endArrow=none;html=1;rounded=0;" edge="1" parent="C6_vnJyK-bcxYRQT8Ih0-490">
          <mxGeometry width="50" height="50" relative="1" as="geometry">
            <mxPoint x="80" y="375" as="sourcePoint" />
            <mxPoint x="340" y="375" as="targetPoint" />
          </mxGeometry>
        </mxCell>
        <mxCell id="C6_vnJyK-bcxYRQT8Ih0-492" value="" style="edgeStyle=orthogonalEdgeStyle;rounded=0;orthogonalLoop=1;jettySize=auto;html=1;" edge="1" parent="C6_vnJyK-bcxYRQT8Ih0-490">
          <mxGeometry relative="1" as="geometry">
            <mxPoint x="209.6300000000001" y="375" as="sourcePoint" />
            <mxPoint x="209.6300000000001" y="395" as="targetPoint" />
          </mxGeometry>
        </mxCell>
        <mxCell id="C6_vnJyK-bcxYRQT8Ih0-493" value="Update Section" style="whiteSpace=wrap;html=1;rounded=1;" vertex="1" parent="C6_vnJyK-bcxYRQT8Ih0-490">
          <mxGeometry x="160" y="395" width="100" height="30" as="geometry" />
        </mxCell>
        <mxCell id="C6_vnJyK-bcxYRQT8Ih0-494" value="Delete Section" style="whiteSpace=wrap;html=1;rounded=1;" vertex="1" parent="C6_vnJyK-bcxYRQT8Ih0-490">
          <mxGeometry x="290" y="395" width="100" height="30" as="geometry" />
        </mxCell>
        <mxCell id="C6_vnJyK-bcxYRQT8Ih0-495" value="&lt;font style=&quot;font-size: 12px;&quot;&gt;Add Section&lt;/font&gt;" style="whiteSpace=wrap;html=1;rounded=1;" vertex="1" parent="C6_vnJyK-bcxYRQT8Ih0-490">
          <mxGeometry x="30" y="395" width="100" height="30" as="geometry" />
        </mxCell>
        <mxCell id="C6_vnJyK-bcxYRQT8Ih0-496" value="" style="edgeStyle=orthogonalEdgeStyle;rounded=0;orthogonalLoop=1;jettySize=auto;html=1;" edge="1" parent="C6_vnJyK-bcxYRQT8Ih0-490">
          <mxGeometry relative="1" as="geometry">
            <mxPoint x="339" y="375" as="sourcePoint" />
            <mxPoint x="339" y="395" as="targetPoint" />
          </mxGeometry>
        </mxCell>
        <mxCell id="C6_vnJyK-bcxYRQT8Ih0-497" value="" style="edgeStyle=orthogonalEdgeStyle;rounded=0;orthogonalLoop=1;jettySize=auto;html=1;" edge="1" parent="C6_vnJyK-bcxYRQT8Ih0-490">
          <mxGeometry relative="1" as="geometry">
            <mxPoint x="79.63000000000011" y="375" as="sourcePoint" />
            <mxPoint x="79.63000000000011" y="395" as="targetPoint" />
          </mxGeometry>
        </mxCell>
        <mxCell id="C6_vnJyK-bcxYRQT8Ih0-498" value="" style="edgeStyle=orthogonalEdgeStyle;rounded=0;orthogonalLoop=1;jettySize=auto;html=1;fontStyle=4" edge="1" parent="C6_vnJyK-bcxYRQT8Ih0-490" source="C6_vnJyK-bcxYRQT8Ih0-499" target="C6_vnJyK-bcxYRQT8Ih0-503">
          <mxGeometry relative="1" as="geometry" />
        </mxCell>
        <mxCell id="C6_vnJyK-bcxYRQT8Ih0-499" value="Display Form" style="rounded=1;whiteSpace=wrap;html=1;" vertex="1" parent="C6_vnJyK-bcxYRQT8Ih0-490">
          <mxGeometry x="30" y="445" width="100" height="30" as="geometry" />
        </mxCell>
        <mxCell id="C6_vnJyK-bcxYRQT8Ih0-500" value="" style="edgeStyle=orthogonalEdgeStyle;rounded=0;orthogonalLoop=1;jettySize=auto;html=1;" edge="1" parent="C6_vnJyK-bcxYRQT8Ih0-490">
          <mxGeometry relative="1" as="geometry">
            <mxPoint x="79.63000000000011" y="425" as="sourcePoint" />
            <mxPoint x="79.63000000000011" y="445" as="targetPoint" />
          </mxGeometry>
        </mxCell>
        <mxCell id="C6_vnJyK-bcxYRQT8Ih0-501" value="Input Data" style="rounded=1;whiteSpace=wrap;html=1;" vertex="1" parent="C6_vnJyK-bcxYRQT8Ih0-490">
          <mxGeometry x="30" y="495" width="100" height="30" as="geometry" />
        </mxCell>
        <mxCell id="C6_vnJyK-bcxYRQT8Ih0-502" value="" style="edgeStyle=orthogonalEdgeStyle;rounded=0;orthogonalLoop=1;jettySize=auto;html=1;" edge="1" parent="C6_vnJyK-bcxYRQT8Ih0-490">
          <mxGeometry relative="1" as="geometry">
            <mxPoint x="79.63000000000011" y="475" as="sourcePoint" />
            <mxPoint x="79.63000000000011" y="495" as="targetPoint" />
          </mxGeometry>
        </mxCell>
        <mxCell id="C6_vnJyK-bcxYRQT8Ih0-503" value="Data Complete" style="rhombus;whiteSpace=wrap;html=1;" vertex="1" parent="C6_vnJyK-bcxYRQT8Ih0-490">
          <mxGeometry x="47.5" y="545" width="65" height="70" as="geometry" />
        </mxCell>
        <mxCell id="C6_vnJyK-bcxYRQT8Ih0-504" value="" style="endArrow=classic;html=1;rounded=0;exitX=0;exitY=0.5;exitDx=0;exitDy=0;entryX=-0.016;entryY=0.672;entryDx=0;entryDy=0;entryPerimeter=0;" edge="1" parent="C6_vnJyK-bcxYRQT8Ih0-490">
          <mxGeometry width="50" height="50" relative="1" as="geometry">
            <mxPoint x="47.5" y="577.5" as="sourcePoint" />
            <mxPoint x="27.5" y="462.5" as="targetPoint" />
            <Array as="points">
              <mxPoint x="1.5" y="577.5" />
              <mxPoint x="1.5" y="462.5" />
            </Array>
          </mxGeometry>
        </mxCell>
        <mxCell id="C6_vnJyK-bcxYRQT8Ih0-505" value="&lt;font style=&quot;font-size: 10px;&quot;&gt;no&lt;/font&gt;" style="text;html=1;align=center;verticalAlign=middle;resizable=0;points=[];autosize=1;strokeColor=none;fillColor=none;" vertex="1" parent="C6_vnJyK-bcxYRQT8Ih0-490">
          <mxGeometry y="525" width="30" height="30" as="geometry" />
        </mxCell>
        <mxCell id="C6_vnJyK-bcxYRQT8Ih0-506" value="Select Section" style="rounded=1;whiteSpace=wrap;html=1;" vertex="1" parent="C6_vnJyK-bcxYRQT8Ih0-490">
          <mxGeometry x="160" y="445" width="100" height="30" as="geometry" />
        </mxCell>
        <mxCell id="C6_vnJyK-bcxYRQT8Ih0-507" value="" style="edgeStyle=orthogonalEdgeStyle;rounded=0;orthogonalLoop=1;jettySize=auto;html=1;" edge="1" parent="C6_vnJyK-bcxYRQT8Ih0-490">
          <mxGeometry relative="1" as="geometry">
            <mxPoint x="209.57000000000016" y="425" as="sourcePoint" />
            <mxPoint x="209.57000000000016" y="445" as="targetPoint" />
          </mxGeometry>
        </mxCell>
        <mxCell id="C6_vnJyK-bcxYRQT8Ih0-508" value="Select Section" style="rounded=1;whiteSpace=wrap;html=1;" vertex="1" parent="C6_vnJyK-bcxYRQT8Ih0-490">
          <mxGeometry x="290" y="445" width="100" height="30" as="geometry" />
        </mxCell>
        <mxCell id="C6_vnJyK-bcxYRQT8Ih0-509" value="" style="edgeStyle=orthogonalEdgeStyle;rounded=0;orthogonalLoop=1;jettySize=auto;html=1;" edge="1" parent="C6_vnJyK-bcxYRQT8Ih0-490">
          <mxGeometry relative="1" as="geometry">
            <mxPoint x="339" y="425" as="sourcePoint" />
            <mxPoint x="339" y="445" as="targetPoint" />
          </mxGeometry>
        </mxCell>
        <mxCell id="C6_vnJyK-bcxYRQT8Ih0-510" value="" style="edgeStyle=orthogonalEdgeStyle;rounded=0;orthogonalLoop=1;jettySize=auto;html=1;" edge="1" parent="C6_vnJyK-bcxYRQT8Ih0-490">
          <mxGeometry relative="1" as="geometry">
            <mxPoint x="339" y="475" as="sourcePoint" />
            <mxPoint x="339" y="495" as="targetPoint" />
          </mxGeometry>
        </mxCell>
        <mxCell id="C6_vnJyK-bcxYRQT8Ih0-511" value="" style="edgeStyle=orthogonalEdgeStyle;rounded=0;orthogonalLoop=1;jettySize=auto;html=1;" edge="1" parent="C6_vnJyK-bcxYRQT8Ih0-490">
          <mxGeometry relative="1" as="geometry">
            <mxPoint x="209.57000000000016" y="475" as="sourcePoint" />
            <mxPoint x="209.57000000000016" y="495" as="targetPoint" />
          </mxGeometry>
        </mxCell>
        <mxCell id="C6_vnJyK-bcxYRQT8Ih0-512" value="Display Form" style="rounded=1;whiteSpace=wrap;html=1;" vertex="1" parent="C6_vnJyK-bcxYRQT8Ih0-490">
          <mxGeometry x="160" y="495" width="100" height="30" as="geometry" />
        </mxCell>
        <mxCell id="C6_vnJyK-bcxYRQT8Ih0-513" value="" style="edgeStyle=orthogonalEdgeStyle;rounded=0;orthogonalLoop=1;jettySize=auto;html=1;" edge="1" parent="C6_vnJyK-bcxYRQT8Ih0-490" source="C6_vnJyK-bcxYRQT8Ih0-514" target="C6_vnJyK-bcxYRQT8Ih0-518">
          <mxGeometry relative="1" as="geometry" />
        </mxCell>
        <mxCell id="C6_vnJyK-bcxYRQT8Ih0-514" value="Save Changes" style="rounded=1;whiteSpace=wrap;html=1;" vertex="1" parent="C6_vnJyK-bcxYRQT8Ih0-490">
          <mxGeometry x="175" y="700" width="85" height="30" as="geometry" />
        </mxCell>
        <mxCell id="C6_vnJyK-bcxYRQT8Ih0-515" value="" style="endArrow=classic;html=1;rounded=0;exitX=0.5;exitY=1;exitDx=0;exitDy=0;entryX=0;entryY=0.5;entryDx=0;entryDy=0;fontStyle=4" edge="1" parent="C6_vnJyK-bcxYRQT8Ih0-490" source="C6_vnJyK-bcxYRQT8Ih0-503" target="C6_vnJyK-bcxYRQT8Ih0-514">
          <mxGeometry width="50" height="50" relative="1" as="geometry">
            <mxPoint x="72.5" y="615" as="sourcePoint" />
            <mxPoint x="160" y="660" as="targetPoint" />
            <Array as="points">
              <mxPoint x="80" y="715" />
            </Array>
          </mxGeometry>
        </mxCell>
        <mxCell id="C6_vnJyK-bcxYRQT8Ih0-516" value="&lt;font style=&quot;font-size: 10px;&quot;&gt;yes&lt;/font&gt;" style="text;html=1;align=center;verticalAlign=middle;resizable=0;points=[];autosize=1;strokeColor=none;fillColor=none;" vertex="1" parent="C6_vnJyK-bcxYRQT8Ih0-490">
          <mxGeometry x="80" y="680" width="40" height="30" as="geometry" />
        </mxCell>
        <mxCell id="C6_vnJyK-bcxYRQT8Ih0-517" value="" style="endArrow=classic;html=1;rounded=0;entryX=1;entryY=0.5;entryDx=0;entryDy=0;fontStyle=4;exitX=0.5;exitY=1;exitDx=0;exitDy=0;" edge="1" parent="C6_vnJyK-bcxYRQT8Ih0-490" source="C6_vnJyK-bcxYRQT8Ih0-535" target="C6_vnJyK-bcxYRQT8Ih0-514">
          <mxGeometry width="50" height="50" relative="1" as="geometry">
            <mxPoint x="337.5" y="565" as="sourcePoint" />
            <mxPoint x="250" y="625" as="targetPoint" />
            <Array as="points">
              <mxPoint x="340" y="715" />
            </Array>
          </mxGeometry>
        </mxCell>
        <mxCell id="C6_vnJyK-bcxYRQT8Ih0-518" value="End" style="ellipse;whiteSpace=wrap;html=1;fillColor=#FF6666;" vertex="1" parent="C6_vnJyK-bcxYRQT8Ih0-490">
          <mxGeometry x="162.5" y="760" width="110" height="60" as="geometry" />
        </mxCell>
        <mxCell id="C6_vnJyK-bcxYRQT8Ih0-519" value="" style="endArrow=classic;html=1;rounded=0;entryX=0.5;entryY=0;entryDx=0;entryDy=0;" edge="1" parent="C6_vnJyK-bcxYRQT8Ih0-490">
          <mxGeometry width="50" height="50" relative="1" as="geometry">
            <mxPoint x="209.87999999999965" y="670" as="sourcePoint" />
            <mxPoint x="209.63999999999987" y="700" as="targetPoint" />
          </mxGeometry>
        </mxCell>
        <mxCell id="C6_vnJyK-bcxYRQT8Ih0-520" value="" style="group" vertex="1" connectable="0" parent="C6_vnJyK-bcxYRQT8Ih0-490">
          <mxGeometry x="100" width="310" height="380" as="geometry" />
        </mxCell>
        <mxCell id="C6_vnJyK-bcxYRQT8Ih0-521" value="Start" style="ellipse;whiteSpace=wrap;html=1;fillColor=#FF6666;" vertex="1" parent="C6_vnJyK-bcxYRQT8Ih0-520">
          <mxGeometry x="30" width="110" height="60" as="geometry" />
        </mxCell>
        <mxCell id="C6_vnJyK-bcxYRQT8Ih0-522" value="" style="endArrow=classic;html=1;rounded=0;exitX=1;exitY=0.5;exitDx=0;exitDy=0;" edge="1" parent="C6_vnJyK-bcxYRQT8Ih0-520">
          <mxGeometry width="50" height="50" relative="1" as="geometry">
            <mxPoint x="140" y="40" as="sourcePoint" />
            <mxPoint x="260" y="90" as="targetPoint" />
            <Array as="points">
              <mxPoint x="260" y="40" />
            </Array>
          </mxGeometry>
        </mxCell>
        <mxCell id="C6_vnJyK-bcxYRQT8Ih0-523" value="Login" style="rounded=1;whiteSpace=wrap;html=1;" vertex="1" parent="C6_vnJyK-bcxYRQT8Ih0-520">
          <mxGeometry x="210" y="90" width="100" height="30" as="geometry" />
        </mxCell>
        <mxCell id="C6_vnJyK-bcxYRQT8Ih0-524" value="" style="endArrow=classic;html=1;rounded=0;exitX=0;exitY=0.5;exitDx=0;exitDy=0;entryX=0.5;entryY=0;entryDx=0;entryDy=0;" edge="1" parent="C6_vnJyK-bcxYRQT8Ih0-520">
          <mxGeometry width="50" height="50" relative="1" as="geometry">
            <mxPoint x="210" y="105" as="sourcePoint" />
            <mxPoint x="100" y="140" as="targetPoint" />
            <Array as="points">
              <mxPoint x="100" y="105" />
            </Array>
          </mxGeometry>
        </mxCell>
        <mxCell id="C6_vnJyK-bcxYRQT8Ih0-525" value="" style="edgeStyle=orthogonalEdgeStyle;rounded=0;orthogonalLoop=1;jettySize=auto;html=1;fontStyle=4" edge="1" parent="C6_vnJyK-bcxYRQT8Ih0-520" source="C6_vnJyK-bcxYRQT8Ih0-526" target="C6_vnJyK-bcxYRQT8Ih0-528">
          <mxGeometry relative="1" as="geometry" />
        </mxCell>
        <mxCell id="C6_vnJyK-bcxYRQT8Ih0-526" value="Dashboard" style="rounded=1;whiteSpace=wrap;html=1;" vertex="1" parent="C6_vnJyK-bcxYRQT8Ih0-520">
          <mxGeometry x="40" y="140" width="120" height="52" as="geometry" />
        </mxCell>
        <mxCell id="C6_vnJyK-bcxYRQT8Ih0-527" value="" style="endArrow=classic;html=1;rounded=0;exitX=0;exitY=0.5;exitDx=0;exitDy=0;entryX=0;entryY=0.6;entryDx=0;entryDy=0;entryPerimeter=0;" edge="1" parent="C6_vnJyK-bcxYRQT8Ih0-520">
          <mxGeometry width="50" height="50" relative="1" as="geometry">
            <mxPoint x="65" y="248" as="sourcePoint" />
            <mxPoint x="40" y="163" as="targetPoint" />
            <Array as="points">
              <mxPoint y="248" />
              <mxPoint y="163" />
            </Array>
          </mxGeometry>
        </mxCell>
        <mxCell id="C6_vnJyK-bcxYRQT8Ih0-528" value="Access User" style="rhombus;whiteSpace=wrap;html=1;" vertex="1" parent="C6_vnJyK-bcxYRQT8Ih0-520">
          <mxGeometry x="65" y="210" width="70" height="70" as="geometry" />
        </mxCell>
        <mxCell id="C6_vnJyK-bcxYRQT8Ih0-529" value="Section" style="rounded=1;whiteSpace=wrap;html=1;" vertex="1" parent="C6_vnJyK-bcxYRQT8Ih0-520">
          <mxGeometry x="190" y="232" width="80" height="26" as="geometry" />
        </mxCell>
        <mxCell id="C6_vnJyK-bcxYRQT8Ih0-530" value="" style="endArrow=classic;html=1;rounded=0;entryX=0;entryY=0.5;entryDx=0;entryDy=0;" edge="1" parent="C6_vnJyK-bcxYRQT8Ih0-520">
          <mxGeometry width="50" height="50" relative="1" as="geometry">
            <mxPoint x="135" y="244.70000000000005" as="sourcePoint" />
            <mxPoint x="190" y="244.82000000000005" as="targetPoint" />
            <Array as="points">
              <mxPoint x="170" y="244.99000000000007" />
            </Array>
          </mxGeometry>
        </mxCell>
        <mxCell id="C6_vnJyK-bcxYRQT8Ih0-531" value="" style="endArrow=classic;html=1;rounded=0;exitX=0.5;exitY=1;exitDx=0;exitDy=0;" edge="1" parent="C6_vnJyK-bcxYRQT8Ih0-520">
          <mxGeometry width="50" height="50" relative="1" as="geometry">
            <mxPoint x="235" y="258" as="sourcePoint" />
            <mxPoint x="110" y="330" as="targetPoint" />
            <Array as="points">
              <mxPoint x="235" y="310" />
              <mxPoint x="110" y="310" />
            </Array>
          </mxGeometry>
        </mxCell>
        <mxCell id="C6_vnJyK-bcxYRQT8Ih0-532" value="" style="edgeStyle=orthogonalEdgeStyle;rounded=0;orthogonalLoop=1;jettySize=auto;html=1;fontStyle=4" edge="1" parent="C6_vnJyK-bcxYRQT8Ih0-520" source="C6_vnJyK-bcxYRQT8Ih0-533">
          <mxGeometry relative="1" as="geometry">
            <mxPoint x="110" y="380" as="targetPoint" />
          </mxGeometry>
        </mxCell>
        <mxCell id="C6_vnJyK-bcxYRQT8Ih0-533" value="Manage Section" style="rounded=1;whiteSpace=wrap;html=1;" vertex="1" parent="C6_vnJyK-bcxYRQT8Ih0-520">
          <mxGeometry x="60" y="330" width="100" height="30" as="geometry" />
        </mxCell>
        <mxCell id="C6_vnJyK-bcxYRQT8Ih0-534" value="Data Complete" style="rhombus;whiteSpace=wrap;html=1;" vertex="1" parent="C6_vnJyK-bcxYRQT8Ih0-490">
          <mxGeometry x="177.5" y="600" width="65" height="70" as="geometry" />
        </mxCell>
        <mxCell id="C6_vnJyK-bcxYRQT8Ih0-535" value="delete section" style="rhombus;whiteSpace=wrap;html=1;" vertex="1" parent="C6_vnJyK-bcxYRQT8Ih0-490">
          <mxGeometry x="307.5" y="495" width="65" height="70" as="geometry" />
        </mxCell>
        <mxCell id="C6_vnJyK-bcxYRQT8Ih0-536" value="" style="edgeStyle=orthogonalEdgeStyle;rounded=0;orthogonalLoop=1;jettySize=auto;html=1;" edge="1" parent="C6_vnJyK-bcxYRQT8Ih0-490">
          <mxGeometry relative="1" as="geometry">
            <mxPoint x="209.74000000000024" y="525" as="sourcePoint" />
            <mxPoint x="209.74000000000024" y="545" as="targetPoint" />
          </mxGeometry>
        </mxCell>
        <mxCell id="C6_vnJyK-bcxYRQT8Ih0-537" value="Edit Data Details" style="rounded=1;whiteSpace=wrap;html=1;" vertex="1" parent="C6_vnJyK-bcxYRQT8Ih0-490">
          <mxGeometry x="160" y="545" width="100" height="30" as="geometry" />
        </mxCell>
        <mxCell id="C6_vnJyK-bcxYRQT8Ih0-538" value="" style="edgeStyle=orthogonalEdgeStyle;rounded=0;orthogonalLoop=1;jettySize=auto;html=1;entryX=0.479;entryY=0.033;entryDx=0;entryDy=0;entryPerimeter=0;" edge="1" parent="C6_vnJyK-bcxYRQT8Ih0-490" target="C6_vnJyK-bcxYRQT8Ih0-534">
          <mxGeometry relative="1" as="geometry">
            <mxPoint x="209.74000000000024" y="575" as="sourcePoint" />
            <mxPoint x="209.74000000000024" y="595" as="targetPoint" />
          </mxGeometry>
        </mxCell>
        <mxCell id="C6_vnJyK-bcxYRQT8Ih0-539" value="" style="endArrow=classic;html=1;rounded=0;exitX=0;exitY=0.5;exitDx=0;exitDy=0;" edge="1" parent="C6_vnJyK-bcxYRQT8Ih0-490">
          <mxGeometry width="50" height="50" relative="1" as="geometry">
            <mxPoint x="177.5" y="635" as="sourcePoint" />
            <mxPoint x="159" y="510" as="targetPoint" />
            <Array as="points">
              <mxPoint x="140" y="635" />
              <mxPoint x="140" y="510" />
            </Array>
          </mxGeometry>
        </mxCell>
        <mxCell id="C6_vnJyK-bcxYRQT8Ih0-540" value="&lt;font style=&quot;font-size: 10px;&quot;&gt;no&lt;/font&gt;" style="text;html=1;align=center;verticalAlign=middle;resizable=0;points=[];autosize=1;strokeColor=none;fillColor=none;" vertex="1" parent="C6_vnJyK-bcxYRQT8Ih0-490">
          <mxGeometry x="140" y="600" width="30" height="30" as="geometry" />
        </mxCell>
        <mxCell id="C6_vnJyK-bcxYRQT8Ih0-541" value="" style="endArrow=classic;html=1;rounded=0;exitX=0;exitY=0.5;exitDx=0;exitDy=0;entryX=0;entryY=0.5;entryDx=0;entryDy=0;" edge="1" parent="C6_vnJyK-bcxYRQT8Ih0-490" target="C6_vnJyK-bcxYRQT8Ih0-494">
          <mxGeometry width="50" height="50" relative="1" as="geometry">
            <mxPoint x="307.5" y="529.5" as="sourcePoint" />
            <mxPoint x="287.5" y="414.5" as="targetPoint" />
            <Array as="points">
              <mxPoint x="270" y="530" />
              <mxPoint x="270" y="410" />
            </Array>
          </mxGeometry>
        </mxCell>
        <mxCell id="C6_vnJyK-bcxYRQT8Ih0-542" value="&lt;font style=&quot;font-size: 10px;&quot;&gt;no&lt;/font&gt;" style="text;html=1;align=center;verticalAlign=middle;resizable=0;points=[];autosize=1;strokeColor=none;fillColor=none;" vertex="1" parent="C6_vnJyK-bcxYRQT8Ih0-490">
          <mxGeometry x="270" y="490" width="30" height="30" as="geometry" />
        </mxCell>
        <mxCell id="C6_vnJyK-bcxYRQT8Ih0-543" value="&lt;font style=&quot;font-size: 10px;&quot;&gt;yes&lt;/font&gt;" style="text;html=1;align=center;verticalAlign=middle;resizable=0;points=[];autosize=1;strokeColor=none;fillColor=none;" vertex="1" parent="C6_vnJyK-bcxYRQT8Ih0-490">
          <mxGeometry x="210" y="670" width="40" height="30" as="geometry" />
        </mxCell>
        <mxCell id="C6_vnJyK-bcxYRQT8Ih0-544" value="&lt;font style=&quot;font-size: 10px;&quot;&gt;yes&lt;/font&gt;" style="text;html=1;align=center;verticalAlign=middle;resizable=0;points=[];autosize=1;strokeColor=none;fillColor=none;" vertex="1" parent="C6_vnJyK-bcxYRQT8Ih0-490">
          <mxGeometry x="300" y="658" width="40" height="30" as="geometry" />
        </mxCell>
        <mxCell id="C6_vnJyK-bcxYRQT8Ih0-546" value="" style="group" vertex="1" connectable="0" parent="1">
          <mxGeometry x="4210" y="1170" width="410" height="820" as="geometry" />
        </mxCell>
        <mxCell id="C6_vnJyK-bcxYRQT8Ih0-547" value="" style="endArrow=none;html=1;rounded=0;" edge="1" parent="C6_vnJyK-bcxYRQT8Ih0-546">
          <mxGeometry width="50" height="50" relative="1" as="geometry">
            <mxPoint x="80" y="375" as="sourcePoint" />
            <mxPoint x="340" y="375" as="targetPoint" />
          </mxGeometry>
        </mxCell>
        <mxCell id="C6_vnJyK-bcxYRQT8Ih0-548" value="" style="edgeStyle=orthogonalEdgeStyle;rounded=0;orthogonalLoop=1;jettySize=auto;html=1;" edge="1" parent="C6_vnJyK-bcxYRQT8Ih0-546">
          <mxGeometry relative="1" as="geometry">
            <mxPoint x="209.6300000000001" y="375" as="sourcePoint" />
            <mxPoint x="209.6300000000001" y="395" as="targetPoint" />
          </mxGeometry>
        </mxCell>
        <mxCell id="C6_vnJyK-bcxYRQT8Ih0-549" value="Update Admin" style="whiteSpace=wrap;html=1;rounded=1;" vertex="1" parent="C6_vnJyK-bcxYRQT8Ih0-546">
          <mxGeometry x="160" y="395" width="100" height="30" as="geometry" />
        </mxCell>
        <mxCell id="C6_vnJyK-bcxYRQT8Ih0-550" value="Delete Admin" style="whiteSpace=wrap;html=1;rounded=1;" vertex="1" parent="C6_vnJyK-bcxYRQT8Ih0-546">
          <mxGeometry x="290" y="395" width="100" height="30" as="geometry" />
        </mxCell>
        <mxCell id="C6_vnJyK-bcxYRQT8Ih0-551" value="&lt;font style=&quot;font-size: 12px;&quot;&gt;Add Admin&lt;/font&gt;" style="whiteSpace=wrap;html=1;rounded=1;" vertex="1" parent="C6_vnJyK-bcxYRQT8Ih0-546">
          <mxGeometry x="30" y="395" width="100" height="30" as="geometry" />
        </mxCell>
        <mxCell id="C6_vnJyK-bcxYRQT8Ih0-552" value="" style="edgeStyle=orthogonalEdgeStyle;rounded=0;orthogonalLoop=1;jettySize=auto;html=1;" edge="1" parent="C6_vnJyK-bcxYRQT8Ih0-546">
          <mxGeometry relative="1" as="geometry">
            <mxPoint x="339" y="375" as="sourcePoint" />
            <mxPoint x="339" y="395" as="targetPoint" />
          </mxGeometry>
        </mxCell>
        <mxCell id="C6_vnJyK-bcxYRQT8Ih0-553" value="" style="edgeStyle=orthogonalEdgeStyle;rounded=0;orthogonalLoop=1;jettySize=auto;html=1;" edge="1" parent="C6_vnJyK-bcxYRQT8Ih0-546">
          <mxGeometry relative="1" as="geometry">
            <mxPoint x="79.63000000000011" y="375" as="sourcePoint" />
            <mxPoint x="79.63000000000011" y="395" as="targetPoint" />
          </mxGeometry>
        </mxCell>
        <mxCell id="C6_vnJyK-bcxYRQT8Ih0-554" value="" style="edgeStyle=orthogonalEdgeStyle;rounded=0;orthogonalLoop=1;jettySize=auto;html=1;fontStyle=4" edge="1" parent="C6_vnJyK-bcxYRQT8Ih0-546" source="C6_vnJyK-bcxYRQT8Ih0-555" target="C6_vnJyK-bcxYRQT8Ih0-559">
          <mxGeometry relative="1" as="geometry" />
        </mxCell>
        <mxCell id="C6_vnJyK-bcxYRQT8Ih0-555" value="Display Form" style="rounded=1;whiteSpace=wrap;html=1;" vertex="1" parent="C6_vnJyK-bcxYRQT8Ih0-546">
          <mxGeometry x="30" y="445" width="100" height="30" as="geometry" />
        </mxCell>
        <mxCell id="C6_vnJyK-bcxYRQT8Ih0-556" value="" style="edgeStyle=orthogonalEdgeStyle;rounded=0;orthogonalLoop=1;jettySize=auto;html=1;" edge="1" parent="C6_vnJyK-bcxYRQT8Ih0-546">
          <mxGeometry relative="1" as="geometry">
            <mxPoint x="79.63000000000011" y="425" as="sourcePoint" />
            <mxPoint x="79.63000000000011" y="445" as="targetPoint" />
          </mxGeometry>
        </mxCell>
        <mxCell id="C6_vnJyK-bcxYRQT8Ih0-557" value="Input Data" style="rounded=1;whiteSpace=wrap;html=1;" vertex="1" parent="C6_vnJyK-bcxYRQT8Ih0-546">
          <mxGeometry x="30" y="495" width="100" height="30" as="geometry" />
        </mxCell>
        <mxCell id="C6_vnJyK-bcxYRQT8Ih0-558" value="" style="edgeStyle=orthogonalEdgeStyle;rounded=0;orthogonalLoop=1;jettySize=auto;html=1;" edge="1" parent="C6_vnJyK-bcxYRQT8Ih0-546">
          <mxGeometry relative="1" as="geometry">
            <mxPoint x="79.63000000000011" y="475" as="sourcePoint" />
            <mxPoint x="79.63000000000011" y="495" as="targetPoint" />
          </mxGeometry>
        </mxCell>
        <mxCell id="C6_vnJyK-bcxYRQT8Ih0-559" value="Data Complete" style="rhombus;whiteSpace=wrap;html=1;" vertex="1" parent="C6_vnJyK-bcxYRQT8Ih0-546">
          <mxGeometry x="47.5" y="545" width="65" height="70" as="geometry" />
        </mxCell>
        <mxCell id="C6_vnJyK-bcxYRQT8Ih0-560" value="" style="endArrow=classic;html=1;rounded=0;exitX=0;exitY=0.5;exitDx=0;exitDy=0;entryX=-0.016;entryY=0.672;entryDx=0;entryDy=0;entryPerimeter=0;" edge="1" parent="C6_vnJyK-bcxYRQT8Ih0-546">
          <mxGeometry width="50" height="50" relative="1" as="geometry">
            <mxPoint x="47.5" y="577.5" as="sourcePoint" />
            <mxPoint x="27.5" y="462.5" as="targetPoint" />
            <Array as="points">
              <mxPoint x="1.5" y="577.5" />
              <mxPoint x="1.5" y="462.5" />
            </Array>
          </mxGeometry>
        </mxCell>
        <mxCell id="C6_vnJyK-bcxYRQT8Ih0-561" value="&lt;font style=&quot;font-size: 10px;&quot;&gt;no&lt;/font&gt;" style="text;html=1;align=center;verticalAlign=middle;resizable=0;points=[];autosize=1;strokeColor=none;fillColor=none;" vertex="1" parent="C6_vnJyK-bcxYRQT8Ih0-546">
          <mxGeometry y="525" width="30" height="30" as="geometry" />
        </mxCell>
        <mxCell id="C6_vnJyK-bcxYRQT8Ih0-562" value="Select Admin" style="rounded=1;whiteSpace=wrap;html=1;" vertex="1" parent="C6_vnJyK-bcxYRQT8Ih0-546">
          <mxGeometry x="160" y="445" width="100" height="30" as="geometry" />
        </mxCell>
        <mxCell id="C6_vnJyK-bcxYRQT8Ih0-563" value="" style="edgeStyle=orthogonalEdgeStyle;rounded=0;orthogonalLoop=1;jettySize=auto;html=1;" edge="1" parent="C6_vnJyK-bcxYRQT8Ih0-546">
          <mxGeometry relative="1" as="geometry">
            <mxPoint x="209.57000000000016" y="425" as="sourcePoint" />
            <mxPoint x="209.57000000000016" y="445" as="targetPoint" />
          </mxGeometry>
        </mxCell>
        <mxCell id="C6_vnJyK-bcxYRQT8Ih0-564" value="Select Admin" style="rounded=1;whiteSpace=wrap;html=1;" vertex="1" parent="C6_vnJyK-bcxYRQT8Ih0-546">
          <mxGeometry x="290" y="445" width="100" height="30" as="geometry" />
        </mxCell>
        <mxCell id="C6_vnJyK-bcxYRQT8Ih0-565" value="" style="edgeStyle=orthogonalEdgeStyle;rounded=0;orthogonalLoop=1;jettySize=auto;html=1;" edge="1" parent="C6_vnJyK-bcxYRQT8Ih0-546">
          <mxGeometry relative="1" as="geometry">
            <mxPoint x="339" y="425" as="sourcePoint" />
            <mxPoint x="339" y="445" as="targetPoint" />
          </mxGeometry>
        </mxCell>
        <mxCell id="C6_vnJyK-bcxYRQT8Ih0-566" value="" style="edgeStyle=orthogonalEdgeStyle;rounded=0;orthogonalLoop=1;jettySize=auto;html=1;" edge="1" parent="C6_vnJyK-bcxYRQT8Ih0-546">
          <mxGeometry relative="1" as="geometry">
            <mxPoint x="339" y="475" as="sourcePoint" />
            <mxPoint x="339" y="495" as="targetPoint" />
          </mxGeometry>
        </mxCell>
        <mxCell id="C6_vnJyK-bcxYRQT8Ih0-567" value="" style="edgeStyle=orthogonalEdgeStyle;rounded=0;orthogonalLoop=1;jettySize=auto;html=1;" edge="1" parent="C6_vnJyK-bcxYRQT8Ih0-546">
          <mxGeometry relative="1" as="geometry">
            <mxPoint x="209.57000000000016" y="475" as="sourcePoint" />
            <mxPoint x="209.57000000000016" y="495" as="targetPoint" />
          </mxGeometry>
        </mxCell>
        <mxCell id="C6_vnJyK-bcxYRQT8Ih0-568" value="Display Form" style="rounded=1;whiteSpace=wrap;html=1;" vertex="1" parent="C6_vnJyK-bcxYRQT8Ih0-546">
          <mxGeometry x="160" y="495" width="100" height="30" as="geometry" />
        </mxCell>
        <mxCell id="C6_vnJyK-bcxYRQT8Ih0-569" value="" style="edgeStyle=orthogonalEdgeStyle;rounded=0;orthogonalLoop=1;jettySize=auto;html=1;" edge="1" parent="C6_vnJyK-bcxYRQT8Ih0-546" source="C6_vnJyK-bcxYRQT8Ih0-570" target="C6_vnJyK-bcxYRQT8Ih0-574">
          <mxGeometry relative="1" as="geometry" />
        </mxCell>
        <mxCell id="C6_vnJyK-bcxYRQT8Ih0-570" value="Save Changes" style="rounded=1;whiteSpace=wrap;html=1;" vertex="1" parent="C6_vnJyK-bcxYRQT8Ih0-546">
          <mxGeometry x="175" y="700" width="85" height="30" as="geometry" />
        </mxCell>
        <mxCell id="C6_vnJyK-bcxYRQT8Ih0-571" value="" style="endArrow=classic;html=1;rounded=0;exitX=0.5;exitY=1;exitDx=0;exitDy=0;entryX=0;entryY=0.5;entryDx=0;entryDy=0;fontStyle=4" edge="1" parent="C6_vnJyK-bcxYRQT8Ih0-546" source="C6_vnJyK-bcxYRQT8Ih0-559" target="C6_vnJyK-bcxYRQT8Ih0-570">
          <mxGeometry width="50" height="50" relative="1" as="geometry">
            <mxPoint x="72.5" y="615" as="sourcePoint" />
            <mxPoint x="160" y="660" as="targetPoint" />
            <Array as="points">
              <mxPoint x="80" y="715" />
            </Array>
          </mxGeometry>
        </mxCell>
        <mxCell id="C6_vnJyK-bcxYRQT8Ih0-572" value="&lt;font style=&quot;font-size: 10px;&quot;&gt;yes&lt;/font&gt;" style="text;html=1;align=center;verticalAlign=middle;resizable=0;points=[];autosize=1;strokeColor=none;fillColor=none;" vertex="1" parent="C6_vnJyK-bcxYRQT8Ih0-546">
          <mxGeometry x="80" y="680" width="40" height="30" as="geometry" />
        </mxCell>
        <mxCell id="C6_vnJyK-bcxYRQT8Ih0-573" value="" style="endArrow=classic;html=1;rounded=0;entryX=1;entryY=0.5;entryDx=0;entryDy=0;fontStyle=4;exitX=0.5;exitY=1;exitDx=0;exitDy=0;" edge="1" parent="C6_vnJyK-bcxYRQT8Ih0-546" source="C6_vnJyK-bcxYRQT8Ih0-591" target="C6_vnJyK-bcxYRQT8Ih0-570">
          <mxGeometry width="50" height="50" relative="1" as="geometry">
            <mxPoint x="337.5" y="565" as="sourcePoint" />
            <mxPoint x="250" y="625" as="targetPoint" />
            <Array as="points">
              <mxPoint x="340" y="715" />
            </Array>
          </mxGeometry>
        </mxCell>
        <mxCell id="C6_vnJyK-bcxYRQT8Ih0-574" value="End" style="ellipse;whiteSpace=wrap;html=1;fillColor=#FF6666;" vertex="1" parent="C6_vnJyK-bcxYRQT8Ih0-546">
          <mxGeometry x="162.5" y="760" width="110" height="60" as="geometry" />
        </mxCell>
        <mxCell id="C6_vnJyK-bcxYRQT8Ih0-575" value="" style="endArrow=classic;html=1;rounded=0;entryX=0.5;entryY=0;entryDx=0;entryDy=0;" edge="1" parent="C6_vnJyK-bcxYRQT8Ih0-546">
          <mxGeometry width="50" height="50" relative="1" as="geometry">
            <mxPoint x="209.87999999999965" y="670" as="sourcePoint" />
            <mxPoint x="209.63999999999987" y="700" as="targetPoint" />
          </mxGeometry>
        </mxCell>
        <mxCell id="C6_vnJyK-bcxYRQT8Ih0-576" value="" style="group" vertex="1" connectable="0" parent="C6_vnJyK-bcxYRQT8Ih0-546">
          <mxGeometry x="100" width="310" height="380" as="geometry" />
        </mxCell>
        <mxCell id="C6_vnJyK-bcxYRQT8Ih0-577" value="Start" style="ellipse;whiteSpace=wrap;html=1;fillColor=#FF6666;" vertex="1" parent="C6_vnJyK-bcxYRQT8Ih0-576">
          <mxGeometry x="30" width="110" height="60" as="geometry" />
        </mxCell>
        <mxCell id="C6_vnJyK-bcxYRQT8Ih0-578" value="" style="endArrow=classic;html=1;rounded=0;exitX=1;exitY=0.5;exitDx=0;exitDy=0;" edge="1" parent="C6_vnJyK-bcxYRQT8Ih0-576">
          <mxGeometry width="50" height="50" relative="1" as="geometry">
            <mxPoint x="140" y="40" as="sourcePoint" />
            <mxPoint x="260" y="90" as="targetPoint" />
            <Array as="points">
              <mxPoint x="260" y="40" />
            </Array>
          </mxGeometry>
        </mxCell>
        <mxCell id="C6_vnJyK-bcxYRQT8Ih0-579" value="Login" style="rounded=1;whiteSpace=wrap;html=1;" vertex="1" parent="C6_vnJyK-bcxYRQT8Ih0-576">
          <mxGeometry x="210" y="90" width="100" height="30" as="geometry" />
        </mxCell>
        <mxCell id="C6_vnJyK-bcxYRQT8Ih0-580" value="" style="endArrow=classic;html=1;rounded=0;exitX=0;exitY=0.5;exitDx=0;exitDy=0;entryX=0.5;entryY=0;entryDx=0;entryDy=0;" edge="1" parent="C6_vnJyK-bcxYRQT8Ih0-576">
          <mxGeometry width="50" height="50" relative="1" as="geometry">
            <mxPoint x="210" y="105" as="sourcePoint" />
            <mxPoint x="100" y="140" as="targetPoint" />
            <Array as="points">
              <mxPoint x="100" y="105" />
            </Array>
          </mxGeometry>
        </mxCell>
        <mxCell id="C6_vnJyK-bcxYRQT8Ih0-581" value="" style="edgeStyle=orthogonalEdgeStyle;rounded=0;orthogonalLoop=1;jettySize=auto;html=1;fontStyle=4" edge="1" parent="C6_vnJyK-bcxYRQT8Ih0-576" source="C6_vnJyK-bcxYRQT8Ih0-582" target="C6_vnJyK-bcxYRQT8Ih0-584">
          <mxGeometry relative="1" as="geometry" />
        </mxCell>
        <mxCell id="C6_vnJyK-bcxYRQT8Ih0-582" value="Dashboard" style="rounded=1;whiteSpace=wrap;html=1;" vertex="1" parent="C6_vnJyK-bcxYRQT8Ih0-576">
          <mxGeometry x="40" y="140" width="120" height="52" as="geometry" />
        </mxCell>
        <mxCell id="C6_vnJyK-bcxYRQT8Ih0-583" value="" style="endArrow=classic;html=1;rounded=0;exitX=0;exitY=0.5;exitDx=0;exitDy=0;entryX=0;entryY=0.6;entryDx=0;entryDy=0;entryPerimeter=0;" edge="1" parent="C6_vnJyK-bcxYRQT8Ih0-576">
          <mxGeometry width="50" height="50" relative="1" as="geometry">
            <mxPoint x="65" y="248" as="sourcePoint" />
            <mxPoint x="40" y="163" as="targetPoint" />
            <Array as="points">
              <mxPoint y="248" />
              <mxPoint y="163" />
            </Array>
          </mxGeometry>
        </mxCell>
        <mxCell id="C6_vnJyK-bcxYRQT8Ih0-584" value="Access User" style="rhombus;whiteSpace=wrap;html=1;" vertex="1" parent="C6_vnJyK-bcxYRQT8Ih0-576">
          <mxGeometry x="65" y="210" width="70" height="70" as="geometry" />
        </mxCell>
        <mxCell id="C6_vnJyK-bcxYRQT8Ih0-585" value="User" style="rounded=1;whiteSpace=wrap;html=1;" vertex="1" parent="C6_vnJyK-bcxYRQT8Ih0-576">
          <mxGeometry x="190" y="232" width="80" height="26" as="geometry" />
        </mxCell>
        <mxCell id="C6_vnJyK-bcxYRQT8Ih0-586" value="" style="endArrow=classic;html=1;rounded=0;entryX=0;entryY=0.5;entryDx=0;entryDy=0;" edge="1" parent="C6_vnJyK-bcxYRQT8Ih0-576">
          <mxGeometry width="50" height="50" relative="1" as="geometry">
            <mxPoint x="135" y="244.70000000000005" as="sourcePoint" />
            <mxPoint x="190" y="244.82000000000005" as="targetPoint" />
            <Array as="points">
              <mxPoint x="170" y="244.99000000000007" />
            </Array>
          </mxGeometry>
        </mxCell>
        <mxCell id="C6_vnJyK-bcxYRQT8Ih0-587" value="" style="endArrow=classic;html=1;rounded=0;exitX=0.5;exitY=1;exitDx=0;exitDy=0;" edge="1" parent="C6_vnJyK-bcxYRQT8Ih0-576">
          <mxGeometry width="50" height="50" relative="1" as="geometry">
            <mxPoint x="235" y="258" as="sourcePoint" />
            <mxPoint x="110" y="330" as="targetPoint" />
            <Array as="points">
              <mxPoint x="235" y="310" />
              <mxPoint x="110" y="310" />
            </Array>
          </mxGeometry>
        </mxCell>
        <mxCell id="C6_vnJyK-bcxYRQT8Ih0-588" value="" style="edgeStyle=orthogonalEdgeStyle;rounded=0;orthogonalLoop=1;jettySize=auto;html=1;fontStyle=4" edge="1" parent="C6_vnJyK-bcxYRQT8Ih0-576" source="C6_vnJyK-bcxYRQT8Ih0-589">
          <mxGeometry relative="1" as="geometry">
            <mxPoint x="110" y="380" as="targetPoint" />
          </mxGeometry>
        </mxCell>
        <mxCell id="C6_vnJyK-bcxYRQT8Ih0-589" value="Manage Admin" style="rounded=1;whiteSpace=wrap;html=1;" vertex="1" parent="C6_vnJyK-bcxYRQT8Ih0-576">
          <mxGeometry x="60" y="330" width="100" height="30" as="geometry" />
        </mxCell>
        <mxCell id="C6_vnJyK-bcxYRQT8Ih0-590" value="Data Complete" style="rhombus;whiteSpace=wrap;html=1;" vertex="1" parent="C6_vnJyK-bcxYRQT8Ih0-546">
          <mxGeometry x="177.5" y="600" width="65" height="70" as="geometry" />
        </mxCell>
        <mxCell id="C6_vnJyK-bcxYRQT8Ih0-591" value="delete admin" style="rhombus;whiteSpace=wrap;html=1;" vertex="1" parent="C6_vnJyK-bcxYRQT8Ih0-546">
          <mxGeometry x="307.5" y="495" width="65" height="70" as="geometry" />
        </mxCell>
        <mxCell id="C6_vnJyK-bcxYRQT8Ih0-592" value="" style="edgeStyle=orthogonalEdgeStyle;rounded=0;orthogonalLoop=1;jettySize=auto;html=1;" edge="1" parent="C6_vnJyK-bcxYRQT8Ih0-546">
          <mxGeometry relative="1" as="geometry">
            <mxPoint x="209.74000000000024" y="525" as="sourcePoint" />
            <mxPoint x="209.74000000000024" y="545" as="targetPoint" />
          </mxGeometry>
        </mxCell>
        <mxCell id="C6_vnJyK-bcxYRQT8Ih0-593" value="Edit Data Details" style="rounded=1;whiteSpace=wrap;html=1;" vertex="1" parent="C6_vnJyK-bcxYRQT8Ih0-546">
          <mxGeometry x="160" y="545" width="100" height="30" as="geometry" />
        </mxCell>
        <mxCell id="C6_vnJyK-bcxYRQT8Ih0-594" value="" style="edgeStyle=orthogonalEdgeStyle;rounded=0;orthogonalLoop=1;jettySize=auto;html=1;entryX=0.479;entryY=0.033;entryDx=0;entryDy=0;entryPerimeter=0;" edge="1" parent="C6_vnJyK-bcxYRQT8Ih0-546" target="C6_vnJyK-bcxYRQT8Ih0-590">
          <mxGeometry relative="1" as="geometry">
            <mxPoint x="209.74000000000024" y="575" as="sourcePoint" />
            <mxPoint x="209.74000000000024" y="595" as="targetPoint" />
          </mxGeometry>
        </mxCell>
        <mxCell id="C6_vnJyK-bcxYRQT8Ih0-595" value="" style="endArrow=classic;html=1;rounded=0;exitX=0;exitY=0.5;exitDx=0;exitDy=0;" edge="1" parent="C6_vnJyK-bcxYRQT8Ih0-546">
          <mxGeometry width="50" height="50" relative="1" as="geometry">
            <mxPoint x="177.5" y="635" as="sourcePoint" />
            <mxPoint x="159" y="510" as="targetPoint" />
            <Array as="points">
              <mxPoint x="140" y="635" />
              <mxPoint x="140" y="510" />
            </Array>
          </mxGeometry>
        </mxCell>
        <mxCell id="C6_vnJyK-bcxYRQT8Ih0-596" value="&lt;font style=&quot;font-size: 10px;&quot;&gt;no&lt;/font&gt;" style="text;html=1;align=center;verticalAlign=middle;resizable=0;points=[];autosize=1;strokeColor=none;fillColor=none;" vertex="1" parent="C6_vnJyK-bcxYRQT8Ih0-546">
          <mxGeometry x="140" y="600" width="30" height="30" as="geometry" />
        </mxCell>
        <mxCell id="C6_vnJyK-bcxYRQT8Ih0-597" value="" style="endArrow=classic;html=1;rounded=0;exitX=0;exitY=0.5;exitDx=0;exitDy=0;entryX=0;entryY=0.5;entryDx=0;entryDy=0;" edge="1" parent="C6_vnJyK-bcxYRQT8Ih0-546" target="C6_vnJyK-bcxYRQT8Ih0-550">
          <mxGeometry width="50" height="50" relative="1" as="geometry">
            <mxPoint x="307.5" y="529.5" as="sourcePoint" />
            <mxPoint x="287.5" y="414.5" as="targetPoint" />
            <Array as="points">
              <mxPoint x="270" y="530" />
              <mxPoint x="270" y="410" />
            </Array>
          </mxGeometry>
        </mxCell>
        <mxCell id="C6_vnJyK-bcxYRQT8Ih0-598" value="&lt;font style=&quot;font-size: 10px;&quot;&gt;no&lt;/font&gt;" style="text;html=1;align=center;verticalAlign=middle;resizable=0;points=[];autosize=1;strokeColor=none;fillColor=none;" vertex="1" parent="C6_vnJyK-bcxYRQT8Ih0-546">
          <mxGeometry x="270" y="490" width="30" height="30" as="geometry" />
        </mxCell>
        <mxCell id="C6_vnJyK-bcxYRQT8Ih0-599" value="&lt;font style=&quot;font-size: 10px;&quot;&gt;yes&lt;/font&gt;" style="text;html=1;align=center;verticalAlign=middle;resizable=0;points=[];autosize=1;strokeColor=none;fillColor=none;" vertex="1" parent="C6_vnJyK-bcxYRQT8Ih0-546">
          <mxGeometry x="210" y="670" width="40" height="30" as="geometry" />
        </mxCell>
        <mxCell id="C6_vnJyK-bcxYRQT8Ih0-600" value="&lt;font style=&quot;font-size: 10px;&quot;&gt;yes&lt;/font&gt;" style="text;html=1;align=center;verticalAlign=middle;resizable=0;points=[];autosize=1;strokeColor=none;fillColor=none;" vertex="1" parent="C6_vnJyK-bcxYRQT8Ih0-546">
          <mxGeometry x="300" y="658" width="40" height="30" as="geometry" />
        </mxCell>
      </root>
    </mxGraphModel>
  </diagram>
</mxfile>
